<?xml version="1.0" encoding="utf-8"?>
<!-- Generator: Adobe Illustrator 15.1.0, SVG Export Plug-In . SVG Version: 6.00 Build 0)  -->
<!DOCTYPE svg PUBLIC "-//W3C//DTD SVG 1.1//EN" "http://www.w3.org/Graphics/SVG/1.1/DTD/svg11.dtd">
<svg version="1.1" id="Layer_1" xmlns="http://www.w3.org/2000/svg" xmlns:xlink="http://www.w3.org/1999/xlink" x="0px" y="0px"
	  viewBox="0 0 215 205" enable-background="new 0 0 215 205" xml:space="preserve">
<path fill="#006A43" d="M211.727,136.324l-50.023-15.697c1.098-4.438,1.657-9.081,1.603-13.859
	c-0.143-12.328-4.396-23.708-11.431-32.848l43.979-29.906c1.641-1.115,2.065-3.349,0.95-4.989c-1.115-1.641-3.351-2.066-4.989-0.95
	l-44.717,30.408c-9.199-9.192-21.6-15.164-35.307-16.057V4.148c0-1.983-1.608-3.591-3.592-3.591s-3.592,1.608-3.592,3.591v48.266
	c-13.6,0.872-26.228,6.653-35.823,16.473c-0.038,0.039-0.073,0.081-0.111,0.12L23.183,38.074c-1.643-1.116-3.874-0.69-4.99,0.951
	c-1.115,1.64-0.689,3.874,0.951,4.99l44.847,30.495c-7.201,9.636-11.037,21.298-10.896,33.529c0.048,4.193,0.587,8.271,1.534,12.196
	c-0.079,0.019-0.159,0.023-0.238,0.049L3.273,136.324c-1.893,0.594-2.945,2.609-2.352,4.502c0.481,1.535,1.898,2.518,3.426,2.518
	c0.356,0,0.718-0.054,1.076-0.166l51.117-16.041c0.072-0.022,0.133-0.061,0.203-0.087c3.952,10.26,10.898,19.055,19.742,25.323
	l-26.159,46.724c-0.969,1.731-0.352,3.92,1.379,4.889c0.555,0.311,1.157,0.458,1.751,0.458c1.258,0,2.479-0.661,3.137-1.837
	l26.011-46.459c7.662,4.056,16.37,6.363,25.583,6.363l0.648-0.004c9.466-0.109,18.354-2.613,26.096-6.926l26.328,47.025
	c0.658,1.176,1.879,1.837,3.137,1.837c0.594,0,1.196-0.147,1.752-0.458c1.73-0.969,2.348-3.157,1.379-4.889l-26.556-47.431
	c8.255-6.129,14.733-14.5,18.541-24.199l50.063,15.711c0.357,0.112,0.72,0.166,1.076,0.166c1.527,0,2.944-0.982,3.426-2.518
	C214.672,138.934,213.619,136.918,211.727,136.324z M108.753,155.324l-0.565,0.004c-26.116,0-47.608-21.251-47.91-47.372
	c-0.147-12.801,4.698-24.893,13.645-34.048s20.924-14.279,33.725-14.427l0.565-0.003c26.116,0,47.608,21.251,47.909,47.372
	C156.428,133.273,135.177,155.019,108.753,155.324z"/>
</svg>
