<?xml version="1.0" encoding="utf-8"?>
<!-- Generator: Adobe Illustrator 15.1.0, SVG Export Plug-In . SVG Version: 6.00 Build 0)  -->
<!DOCTYPE svg PUBLIC "-//W3C//DTD SVG 1.1//EN" "http://www.w3.org/Graphics/SVG/1.1/DTD/svg11.dtd">
<svg version="1.1" id="Layer_1" xmlns="http://www.w3.org/2000/svg" xmlns:xlink="http://www.w3.org/1999/xlink" x="0px" y="0px"
	 width="350.381px" height="398.33px" viewBox="0 0 350.381 398.33" enable-background="new 0 0 350.381 398.33"
	 xml:space="preserve">
<path fill="#C7DBD4" d="M48.45,310.62c12.091,5.75,25.141,8.16,38.13,8.16c11.851,0,21.221-2.439,32.851-7.439l35.03,86.989h43.119
	L139.721,254.13c-23.46,19.59-51.36,27.88-73.34,17.96c-14.92-6.73-23.92-21.66-23.92-38.11c0-20.19,16.149-41.95,42.42-41.95
	c24.08,0,41.239,18.95,64.479,49.87c23.061,30.66,49.19,65.42,94.82,74.44c26.32,5.21,53.689-1.141,74.229-18.07
	c21.32-17.55,31.971-41.85,31.971-67.95c0-20.8-9.61-51.77-36.38-70.7c-16.13-11.38-34.061-17.07-58.21-16.05
	c14.489-29.93,16.439-60.29,4.81-87.58C246.15,21.96,212.341,0,174.471,0c-35.21,0-66.88,20.77-80.68,52.88
	c-12.41,28.86-7.181,58.02,10.869,79.21l48.15-0.19c-31.96-31.64-22.73-55.9-20.01-62.24c5.399-12.53,19.54-27.16,41.67-27.16
	c20.8,0,39.28,11.79,47.06,30.1c10.021,23.52,1.34,52.96-23.79,81.63c-0.319,0.36-6.52,7.36-13.43,12.52
	c14.33,15.91,26.06,32.41,26.06,32.41s7.19-4.98,18.19-8.48c21.21-6.8,44.76-7.84,60.61,3.69c15.08,10.97,18.64,25.919,18.64,35.94
	c0,13.34-5.62,26.27-16.29,35.03c-10.85,8.92-25.08,12.1-39.08,9.34c-29.68-5.87-48.83-31.351-69.13-58.33
	c-23.54-31.31-50.24-66.88-96.76-66.79C34.711,149.67,0,189.38,0,233.959C0.001,266.7,18.49,296.34,48.45,310.62z"/>
</svg>
