<?xml version="1.0" encoding="utf-8"?>
<!-- Generator: Adobe Illustrator 15.1.0, SVG Export Plug-In . SVG Version: 6.00 Build 0)  -->
<!DOCTYPE svg PUBLIC "-//W3C//DTD SVG 1.1//EN" "http://www.w3.org/Graphics/SVG/1.1/DTD/svg11.dtd">
<svg version="1.1" id="Layer_1" xmlns="http://www.w3.org/2000/svg" xmlns:xlink="http://www.w3.org/1999/xlink" x="0px" y="0px"
	 viewBox="0 0 390.034 390.03" enable-background="new 0 0 390.034 390.03"
	 xml:space="preserve">
<text transform="matrix(1 0 0 1 7.1079 13.5215)" opacity="0">key</text>
<g>
	<path fill="#006A43" d="M377.534,161.464H180.418c-13.715-35.634-48.25-59.774-87.094-59.774C41.865,101.69,0,143.555,0,195.015
		s41.865,93.325,93.325,93.325c38.844,0,73.379-24.141,87.094-59.774h82.675v47.274c0,6.903,5.597,12.5,12.5,12.5H340.2
		c6.904,0,12.5-5.597,12.5-12.5v-47.274h24.834c6.904,0,12.5-5.597,12.5-12.5v-42.102
		C390.034,167.061,384.438,161.464,377.534,161.464z M327.7,263.34h-39.606v-34.774H327.7V263.34z M365.034,203.566H340.2h-64.606
		h-104.23c-5.653,0-10.603,3.794-12.071,9.252c-8.004,29.747-35.131,50.522-65.967,50.522C55.65,263.34,25,232.69,25,195.015
		s30.65-68.325,68.325-68.325c30.836,0,57.963,20.775,65.967,50.522c1.469,5.458,6.418,9.252,12.071,9.252h193.671V203.566z"/>
	<path fill="#006A43" d="M93.324,144.464c-27.874,0-50.551,22.677-50.551,50.551s22.677,50.551,50.551,50.551
		c27.875,0,50.552-22.677,50.552-50.551S121.198,144.464,93.324,144.464z M93.324,220.566c-14.089,0-25.551-11.462-25.551-25.551
		s11.462-25.551,25.551-25.551c14.089,0,25.552,11.462,25.552,25.551S107.413,220.566,93.324,220.566z"/>
</g>
</svg>
