<?xml version="1.0" encoding="utf-8"?>
<!-- Generator: Adobe Illustrator 15.1.0, SVG Export Plug-In . SVG Version: 6.00 Build 0)  -->
<!DOCTYPE svg PUBLIC "-//W3C//DTD SVG 1.1//EN" "http://www.w3.org/Graphics/SVG/1.1/DTD/svg11.dtd">
<svg version="1.1" id="Layer_1" xmlns="http://www.w3.org/2000/svg" xmlns:xlink="http://www.w3.org/1999/xlink" x="0px" y="0px"
	 viewBox="0 0 114.791 186.68" enable-background="new 0 0 114.791 186.68"
	 xml:space="preserve">
	 <text transform="matrix(1 0 0 1 7.1079 13.5215)" opacity="0">login</text>
<g>
	<path fill="#006A43" d="M96.037,99.832c11.876-10.789,18.754-26.089,18.754-42.436C114.791,25.748,89.044,0,57.396,0
		C25.748,0,0,25.748,0,57.396c0,16.347,6.876,31.646,18.754,42.436L0.448,171.068c-0.962,3.742-0.139,7.719,2.229,10.771
		c2.368,3.054,6.014,4.84,9.878,4.84h89.683c3.863,0,7.51-1.787,9.878-4.84c2.367-3.053,3.19-7.029,2.229-10.771L96.037,99.832z
		 M69.785,98.123l16.334,63.557H28.673l16.333-63.557c1.334-5.19-0.789-10.652-5.276-13.58C30.506,78.525,25,68.377,25,57.396
		C25,39.533,39.533,25,57.396,25c17.863,0,32.396,14.533,32.396,32.396c0,10.981-5.507,21.129-14.729,27.146
		C70.573,87.471,68.451,92.933,69.785,98.123z"/>
	<circle fill="#006A43" cx="43.103" cy="55.04" r="10.751"/>
	<circle fill="#006A43" cx="71.799" cy="55.039" r="10.751"/>
</g>
</svg>
