<?xml version="1.0" encoding="utf-8"?>
<!-- Generator: Adobe Illustrator 15.1.0, SVG Export Plug-In . SVG Version: 6.00 Build 0)  -->
<!DOCTYPE svg PUBLIC "-//W3C//DTD SVG 1.1//EN" "http://www.w3.org/Graphics/SVG/1.1/DTD/svg11.dtd">
<svg version="1.1" id="Layer_1" xmlns="http://www.w3.org/2000/svg" xmlns:xlink="http://www.w3.org/1999/xlink" x="0px" y="0px" viewBox="0 0 1000 1000" enable-background="new 0 0 1000 1000" xml:space="preserve">
<text opacity="0" fill="#FFFFFF" enable-background="new" font-family="'ArialMT'" font-size="120">logo</text>
<g>
	<path fill="#FFFFFF" d="M776.1,634.245c-47.13,0-85.35,38.2-85.35,85.34c0,47.13,38.22,85.31,85.35,85.31
		c28.851,0,50.881-10.659,69.86-26.229c-6.55-6.51-15.979-15.98-25.29-25.32c-12.16,7.23-23.28,14.021-44.56,14.021
		c-21.021,0-38.891-13.601-45.24-32.471h90.53h32.279h6.391c0.899-4.96,1.38-10.079,1.38-15.319
		C861.42,672.445,823.24,634.245,776.1,634.245z M730.85,704.245c6.37-18.86,24.221-32.48,45.24-32.48
		c21.04,0,38.9,13.61,45.271,32.48H730.85z"/>
	<path fill="#FFFFFF" d="M387.07,634.245c-47.141,0-85.34,38.2-85.34,85.34c0,47.13,38.21,85.31,85.34,85.31
		c28.85,0,50.85-10.659,69.859-26.229c-6.54-6.51-15.96-15.98-25.31-25.32c-12.16,7.23-23.271,14.021-44.55,14.021
		c-21.03,0-38.9-13.601-45.261-32.471h90.53h32.29h6.39c0.891-4.96,1.391-10.079,1.391-15.319
		C472.39,672.445,434.2,634.245,387.07,634.245z M341.81,704.245c6.36-18.86,24.23-32.48,45.261-32.48
		c21.029,0,38.88,13.61,45.26,32.48H341.81z"/>
	<polygon fill="#FFFFFF" points="578.73,756.165 529.8,634.245 486.42,634.245 554.87,804.895 602.57,804.895 671.03,634.245 
		627.65,634.245 	"/>
	<path fill="#FFFFFF" d="M947.64,634.245h0.2c-23.46,0.02-42.479,19.06-42.479,42.54v128.12h40.42v-115.75
		c0-11.74,1.739-16.49,13.5-16.49H1000v-38.42H947.64z"/>
	<path fill="#FFFFFF" d="M223.77,749.975V634.245h-40.46v128.13c0,23.47,19.06,42.51,42.52,42.52h-0.23h52.33v-38.43h-40.7
		C225.48,766.465,223.77,761.725,223.77,749.975z"/>
	<path fill="#FFFFFF" d="M85.32,671.775c13.23,0,25.18,5.369,33.79,14l26.56-26.551c-15.44-15.42-36.77-24.979-60.36-24.979
		c-47.12,0-85.31,38.2-85.31,85.34c0,47.13,38.19,85.31,85.32,85.31c23.59,0,44.92-9.56,60.36-24.97l-26.56-26.58
		c-8.62,8.65-20.58,14.021-33.79,14.021c-26.39,0-47.78-21.391-47.78-47.78C37.54,693.195,58.93,671.775,85.32,671.775z"/>
	<path fill="#FFFFFF" d="M364.39,505.725c12.091,5.75,25.141,8.16,38.13,8.16c11.851,0,21.221-2.439,32.851-7.439l35.03,86.989
		h43.119L455.66,449.235c-23.46,19.59-51.36,27.88-73.34,17.96c-14.92-6.73-23.92-21.66-23.92-38.11
		c0-20.19,16.149-41.95,42.42-41.95c24.08,0,41.239,18.95,64.479,49.87c23.061,30.66,49.19,65.42,94.82,74.44
		c26.32,5.21,53.689-1.141,74.229-18.07c21.32-17.55,31.971-41.85,31.971-67.95c0-20.8-9.61-51.77-36.38-70.7
		c-16.13-11.38-34.061-17.07-58.21-16.05c14.489-29.93,16.439-60.29,4.81-87.58c-14.45-34.03-48.26-55.99-86.13-55.99
		c-35.21,0-66.88,20.77-80.68,52.88c-12.41,28.86-7.181,58.02,10.869,79.21l48.15-0.19c-31.96-31.64-22.73-55.9-20.01-62.24
		c5.399-12.53,19.54-27.16,41.67-27.16c20.8,0,39.28,11.79,47.06,30.1c10.021,23.52,1.34,52.96-23.79,81.63
		c-0.319,0.36-6.52,7.36-13.43,12.52c14.33,15.91,26.06,32.41,26.06,32.41s7.19-4.98,18.19-8.48c21.21-6.8,44.76-7.84,60.61,3.69
		c15.08,10.97,18.64,25.92,18.64,35.94c0,13.34-5.62,26.27-16.29,35.03c-10.85,8.92-25.08,12.1-39.08,9.34
		c-29.68-5.87-48.83-31.351-69.13-58.33c-23.54-31.31-50.24-66.88-96.76-66.79c-51.84,0.11-86.551,39.82-86.551,84.399
		C315.94,461.805,334.43,491.445,364.39,505.725z"/>
</g>
</svg>
