<?xml version="1.0" encoding="utf-8"?>
<!-- Generator: Adobe Illustrator 15.1.0, SVG Export Plug-In . SVG Version: 6.00 Build 0)  -->
<!DOCTYPE svg PUBLIC "-//W3C//DTD SVG 1.1//EN" "http://www.w3.org/Graphics/SVG/1.1/DTD/svg11.dtd">
<svg version="1.1" id="Layer_1" xmlns="http://www.w3.org/2000/svg" xmlns:xlink="http://www.w3.org/1999/xlink" x="0px" y="0px" viewBox="0 0 100 60.979" enable-background="new 0 0 100 60.979" xml:space="preserve">
<text transform="matrix(1 0 0 1 7.1079 13.5215)" opacity="0">logo</text>
<g>
	<path fill="#006A43" d="M77.61,43.914c-4.713,0-8.535,3.82-8.535,8.534c0,4.713,3.822,8.531,8.535,8.531
		c2.885,0,5.088-1.066,6.986-2.623c-0.655-0.651-1.598-1.598-2.529-2.532c-1.216,0.723-2.328,1.402-4.456,1.402
		c-2.102,0-3.889-1.36-4.524-3.247h9.053h3.228h0.639c0.09-0.496,0.138-1.008,0.138-1.532C86.142,47.734,82.324,43.914,77.61,43.914
		z M73.085,50.914c0.637-1.886,2.422-3.248,4.524-3.248c2.104,0,3.89,1.361,4.527,3.248H73.085z"/>
	<path fill="#006A43" d="M38.707,43.914c-4.714,0-8.534,3.82-8.534,8.534c0,4.713,3.821,8.531,8.534,8.531
		c2.885,0,5.085-1.066,6.986-2.623c-0.654-0.651-1.596-1.598-2.531-2.532c-1.216,0.723-2.327,1.402-4.455,1.402
		c-2.103,0-3.89-1.36-4.526-3.247h9.053h3.229h0.639c0.089-0.496,0.139-1.008,0.139-1.532C47.239,47.734,43.42,43.914,38.707,43.914
		z M34.181,50.914c0.636-1.886,2.423-3.248,4.526-3.248c2.103,0,3.888,1.361,4.526,3.248H34.181z"/>
	<polygon fill="#006A43" points="57.873,56.106 52.98,43.914 48.642,43.914 55.487,60.979 60.257,60.979 67.103,43.914 
		62.765,43.914 	"/>
	<path fill="#006A43" d="M94.764,43.914h0.02c-2.346,0.002-4.248,1.906-4.248,4.254v12.812h4.042V49.405
		c0-1.174,0.174-1.649,1.35-1.649H100v-3.842H94.764z"/>
	<path fill="#006A43" d="M22.377,55.487V43.914h-4.046v12.813c0,2.347,1.906,4.251,4.252,4.252H22.56h5.233v-3.843h-4.07
		C22.548,57.136,22.377,56.662,22.377,55.487z"/>
	<path fill="#006A43" d="M8.532,47.667c1.323,0,2.518,0.537,3.379,1.4l2.656-2.655c-1.544-1.542-3.677-2.498-6.036-2.498
		C3.819,43.914,0,47.734,0,52.448c0,4.713,3.819,8.531,8.532,8.531c2.359,0,4.492-0.956,6.036-2.497l-2.656-2.658
		c-0.862,0.865-2.058,1.402-3.379,1.402c-2.639,0-4.778-2.139-4.778-4.778C3.754,49.809,5.893,47.667,8.532,47.667z"/>
	<path fill="#006A43" d="M36.439,31.062c1.209,0.575,2.514,0.816,3.813,0.816c1.185,0,2.122-0.244,3.285-0.744l3.503,8.699h4.312
		l-5.786-14.42c-2.346,1.959-5.136,2.788-7.334,1.796c-1.492-0.673-2.392-2.166-2.392-3.811c0-2.019,1.615-4.195,4.242-4.195
		c2.408,0,4.124,1.895,6.448,4.987c2.306,3.066,4.919,6.542,9.482,7.444c2.632,0.521,5.369-0.114,7.423-1.807
		c2.132-1.755,3.197-4.185,3.197-6.795c0-2.08-0.961-5.177-3.638-7.07c-1.613-1.138-3.406-1.707-5.821-1.605
		c1.449-2.993,1.644-6.029,0.481-8.758C56.209,2.196,52.828,0,49.041,0c-3.521,0-6.688,2.077-8.068,5.288
		c-1.241,2.886-0.718,5.802,1.087,7.921l4.815-0.019c-3.196-3.164-2.273-5.59-2.001-6.224c0.54-1.253,1.954-2.716,4.167-2.716
		c2.08,0,3.928,1.179,4.706,3.01c1.002,2.352,0.134,5.296-2.379,8.163c-0.032,0.036-0.652,0.736-1.343,1.252
		c1.433,1.591,2.606,3.241,2.606,3.241s0.719-0.498,1.819-0.848c2.121-0.68,4.476-0.784,6.061,0.369
		c1.508,1.097,1.864,2.592,1.864,3.594c0,1.334-0.562,2.627-1.629,3.503c-1.085,0.892-2.508,1.21-3.908,0.934
		c-2.968-0.587-4.883-3.135-6.913-5.833c-2.354-3.131-5.024-6.688-9.676-6.679c-5.184,0.011-8.655,3.982-8.655,8.44
		C31.594,26.67,33.443,29.634,36.439,31.062z"/>
</g>
</svg>
