<?xml version="1.0" encoding="utf-8"?>
<!-- Generator: Adobe Illustrator 15.1.0, SVG Export Plug-In . SVG Version: 6.00 Build 0)  -->
<!DOCTYPE svg PUBLIC "-//W3C//DTD SVG 1.1//EN" "http://www.w3.org/Graphics/SVG/1.1/DTD/svg11.dtd">
<svg version="1.1" id="Layer_1" xmlns="http://www.w3.org/2000/svg" xmlns:xlink="http://www.w3.org/1999/xlink" x="0px" y="0px"
	 width="444.304px" height="388.778px" viewBox="0 0 444.304 388.778" enable-background="new 0 0 444.304 388.778"
	 xml:space="preserve">
<path fill="#016635" d="M103.224,242.611c0.016-0.048,0.031-0.096,0.045-0.145c0.049-0.183,0.089-0.367,0.105-0.556
	c0.001-0.007,0-0.015,0.001-0.022c0.016-0.18,0.012-0.36-0.002-0.54c-0.005-0.058-0.012-0.115-0.02-0.173
	c-0.02-0.15-0.05-0.299-0.091-0.446c-0.011-0.042-0.019-0.084-0.031-0.125c-0.051-0.159-0.111-0.316-0.188-0.469
	c-0.012-0.024-0.028-0.045-0.04-0.069c-0.009-0.015-0.012-0.031-0.021-0.047l-16.942-30.93c-0.281-0.571-0.717-1.038-1.251-1.36
	c-0.016-0.01-0.03-0.02-0.045-0.028c-0.108-0.063-0.22-0.119-0.336-0.17c-0.049-0.022-0.1-0.04-0.149-0.06
	c-0.161-0.061-0.326-0.11-0.497-0.146c-0.097-0.021-0.193-0.041-0.293-0.054c-0.086-0.01-0.173-0.014-0.261-0.018
	c-0.045-0.002-0.089-0.009-0.134-0.009c-0.083,0-0.163,0.011-0.245,0.017c-0.049,0.004-0.096-0.003-0.145,0.003
	c-3.694,0.457-6.36-0.105-9.447-0.757c-3.267-0.689-6.969-1.472-11.939-0.855c-1.043,0.129-2.04,0.37-2.99,0.675
	c0.085-0.712,0.143-1.431,0.143-2.163c0-4.736-1.807-9.137-4.956-12.073c-1.268-1.182-3.232-1.182-4.5,0
	c-3.149,2.936-4.956,7.337-4.956,12.073c0,1.459,0.19,2.879,0.52,4.241c-1.485-0.228-3.073-0.302-4.697-0.102
	c-4.967,0.615-8.365,2.275-11.364,3.739c-2.838,1.385-5.289,2.582-8.985,3.038c-1.623,0.2-2.814,1.548-2.884,3.128L0.401,247.829
	c-0.009,0.017-0.013,0.034-0.021,0.051c-0.012,0.022-0.027,0.043-0.039,0.066c-0.075,0.152-0.136,0.309-0.187,0.467
	c-0.014,0.043-0.021,0.087-0.033,0.13c-0.04,0.146-0.07,0.293-0.09,0.441c-0.008,0.059-0.015,0.116-0.02,0.175
	c-0.014,0.179-0.017,0.356-0.002,0.534c0.001,0.01,0,0.02,0.001,0.029c0.018,0.187,0.056,0.37,0.105,0.552
	c0.014,0.052,0.03,0.102,0.047,0.152c0.045,0.139,0.099,0.274,0.162,0.407c0.021,0.044,0.039,0.089,0.062,0.132
	c0.082,0.152,0.173,0.302,0.279,0.442c0.01,0.013,0.021,0.024,0.03,0.038c0.01,0.012,0.02,0.024,0.03,0.037
	c4.704,6.161,11.836,9.695,19.584,9.695c7.749,0,14.881-3.535,19.586-9.699c0.008-0.01,0.016-0.02,0.023-0.03
	c0.011-0.014,0.023-0.027,0.034-0.042c0.107-0.142,0.198-0.291,0.28-0.444c0.021-0.04,0.037-0.081,0.057-0.121
	c0.065-0.137,0.121-0.276,0.167-0.419c0.016-0.049,0.031-0.097,0.045-0.146c0.049-0.182,0.089-0.367,0.105-0.555
	c0.001-0.007,0-0.015,0.001-0.022c0.016-0.18,0.012-0.36-0.002-0.54c-0.005-0.059-0.012-0.115-0.02-0.173
	c-0.02-0.15-0.05-0.299-0.091-0.446c-0.011-0.042-0.019-0.084-0.031-0.125c-0.051-0.159-0.111-0.316-0.188-0.469
	c-0.012-0.024-0.028-0.045-0.04-0.069c-0.009-0.015-0.012-0.031-0.021-0.047l-14.942-27.277c2.351-0.742,4.31-1.695,6.117-2.578
	c2.78-1.357,5.407-2.64,9.278-3.119c2.386-0.297,4.781,0.379,6.513,1.081c-2.711,6.778-4.242,16.025-4.242,25.905
	c0,9.096,1.297,17.658,3.619,24.25c-9.602,0.789-18.304,3.979-24.366,9.033c-1.067,0.889-1.463,2.352-0.989,3.658
	c0.473,1.307,1.713,2.176,3.103,2.176h53.875c1.39,0,2.63-0.869,3.103-2.176c0.474-1.307,0.078-2.768-0.989-3.658
	c-6.062-5.055-14.764-8.244-24.366-9.033c2.32-6.59,3.617-15.152,3.617-24.25c0-10.073-1.592-19.481-4.4-26.29
	c1.459-1.209,4.031-2.985,6.964-3.348c3.875-0.483,6.737,0.123,9.765,0.762c1.707,0.36,3.543,0.738,5.602,0.931l-14.31,26.123
	c-0.009,0.016-0.012,0.032-0.021,0.047c-0.012,0.024-0.028,0.045-0.04,0.069c-0.076,0.152-0.137,0.31-0.188,0.469
	c-0.013,0.041-0.021,0.083-0.031,0.125c-0.041,0.147-0.071,0.296-0.091,0.446c-0.008,0.058-0.015,0.115-0.02,0.173
	c-0.014,0.18-0.018,0.36-0.002,0.54c0.001,0.008,0,0.016,0.001,0.022c0.017,0.188,0.057,0.373,0.105,0.556
	c0.014,0.049,0.029,0.097,0.045,0.145c0.046,0.145,0.103,0.285,0.169,0.423c0.019,0.039,0.034,0.078,0.054,0.116
	c0.082,0.154,0.174,0.305,0.281,0.447c0.012,0.016,0.025,0.03,0.037,0.046c0.006,0.007,0.011,0.014,0.017,0.021
	c4.706,6.167,11.84,9.704,19.591,9.704s14.885-3.537,19.591-9.704c0.006-0.007,0.011-0.014,0.017-0.021
	c0.012-0.016,0.025-0.03,0.037-0.046c0.107-0.143,0.199-0.293,0.281-0.447c0.02-0.038,0.035-0.077,0.054-0.116
	C103.121,242.896,103.178,242.755,103.224,242.611z M20.311,225.226l11.442,20.889H8.867L20.311,225.226z M20.311,254.579
	c-2.841,0-5.569-0.649-8.018-1.864h16.035C25.879,253.929,23.151,254.579,20.311,254.579z M51.245,225.259
	c1.096,4.93,1.702,10.669,1.702,16.582c0,5.912-0.606,11.649-1.702,16.579c-1.098-4.93-1.704-10.668-1.704-16.579
	C49.541,235.929,50.147,230.19,51.245,225.259z M51.245,200.5c0.394,1.138,0.606,2.386,0.606,3.665c0,1.28-0.213,2.528-0.606,3.666
	c-0.394-1.138-0.606-2.386-0.606-3.666C50.639,202.885,50.852,201.637,51.245,200.5z M37.927,274.358
	c4.111-1.209,8.66-1.865,13.318-1.865c4.659,0,9.208,0.656,13.319,1.865H37.927z M94.519,238.304H71.632l11.443-20.89
	L94.519,238.304z M83.075,246.768c-2.841,0-5.568-0.649-8.018-1.864h16.035C88.644,246.119,85.916,246.768,83.075,246.768z"/>
<path fill="#016635" d="M273.447,5.777c0-0.028-0.01-0.055-0.01-0.083c-0.006-0.203-0.031-0.403-0.073-0.601
	c-0.009-0.04-0.009-0.082-0.02-0.121c-0.059-0.232-0.145-0.457-0.252-0.672c-0.028-0.056-0.066-0.107-0.098-0.162
	c-0.089-0.154-0.187-0.303-0.301-0.442c-0.053-0.063-0.108-0.122-0.165-0.181c-0.113-0.119-0.234-0.228-0.366-0.33
	c-0.041-0.032-0.071-0.073-0.114-0.104c-0.032-0.022-0.069-0.034-0.102-0.055c-0.045-0.029-0.082-0.066-0.129-0.094
	c-0.1-0.059-0.206-0.095-0.31-0.142c-0.074-0.034-0.146-0.074-0.222-0.102c-0.218-0.081-0.438-0.14-0.662-0.172
	c-0.012-0.001-0.023-0.006-0.035-0.008c-0.242-0.033-0.484-0.033-0.724-0.013c-0.067,0.006-0.134,0.022-0.201,0.032
	c-0.175,0.026-0.347,0.063-0.515,0.117c-0.037,0.011-0.075,0.012-0.111,0.025c-4.901,1.748-9.143,2.597-12.965,2.598
	c-0.001,0-0.001,0-0.002,0c-4.702,0-8.084-1.271-11.666-2.616C240.938,1.347,237.352,0,232.805,0c-3.306,0-6.776,0.73-10.567,2.216
	C218.446,0.73,214.977,0,211.671,0c-4.547,0-8.133,1.347-11.602,2.65c-3.582,1.345-6.966,2.616-11.669,2.616
	c-3.82,0-8.062-0.85-12.965-2.598c-1.012-0.36-2.134-0.207-3.01,0.412c-0.877,0.618-1.398,1.624-1.398,2.697v58.125
	c0,1.782,1.413,3.234,3.18,3.298c5.223,1.773,9.875,2.637,14.192,2.637c0.001,0,0.002,0,0.003,0c5.898,0,10.195-1.613,13.985-3.037
	c3.185-1.196,5.936-2.229,9.284-2.229c2.553,0,5.33,0.615,8.467,1.877c0.047,0.039,0.102,0.068,0.151,0.104
	c0.063,0.047,0.127,0.092,0.193,0.134c0.105,0.066,0.216,0.124,0.329,0.179c0.069,0.034,0.138,0.069,0.21,0.098
	c0.126,0.05,0.259,0.087,0.393,0.122c0.065,0.017,0.128,0.04,0.194,0.052c0.204,0.04,0.413,0.063,0.628,0.063
	s0.424-0.024,0.628-0.063c0.066-0.013,0.129-0.036,0.193-0.052c0.135-0.035,0.267-0.072,0.395-0.122
	c0.071-0.029,0.14-0.064,0.209-0.098c0.113-0.055,0.224-0.112,0.329-0.179c0.066-0.042,0.13-0.087,0.194-0.134
	c0.049-0.036,0.104-0.065,0.15-0.104c3.137-1.263,5.914-1.877,8.468-1.877c3.349,0,6.1,1.033,9.284,2.229
	c3.791,1.423,8.087,3.037,13.986,3.037c4.318,0,8.971-0.863,14.193-2.637c0.06-0.002,0.116-0.019,0.175-0.023
	c0.131-0.012,0.261-0.025,0.387-0.052c0.084-0.018,0.164-0.043,0.245-0.067c0.111-0.033,0.221-0.068,0.328-0.112
	c0.083-0.034,0.162-0.073,0.241-0.113c0.099-0.05,0.194-0.104,0.287-0.165c0.074-0.048,0.146-0.098,0.216-0.151
	c0.09-0.068,0.174-0.142,0.256-0.219c0.062-0.059,0.123-0.117,0.181-0.18c0.078-0.085,0.147-0.176,0.216-0.27
	c0.051-0.068,0.102-0.135,0.146-0.207c0.06-0.097,0.109-0.2,0.16-0.303c0.039-0.08,0.08-0.158,0.113-0.242
	c0.039-0.103,0.066-0.21,0.097-0.318c0.025-0.092,0.056-0.182,0.073-0.277c0.003-0.016,0.009-0.03,0.012-0.045
	c0.015-0.083,0.009-0.165,0.017-0.248c0.01-0.102,0.03-0.2,0.03-0.304V5.777z M244.61,45.307c-2.409-3.082-5.002-6.388-8.824-9.436
	c2.139,0.385,4.132,1.127,6.302,1.942c3.749,1.408,8.038,3.019,13.977,3.019c3.094,0,6.637-0.438,10.783-1.57v6.226
	c-3.668,0.679-10.038,1.152-17.298-1.415c0,0,7.373,8.585,17.298,10.26v5.554C253.681,56.899,249.444,51.491,244.61,45.307z
	 M177.627,30.592c4.146,1.132,7.689,1.57,10.784,1.57c5.938,0,10.228-1.611,13.978-3.02c5.093-1.912,9.21-3.443,16.549-0.801v6.432
	c0,0.004,0,0.008,0,0.012v0c0,0.002,0,0.005,0,0.008v6.012c-8.321-2.39-13.676-0.398-18.869,1.552
	c-5.812,2.183-11.32,4.249-22.441,0.753V30.592z M266.848,15.643v5.335c-3.876,2.941-10.914,7.221-19.79,7.901
	c0,0,9.847,2.756,19.79-0.285v3.794c-11.118,3.496-16.629,1.429-22.439-0.753c-3.728-1.4-7.537-2.82-12.463-2.633
	c4.515-3.271,9.154-3.896,14.253-4.564C252.749,23.581,259.969,22.628,266.848,15.643z M256.075,11.866
	c1.836,0,3.738-0.172,5.712-0.487c-5.174,5.035-10.512,5.739-16.445,6.516c-6.246,0.817-13.129,1.725-19.805,7.83V8.02
	c2.055-0.739,3.952-1.177,5.737-1.341v9.618c6.492-3.973,11.279-3.011,17.525-5.3c2.155,0.514,4.536,0.869,7.272,0.869
	C256.072,11.866,256.074,11.866,256.075,11.866z M188.4,11.866c5.902,0,10.198-1.614,13.989-3.038
	c3.184-1.196,5.934-2.229,9.281-2.229c2.223,0,4.615,0.466,7.267,1.42v13.393c-8.321-2.391-13.677-0.399-18.869,1.552
	c-5.812,2.183-11.324,4.249-22.441,0.753V10.282C181.493,11.345,185.048,11.866,188.4,11.866z M200.068,60.621
	c-3.582,1.345-6.966,2.615-11.667,2.616c-0.001,0-0.001,0-0.002,0c-3.239,0-6.781-0.611-10.772-1.862V49.986
	c4.146,1.132,7.689,1.57,10.784,1.57c5.938,0,10.229-1.611,13.978-3.019c5.092-1.913,9.206-3.444,16.549-0.801v11.321
	c-2.54-0.728-4.942-1.086-7.266-1.086C207.125,57.971,203.537,59.318,200.068,60.621z M239.044,58.817
	c-4.901-5.646-7.77-11.981-7.77-11.981V58.03c-1.848,0.122-3.75,0.458-5.737,1.027V45.51c0-0.004,0-0.008,0-0.012v-8.284
	c6.975,3.356,10.35,7.65,13.874,12.159c3.914,5.007,7.927,10.131,16.37,13.855c-4.545-0.053-7.868-1.29-11.373-2.605
	C242.684,59.974,240.93,59.316,239.044,58.817z"/>
<path fill="#016635" d="M110.419,76.397H79.643c-0.083-6.88-5.699-12.454-12.599-12.454c-6.901,0-12.52,5.574-12.603,12.454H23.664
	c-1.822,0-3.3,1.478-3.3,3.3v49.179c0,1.822,1.478,3.3,3.3,3.3h9.137c0.791,5.214,5.29,9.227,10.722,9.227s9.931-4.013,10.722-9.227
	h26.744c0.791,5.214,5.29,9.227,10.722,9.227c5.433,0,9.933-4.013,10.724-9.227h7.985c1.822,0,3.3-1.478,3.3-3.3V79.697
	C113.719,77.875,112.241,76.397,110.419,76.397z M43.522,134.802c-1.02,0-1.955-0.36-2.689-0.959h5.379
	C45.478,134.442,44.542,134.802,43.522,134.802z M91.71,134.802c-1.02,0-1.955-0.36-2.689-0.959h5.38
	C93.666,134.442,92.729,134.802,91.71,134.802z M67.044,70.542c3.261,0,5.917,2.613,5.999,5.854H61.041
	C61.123,73.156,63.781,70.542,67.044,70.542z M107.119,125.576H26.964V82.997h46.087v22.156c0,1.447-1.177,2.624-2.624,2.624
	c-1.445,0-2.622-1.177-2.622-2.624V89.161c0-1.822-1.478-3.3-3.3-3.3s-3.3,1.478-3.3,3.3v15.992c0,5.086,4.137,9.224,9.222,9.224
	c5.086,0,9.224-4.138,9.224-9.224V82.997h27.469V125.576z"/>
<circle fill="none" stroke="#016635" stroke-width="7.1831" stroke-linecap="round" stroke-linejoin="round" stroke-miterlimit="10" cx="222.239" cy="193.657" r="51.517"/>
<line fill="none" stroke="#016635" stroke-width="7.1831" stroke-linecap="round" stroke-linejoin="round" stroke-miterlimit="10" x1="222.239" y1="138.711" x2="222.239" y2="90.403"/>
<line fill="none" stroke="#016635" stroke-width="7.1831" stroke-linecap="round" stroke-linejoin="round" stroke-miterlimit="10" x1="195.249" y1="237.542" x2="167.499" y2="287.106"/>
<line fill="none" stroke="#016635" stroke-width="7.1831" stroke-linecap="round" stroke-linejoin="round" stroke-miterlimit="10" x1="250.683" y1="237.542" x2="278.433" y2="287.106"/>
<line fill="none" stroke="#016635" stroke-width="7.1831" stroke-linecap="round" stroke-linejoin="round" stroke-miterlimit="10" x1="260.696" y1="159.379" x2="307.874" y2="127.298"/>
<line fill="none" stroke="#016635" stroke-width="7.1831" stroke-linecap="round" stroke-linejoin="round" stroke-miterlimit="10" x1="273.573" y1="209.964" x2="324.69" y2="226.005"/>
<line fill="none" stroke="#016635" stroke-width="7.1831" stroke-linecap="round" stroke-linejoin="round" stroke-miterlimit="10" x1="182.382" y1="159.379" x2="135.202" y2="127.298"/>
<line fill="none" stroke="#016635" stroke-width="7.1831" stroke-linecap="round" stroke-linejoin="round" stroke-miterlimit="10" x1="169.505" y1="209.964" x2="118.388" y2="226.005"/>
<path fill="#016635" d="M406.891,61.661h-63.399c-1.822,0-3.3,1.478-3.3,3.3v78.652c0,1.822,1.478,3.3,3.3,3.3h63.399
	c1.822,0,3.3-1.478,3.3-3.3V64.96C410.19,63.138,408.713,61.661,406.891,61.661z M403.591,68.26v9.76h-18.09
	c-0.327-4.464-4.054-7.998-8.6-7.998s-8.273,3.534-8.601,7.998h-1.863c-0.327-4.464-4.055-7.998-8.602-7.998
	c-4.546,0-8.273,3.534-8.601,7.998h-2.444v-9.76H403.591z M393.876,123.271c-0.326-4.464-4.055-7.999-8.601-7.999
	s-8.273,3.535-8.6,7.999h-10.238c-0.326-4.464-4.055-7.999-8.602-7.999c-4.546,0-8.274,3.535-8.601,7.999h-2.444v-15.868h13.727
	c0.326,4.464,4.054,7.998,8.6,7.998s8.274-3.534,8.601-7.998h6.412c0.326,4.464,4.055,7.998,8.601,7.998s8.274-3.534,8.601-7.998
	h2.26v15.868H393.876z M387.309,123.905v5.333c0,1.121-0.912,2.033-2.033,2.033c-1.12,0-2.032-0.912-2.032-2.033v-5.333
	c0-1.121,0.912-2.033,2.032-2.033C386.396,121.872,387.309,122.784,387.309,123.905z M359.87,123.905v5.333
	c0,1.121-0.912,2.033-2.034,2.033c-1.121,0-2.033-0.912-2.033-2.033v-5.333c0-1.121,0.912-2.033,2.033-2.033
	C358.958,121.872,359.87,122.784,359.87,123.905z M367.085,106.769v-5.333c0-1.121,0.912-2.033,2.032-2.033
	c1.121,0,2.033,0.912,2.033,2.033v5.333c0,1.121-0.912,2.032-2.033,2.032C367.997,108.801,367.085,107.89,367.085,106.769z
	 M390.697,106.769v-5.333c0-1.121,0.912-2.033,2.033-2.033s2.033,0.912,2.033,2.033v5.333c0,1.121-0.912,2.032-2.033,2.032
	S390.697,107.89,390.697,106.769z M401.331,100.803c-0.326-4.465-4.055-8-8.601-8s-8.274,3.535-8.601,8h-6.412
	c-0.326-4.465-4.055-8-8.601-8s-8.273,3.535-8.6,8h-13.727V84.62h2.444c0.325,4.465,4.054,8,8.601,8c4.548,0,8.276-3.535,8.602-8
	h1.863c0.325,4.465,4.054,8,8.601,8s8.274-3.535,8.6-8h18.09v16.184H401.331z M355.803,83.988v-5.333
	c0-1.121,0.912-2.033,2.033-2.033c1.122,0,2.034,0.912,2.034,2.033v5.333c0,1.121-0.912,2.032-2.034,2.032
	C356.715,86.02,355.803,85.108,355.803,83.988z M374.868,83.988v-5.333c0-1.121,0.912-2.033,2.033-2.033
	c1.12,0,2.032,0.912,2.032,2.033v5.333c0,1.121-0.912,2.032-2.032,2.032C375.78,86.02,374.868,85.108,374.868,83.988z
	 M346.791,140.313v-10.442h2.444c0.326,4.465,4.055,8,8.601,8c4.547,0,8.275-3.535,8.602-8h10.238c0.326,4.465,4.054,8,8.6,8
	s8.274-3.535,8.601-8h9.715v10.442H346.791z"/>
<g>
	<path fill="#016635" d="M182.106,338.151c-0.004-0.197-0.02-0.393-0.058-0.584c-0.001,0-0.001,0-0.001-0.002
		c-0.038-0.188-0.098-0.371-0.168-0.551c-0.021-0.053-0.044-0.104-0.067-0.154c-0.059-0.131-0.127-0.258-0.204-0.381
		c-0.029-0.049-0.058-0.098-0.09-0.145c-0.111-0.158-0.232-0.312-0.373-0.453l-31.323-31.324c-0.141-0.141-0.295-0.262-0.455-0.373
		c-0.046-0.031-0.094-0.061-0.142-0.09c-0.125-0.076-0.253-0.145-0.385-0.205c-0.05-0.021-0.099-0.045-0.149-0.066
		c-0.364-0.143-0.75-0.219-1.142-0.227c-0.021,0-0.04-0.006-0.061-0.006h-31.321c-1.822,0-3.3,1.479-3.3,3.301v77.715
		c0,1.822,1.478,3.301,3.3,3.301h62.645c1.822,0,3.3-1.479,3.3-3.301v-46.393C182.112,338.192,182.106,338.173,182.106,338.151z
		 M170.846,334.915h-20.057v-20.057L170.846,334.915z M119.468,381.308V310.19h24.722v28.023c0,1.822,1.478,3.301,3.3,3.301h28.023
		v39.793H119.468z"/>
	<path fill="#016635" d="M166.51,347.271h-38.04c-1.822,0-3.3,1.477-3.3,3.299s1.478,3.301,3.3,3.301h38.04
		c1.822,0,3.3-1.479,3.3-3.301S168.332,347.271,166.51,347.271z"/>
	<path fill="#016635" d="M166.51,358.083h-38.04c-1.822,0-3.3,1.479-3.3,3.301s1.478,3.299,3.3,3.299h38.04
		c1.822,0,3.3-1.477,3.3-3.299S168.332,358.083,166.51,358.083z"/>
	<path fill="#016635" d="M166.51,368.897h-19.019c-1.822,0-3.3,1.479-3.3,3.301s1.478,3.299,3.3,3.299h19.019
		c1.822,0,3.3-1.477,3.3-3.299S168.332,368.897,166.51,368.897z"/>
</g>
<path fill="#016635" d="M444.304,259.455c0-4.838-3.181-8.943-7.559-10.344v-1.152c0-1.822-1.478-3.3-3.3-3.3h-22.533l-9.45-19.428
	c-0.553-1.136-1.705-1.856-2.968-1.856h-8.323l-1.431-8.897c-0.257-1.6-1.638-2.776-3.258-2.776h-7.605
	c-1.62,0-3.001,1.176-3.258,2.775l-1.432,8.898h-7.555c-1.263,0-2.415,0.721-2.968,1.856l-9.452,19.428h-22.532
	c-1.822,0-3.3,1.478-3.3,3.3v23.875c0,1.822,1.478,3.299,3.3,3.299h11.363c1.481,5.938,6.845,10.355,13.233,10.355
	c6.39,0,11.753-4.418,13.235-10.355h27.102c1.481,5.938,6.845,10.355,13.233,10.355c6.39,0,11.753-4.418,13.235-10.355h11.362
	c1.822,0,3.3-1.477,3.3-3.299v-2.037C441.123,268.396,444.304,264.292,444.304,259.455z M403.572,244.659h-18.594v-14.685h11.451
	L403.572,244.659z M380.688,218.3h1.982l0.815,5.074h-3.614L380.688,218.3z M367.697,229.974h10.682v14.685h-17.826L367.697,229.974
	z M355.277,278.888c-3.89,0-7.054-3.164-7.054-7.055s3.164-7.055,7.054-7.055c3.891,0,7.056,3.164,7.056,7.055
	S359.168,278.888,355.277,278.888z M355.277,258.179c-6.389,0-11.751,4.417-13.233,10.353h-8.063v-17.274h21.297h23.102v17.274
	h-9.866C367.03,262.597,361.667,258.179,355.277,258.179z M408.848,278.888c-3.89,0-7.054-3.164-7.054-7.055
	s3.164-7.055,7.054-7.055c3.891,0,7.056,3.164,7.056,7.055S412.738,278.888,408.848,278.888z M430.146,268.532h-8.062
	c-1.482-5.936-6.846-10.353-13.235-10.353c-6.389,0-11.751,4.417-13.233,10.353h-10.636v-17.274h23.869h21.298V268.532z
	 M436.745,262.114v-5.319c0.591,0.731,0.959,1.648,0.959,2.66C437.704,260.465,437.336,261.382,436.745,262.114z"/>
<g>
	<path fill="#016635" d="M307.794,351.421c3.711-3.299,6.065-8.094,6.065-13.439v-14.703c0-9.928-8.075-18.006-18-18.006
		c-9.929,0-18.006,8.078-18.006,18.006v14.703c0,5.346,2.354,10.139,6.066,13.439c-14.054,4.939-24.16,18.336-24.16,34.057
		c0,1.822,1.478,3.299,3.3,3.299h21.924c0.003,0,0.007,0.002,0.011,0.002s0.009-0.002,0.013-0.002h21.7
		c0.004,0,0.009,0.002,0.013,0.002s0.008-0.002,0.011-0.002h21.925c0.008,0.002,0.016,0.002,0.02,0c1.823,0,3.301-1.477,3.301-3.299
		c0-0.131-0.008-0.258-0.022-0.383C331.791,369.54,321.735,356.321,307.794,351.421z M294.067,370.489h3.579l4.331,11.688h-12.241
		L294.067,370.489z M297.994,363.89h-4.275l-3.999-7.256c1.98-0.422,4.03-0.65,6.134-0.65c2.105,0,4.158,0.23,6.14,0.65
		L297.994,363.89z M284.453,323.278c0-6.289,5.117-11.406,11.406-11.406c6.286,0,11.4,5.117,11.4,11.406v14.703
		c0,6.287-5.114,11.402-11.4,11.402c-6.289,0-11.406-5.115-11.406-11.402V323.278z M283.362,358.771l4.789,8.688l-5.454,14.719
		h-16.154C267.704,371.798,274.276,363.036,283.362,358.771z M309.017,382.177l-5.454-14.719l4.788-8.688
		c9.087,4.268,15.66,13.029,16.821,23.406H309.017z"/>
	<path fill="#016635" d="M342.062,313.825l-13.362-1.029c-0.051-0.004-0.101,0.002-0.151,0c-0.07-0.002-0.141-0.002-0.212,0.002
		c-0.142,0.004-0.28,0.018-0.418,0.039c-0.053,0.01-0.105,0.016-0.158,0.027c-0.184,0.037-0.362,0.09-0.534,0.158
		c-0.009,0.002-0.019,0.004-0.027,0.008c-0.197,0.08-0.385,0.18-0.562,0.297c-0.011,0.006-0.02,0.016-0.03,0.021
		c-0.159,0.107-0.307,0.23-0.446,0.365c-0.016,0.014-0.033,0.023-0.049,0.039c-0.02,0.02-0.032,0.043-0.051,0.062
		c-0.108,0.115-0.207,0.236-0.299,0.367c-0.034,0.047-0.07,0.094-0.102,0.143c-0.081,0.129-0.15,0.266-0.214,0.406
		c-0.021,0.047-0.048,0.088-0.065,0.135c-0.001,0.002-0.003,0.004-0.004,0.008l-4.58,11.584c-0.671,1.695,0.16,3.611,1.855,4.281
		c0.397,0.158,0.809,0.232,1.212,0.232c1.314,0,2.558-0.791,3.069-2.088l2.527-6.391c2.903,4.342,4.463,9.443,4.463,14.787
		c0,7.125-2.774,13.824-7.812,18.861c-1.289,1.289-1.289,3.379,0,4.666c0.645,0.645,1.488,0.967,2.333,0.967
		s1.689-0.322,2.333-0.967c6.284-6.283,9.745-14.639,9.745-23.527c0-6.213-1.695-12.162-4.859-17.328l5.89,0.453
		c1.823,0.143,3.405-1.219,3.544-3.035C345.237,315.552,343.878,313.966,342.062,313.825z"/>
	<path fill="#016635" d="M261.877,361.774C261.878,361.774,261.878,361.774,261.877,361.774L261.877,361.774
		c0.002,0,0.002,0,0.002,0c0.194,0,0.385-0.021,0.572-0.055c0.059-0.01,0.115-0.025,0.174-0.039
		c0.132-0.031,0.261-0.068,0.388-0.115c0.062-0.023,0.124-0.047,0.187-0.074c0.141-0.061,0.275-0.133,0.406-0.213
		c0.035-0.021,0.072-0.039,0.106-0.062c0.163-0.107,0.313-0.234,0.455-0.371c0.015-0.014,0.031-0.023,0.045-0.037
		c0.026-0.025,0.044-0.059,0.07-0.086c0.101-0.107,0.193-0.221,0.279-0.342c0.037-0.053,0.075-0.104,0.109-0.158
		c0.081-0.129,0.151-0.266,0.214-0.408c0.018-0.039,0.042-0.076,0.058-0.117c0.001-0.004,0.003-0.006,0.004-0.008l4.58-11.584
		c0.671-1.695-0.16-3.611-1.855-4.281c-1.691-0.674-3.611,0.16-4.281,1.855l-2.527,6.389c-2.904-4.342-4.464-9.443-4.464-14.785
		c0-7.127,2.774-13.824,7.812-18.861c1.289-1.289,1.289-3.379,0.001-4.668c-1.289-1.289-3.378-1.287-4.667,0
		c-6.285,6.283-9.746,14.641-9.746,23.529c0,6.211,1.695,12.16,4.859,17.326l-5.891-0.453c-1.813-0.143-3.403,1.219-3.544,3.035
		c-0.141,1.818,1.22,3.404,3.036,3.545l13.364,1.029C261.709,361.772,261.794,361.774,261.877,361.774z"/>
</g>
</svg>
