<?xml version="1.0" encoding="utf-8"?>
<!-- Generator: Adobe Illustrator 15.1.0, SVG Export Plug-In . SVG Version: 6.00 Build 0)  -->
<!DOCTYPE svg PUBLIC "-//W3C//DTD SVG 1.1//EN" "http://www.w3.org/Graphics/SVG/1.1/DTD/svg11.dtd">
<svg version="1.1" id="Layer_1" xmlns="http://www.w3.org/2000/svg" xmlns:xlink="http://www.w3.org/1999/xlink" x="0px" y="0px"
	 width="200px" height="200px" viewBox="0 0 200 200" enable-background="new 0 0 200 200" xml:space="preserve">
<g>
	<path fill="#FFFFFF" d="M188.659,92.438l-28.553-2.2c-0.114-0.009-0.224,0.004-0.336,0.002c-0.175-0.007-0.35-0.005-0.524,0.001
		c-0.295,0.011-0.581,0.041-0.868,0.083c-0.154,0.024-0.309,0.044-0.463,0.079c-0.361,0.076-0.709,0.184-1.052,0.311
		c-0.074,0.029-0.15,0.044-0.225,0.074c-0.437,0.179-0.851,0.398-1.244,0.656c-0.048,0.029-0.088,0.07-0.133,0.102
		c-0.344,0.232-0.664,0.497-0.964,0.785c-0.038,0.038-0.085,0.062-0.123,0.101c-0.048,0.046-0.078,0.105-0.126,0.151
		c-0.242,0.26-0.466,0.533-0.674,0.826c-0.078,0.112-0.163,0.22-0.234,0.333c-0.187,0.296-0.346,0.609-0.491,0.931
		c-0.047,0.104-0.109,0.203-0.149,0.31c-0.004,0.004-0.007,0.009-0.01,0.015l-9.786,24.755c-1.538,3.883,0.367,8.277,4.252,9.813
		c0.914,0.362,1.854,0.532,2.778,0.532c3.014,0,5.862-1.813,7.035-4.786l5.03-12.719c5.795,9.01,8.918,19.497,8.918,30.47
		c0,15.089-5.876,29.276-16.543,39.944c-2.954,2.953-2.954,7.743,0,10.696c1.479,1.477,3.412,2.215,5.349,2.215
		c1.936,0,3.872-0.738,5.348-2.215c13.524-13.525,20.974-31.509,20.974-50.64c0-13.028-3.464-25.519-9.937-36.438l11.586,0.893
		c4.157,0.354,7.801-2.792,8.123-6.959C195.938,96.396,192.823,92.758,188.659,92.438z"/>
	<path fill="#FFFFFF" d="M96.824,4.08H37.125C19.058,4.08,4.36,18.778,4.36,36.845v126.058c0,18.067,14.698,32.765,32.765,32.765
		h59.699c18.067,0,32.765-14.698,32.765-32.765V36.845C129.589,18.778,114.891,4.08,96.824,4.08z M37.125,18.503h59.699
		c9.914,0,17.996,7.913,18.312,17.752H18.813C19.128,26.416,27.21,18.503,37.125,18.503z M115.166,162.902
		c0,10.113-8.228,18.342-18.341,18.342H37.125c-10.114,0-18.342-8.229-18.342-18.342v-6.992h96.382V162.902z M115.166,142.253
		H18.783V49.912h96.382V142.253z"/>
	<circle fill="#FFFFFF" cx="66.975" cy="168.854" r="9.104"/>
</g>
</svg>
