<?xml version="1.0" encoding="utf-8"?>
<!-- Generator: Adobe Illustrator 15.1.0, SVG Export Plug-In . SVG Version: 6.00 Build 0)  -->
<!DOCTYPE svg PUBLIC "-//W3C//DTD SVG 1.1//EN" "http://www.w3.org/Graphics/SVG/1.1/DTD/svg11.dtd">
<svg version="1.1" id="Layer_1" xmlns="http://www.w3.org/2000/svg" xmlns:xlink="http://www.w3.org/1999/xlink" x="0px" y="0px"
	 width="390.034px" height="186.65px" viewBox="0 0 390.034 186.65" enable-background="new 0 0 390.034 186.65"
	 xml:space="preserve">
<g>
	<path fill="#016635" d="M377.534,59.774H180.418C166.704,24.141,132.168,0,93.325,0C41.865,0,0,41.865,0,93.325
		s41.865,93.325,93.325,93.325c38.844,0,73.379-24.141,87.094-59.774h82.675v47.274c0,6.903,5.597,12.5,12.5,12.5H340.2
		c6.904,0,12.5-5.597,12.5-12.5v-47.274h24.834c6.904,0,12.5-5.597,12.5-12.5V72.274C390.034,65.371,384.438,59.774,377.534,59.774z
		 M327.7,161.65h-39.606v-34.774H327.7V161.65z M365.034,101.876H340.2h-64.606h-104.23c-5.653,0-10.603,3.794-12.071,9.252
		c-8.004,29.747-35.131,50.522-65.967,50.522C55.65,161.65,25,131,25,93.325S55.65,25,93.325,25
		c30.836,0,57.963,20.775,65.967,50.522c1.469,5.458,6.418,9.252,12.071,9.252h193.671V101.876z"/>
	<path fill="#016635" d="M93.324,42.774c-27.874,0-50.551,22.677-50.551,50.551s22.677,50.551,50.551,50.551
		c27.875,0,50.552-22.677,50.552-50.551S121.198,42.774,93.324,42.774z M93.324,118.876c-14.089,0-25.551-11.462-25.551-25.551
		s11.462-25.551,25.551-25.551c14.089,0,25.552,11.462,25.552,25.551S107.413,118.876,93.324,118.876z"/>
</g>
</svg>
