<?xml version="1.0" encoding="utf-8"?>
<!-- Generator: Adobe Illustrator 15.1.0, SVG Export Plug-In . SVG Version: 6.00 Build 0)  -->
<!DOCTYPE svg PUBLIC "-//W3C//DTD SVG 1.1//EN" "http://www.w3.org/Graphics/SVG/1.1/DTD/svg11.dtd">
<svg version="1.1" id="Layer_1" xmlns="http://www.w3.org/2000/svg" xmlns:xlink="http://www.w3.org/1999/xlink" x="0px" y="0px"
	 width="103.393px" height="89.752px" viewBox="0 0 103.393 89.752" enable-background="new 0 0 103.393 89.752"
	 xml:space="preserve">
<g>
	
		<path fill="none" stroke="#016635" stroke-width="6.5997" stroke-linecap="round" stroke-linejoin="round" stroke-miterlimit="10" d="
		M3.3,58.208c3.896,5.143,10.067,8.465,17.015,8.465c6.948,0,13.118-3.322,17.013-8.465H3.3z"/>
	
		<path fill="none" stroke="#016635" stroke-width="6.5997" stroke-linecap="round" stroke-linejoin="round" stroke-miterlimit="10" d="
		M78.187,86.452c-6.166-5.141-15.938-8.465-26.938-8.465s-20.771,3.324-26.938,8.465H78.187z"/>
	
		<path fill="none" stroke="#016635" stroke-width="6.5997" stroke-linecap="round" stroke-linejoin="round" stroke-miterlimit="10" d="
		M51.249,23.696c-3.037,6.168-5.004,15.938-5.004,26.939c0,10.998,1.967,20.768,5.004,26.938c3.037-6.17,5.002-15.939,5.002-26.938
		C56.251,39.634,54.286,29.864,51.249,23.696z"/>
	
		<path fill="none" stroke="#016635" stroke-width="6.5997" stroke-linecap="round" stroke-linejoin="round" stroke-miterlimit="10" d="
		M51.249,3.3c-2.373,2.211-3.906,5.715-3.906,9.658c0,3.945,1.533,7.449,3.906,9.66c2.373-2.211,3.906-5.715,3.906-9.66
		C55.155,9.015,53.622,5.511,51.249,3.3z"/>
	
		<polyline fill="none" stroke="#016635" stroke-width="6.5997" stroke-linecap="round" stroke-linejoin="round" stroke-miterlimit="10" points="
		3.3,58.208 20.314,27.151 37.327,58.208 	"/>
	
		<path fill="none" stroke="#016635" stroke-width="6.5997" stroke-linecap="round" stroke-linejoin="round" stroke-miterlimit="10" d="
		M100.093,50.397c-3.895,5.141-10.068,8.465-17.014,8.465c-6.949,0-13.119-3.324-17.014-8.465H100.093z"/>
	
		<polyline fill="none" stroke="#016635" stroke-width="6.5997" stroke-linecap="round" stroke-linejoin="round" stroke-miterlimit="10" points="
		100.093,50.397 83.079,19.339 66.065,50.397 	"/>
	
		<path fill="none" stroke="#016635" stroke-width="6.5997" stroke-linecap="round" stroke-linejoin="round" stroke-miterlimit="10" d="
		M83.095,19.335c-8.541,1.057-12.604-2.701-21.387-1.613c-5.809,0.719-10.24,5.527-10.24,5.527l0.082-0.01
		c0,0-5.471-3.582-11.279-2.865c-8.781,1.088-11.806,5.721-20.351,6.777"/>
</g>
</svg>
