<?xml version="1.0" encoding="utf-8"?>
<!-- Generator: Adobe Illustrator 15.1.0, SVG Export Plug-In . SVG Version: 6.00 Build 0)  -->
<!DOCTYPE svg PUBLIC "-//W3C//DTD SVG 1.1//EN" "http://www.w3.org/Graphics/SVG/1.1/DTD/svg11.dtd">
<svg version="1.1" id="Layer_1" xmlns="http://www.w3.org/2000/svg" xmlns:xlink="http://www.w3.org/1999/xlink" x="0px" y="0px"
	 width="1000px" height="1000px" viewBox="0 0 1000 1000" enable-background="new 0 0 1000 1000" xml:space="preserve">
<path display="none" fill="#006A43" d="M987.175,590.5c0-40.316-26.508-74.525-62.991-86.2v-9.6c0-15.184-12.316-27.5-27.5-27.5
	H708.917l-78.75-161.9c-4.608-9.466-14.209-15.466-24.733-15.466h-69.367l-11.916-74.142c-2.142-13.333-13.65-23.133-27.15-23.133
	h-63.375c-13.5,0-25.008,9.8-27.15,23.125l-11.933,74.15h-62.959c-10.524,0-20.125,6.008-24.733,15.466l-78.766,161.9H40.317
	c-15.184,0-27.5,12.316-27.5,27.5v198.95c0,15.183,12.316,27.5,27.5,27.5h94.691c12.342,49.483,57.042,86.291,110.275,86.291
	c53.25,0,97.95-36.816,110.292-86.291h225.85c12.342,49.483,57.042,86.291,110.275,86.291c53.25,0,97.95-36.816,110.292-86.291
	h94.683c15.184,0,27.5-12.317,27.5-27.5v-16.967C960.675,665.017,987.175,630.809,987.175,590.5z M647.75,467.2H492.8V344.833
	h95.425L647.75,467.2z M457.05,247.55h16.517l6.792,42.284H450.25L457.05,247.55z M348.792,344.833h89.017v122.375H289.25
	L348.792,344.833z M245.292,752.45c-32.417,0-58.783-26.375-58.783-58.8c0-32.417,26.367-58.784,58.783-58.784
	c32.425,0,58.8,26.367,58.8,58.784C304.092,726.075,277.717,752.45,245.292,752.45z M245.292,579.875
	c-53.242,0-97.933,36.809-110.275,86.283h-67.2V522.2h177.475h192.517v143.95h-82.226
	C343.233,616.684,298.542,579.875,245.292,579.875z M691.708,752.45c-32.416,0-58.783-26.375-58.783-58.8
	c0-32.417,26.367-58.784,58.783-58.784c32.425,0,58.8,26.367,58.8,58.784C750.508,726.075,724.134,752.45,691.708,752.45z
	 M869.191,666.15h-67.184c-12.35-49.476-57.05-86.284-110.291-86.284c-53.242,0-97.934,36.809-110.275,86.284H492.8V522.2h198.908
	h177.483V666.15L869.191,666.15z M924.191,612.667v-44.334c4.926,6.092,7.992,13.733,7.992,22.167
	C932.184,598.925,929.117,606.566,924.191,612.667z"/>
<path display="none" fill="#006A43" d="M866.334,256.158c0-0.233-0.084-0.458-0.084-0.691c-0.049-1.692-0.258-3.35-0.6-5.008
	c-0.084-0.333-0.084-0.692-0.176-1.017c-0.49-1.933-1.207-3.808-2.1-5.6c-0.232-0.475-0.559-0.892-0.824-1.367
	c-0.742-1.275-1.559-2.508-2.5-3.667c-0.434-0.525-0.908-1.017-1.385-1.525c-0.932-0.975-1.924-1.883-3.016-2.725
	c-0.35-0.267-0.617-0.625-0.975-0.875c-0.275-0.184-0.584-0.284-0.867-0.467c-0.375-0.242-0.676-0.542-1.059-0.775
	c-0.842-0.5-1.725-0.8-2.6-1.2c-0.609-0.275-1.191-0.6-1.816-0.833c-3.893-1.45-7.941-1.958-11.918-1.608
	c-0.5,0.05-0.975,0.175-1.465,0.233c-1.535,0.217-3.025,0.542-4.492,1.017c-0.293,0.092-0.592,0.1-0.875,0.192
	c-40.842,14.558-76.191,21.65-108.043,21.65h-0.016c-39.176,0-67.375-10.592-97.217-21.8c-28.9-10.858-58.791-22.083-96.684-22.083
	c-27.55,0-56.466,6.092-88.067,18.467c-31.592-12.367-60.5-18.467-88.041-18.467c-37.892,0-67.775,11.233-96.684,22.083
	c-29.85,11.217-58.05,21.8-97.242,21.8c-31.833,0-67.183-7.083-108.042-21.65c-8.434-2.992-17.784-1.725-25.083,3.425
	c-7.308,5.159-11.65,13.542-11.65,22.475v484.375c0,14.85,11.775,26.95,26.5,27.483c43.525,14.775,82.292,21.975,118.267,21.975
	h0.025c49.15,0,84.958-13.441,116.542-25.308c26.542-9.959,49.467-18.575,77.367-18.575c21.274,0,44.416,5.125,70.558,15.649
	c0.392,0.325,0.851,0.567,1.259,0.867c0.525,0.392,1.05,0.767,1.6,1.116c0.892,0.559,1.825,1.05,2.768,1.509
	c0.566,0.274,1.133,0.558,1.725,0.8c1.066,0.425,2.184,0.741,3.3,1.025c0.533,0.142,1.05,0.324,1.592,0.433
	c1.691,0.334,3.441,0.525,5.233,0.525c1.791,0,3.541-0.191,5.233-0.525c0.541-0.108,1.058-0.291,1.592-0.433
	c1.125-0.284,2.241-0.601,3.308-1.025c0.584-0.233,1.143-0.517,1.709-0.8c0.949-0.459,1.883-0.942,2.774-1.509
	c0.55-0.35,1.075-0.725,1.601-1.116c0.416-0.3,0.866-0.542,1.258-0.867c26.142-10.524,49.284-15.649,70.567-15.649
	c27.908,0,50.834,8.608,77.367,18.575c31.592,11.857,67.391,25.3,116.549,25.3c35.984,0,74.76-7.191,118.275-21.976
	c0.475-0.017,0.9-0.149,1.367-0.183c1.133-0.101,2.25-0.217,3.342-0.45c0.666-0.15,1.309-0.342,1.949-0.533
	c0.959-0.275,1.9-0.575,2.816-0.959c0.676-0.274,1.309-0.583,1.951-0.916c0.842-0.434,1.65-0.884,2.449-1.409
	c0.6-0.391,1.191-0.791,1.758-1.225c0.76-0.575,1.467-1.2,2.168-1.858c0.508-0.483,1.008-0.95,1.482-1.475
	c0.658-0.717,1.242-1.492,1.826-2.275c0.408-0.55,0.832-1.108,1.199-1.691c0.518-0.816,0.926-1.684,1.35-2.559
	c0.316-0.658,0.658-1.3,0.934-1.983c0.326-0.866,0.559-1.774,0.816-2.684c0.201-0.758,0.459-1.5,0.6-2.274
	c0.018-0.134,0.076-0.25,0.102-0.384c0.115-0.699,0.082-1.383,0.148-2.074c0.076-0.851,0.242-1.667,0.242-2.534V256.158H866.334z
	 M626.025,585.575c-20.074-25.684-41.691-53.242-73.541-78.634c17.824,3.209,34.441,9.392,52.523,16.175
	c31.242,11.733,66.984,25.167,116.477,25.167c25.783,0,55.307-3.65,89.857-13.083v51.883c-30.566,5.658-83.65,9.601-144.15-11.791
	c0,0,61.434,71.541,144.15,85.5v46.291C701.609,682.175,666.309,637.108,626.025,585.575z M67.833,462.95
	c34.55,9.433,64.075,13.083,89.867,13.083c49.483,0,85.233-13.425,116.483-25.167c42.442-15.941,76.742-28.683,137.909-6.675v53.601
	c0,0,0,0.066,0,0.1l0,0c0,0,0,0.05,0,0.066v50.108c-69.342-19.933-113.967-3.325-157.242,12.941
	c-48.433,18.184-94.333,35.409-187.008,6.275V462.95H67.833z M811.334,338.375v44.458c-32.301,24.5-90.951,60.174-164.918,65.841
	c0,0,82.059,22.967,164.918-2.375v31.617c-92.65,29.125-138.576,11.916-186.992-6.275c-31.059-11.667-62.809-23.509-103.85-21.958
	c37.625-27.25,76.275-32.467,118.766-38.017C693.85,404.525,754.008,396.592,811.334,338.375z M721.566,306.9
	c15.293,0,31.15-1.425,47.6-4.05c-43.115,41.95-87.6,47.816-137.041,54.292c-52.051,6.809-109.408,14.383-165.042,65.259V274.85
	c17.125-6.159,32.925-9.817,47.809-11.175v80.142c54.1-33.108,93.982-25.091,146.041-44.167c17.959,4.292,37.801,7.242,60.6,7.242
	h0.033V306.9z M157.608,306.9c49.184,0,84.984-13.45,116.575-25.316c26.533-9.958,49.45-18.567,77.342-18.567
	c18.525,0,38.459,3.883,60.559,11.825v111.617c-69.35-19.925-113.983-3.317-157.242,12.933
	c-48.433,18.192-94.366,35.4-187.008,6.275V293.708C100.05,302.559,129.675,306.9,157.608,306.9z M254.842,713.191
	c-29.851,11.217-58.05,21.8-97.226,21.8c-0.008,0-0.008,0-0.008,0c-27,0-56.517-5.091-89.775-15.517v-94.908
	c34.55,9.434,64.075,13.084,89.867,13.084c49.483,0,85.242-13.426,116.483-25.167c42.434-15.925,76.726-28.675,137.909-6.667v94.334
	c-21.167-6.075-41.184-9.051-60.551-9.051C313.65,691.108,283.75,702.342,254.842,713.191z M579.643,698.158
	c-40.842-47.05-64.75-99.833-64.75-99.833V691.6c-15.401,1.018-31.243,3.809-47.809,8.559V587.267v-0.1v-69.034
	c58.125,27.959,86.25,63.75,115.618,101.317c32.615,41.733,66.057,84.425,136.424,115.458
	c-37.883-0.441-65.566-10.741-94.783-21.708C609.967,707.8,595.35,702.316,579.643,698.158z"/>
<path display="none" fill="#006A43" d="M568.65,143.783H40.317c-15.184,0-27.5,12.317-27.5,27.5v655.434
	c0,15.184,12.316,27.5,27.5,27.5H568.65c15.183,0,27.5-12.316,27.5-27.5V171.283C596.15,156.1,583.833,143.783,568.65,143.783z
	 M541.15,198.783v81.333H390.4c-2.726-37.2-33.792-66.65-71.667-66.65s-68.941,29.45-71.675,66.65h-15.525
	c-2.725-37.2-33.8-66.65-71.683-66.65c-37.884,0-68.942,29.45-71.675,66.65H67.817v-81.333H541.15z M460.191,657.2
	c-2.716-37.2-33.791-66.658-71.675-66.658c-37.883,0-68.934,29.458-71.666,66.658h-85.309c-2.726-37.2-33.792-66.658-71.684-66.658
	c-37.883,0-68.95,29.458-71.675,66.658H67.817V524.967h114.391c2.726,37.2,33.784,66.649,71.667,66.649
	c37.884,0,68.95-29.449,71.675-66.649h53.434c2.717,37.2,33.792,66.649,71.675,66.649c37.884,0,68.95-29.449,71.675-66.649h18.834
	V657.2H460.191L460.191,657.2z M405.467,662.483v44.441c0,9.342-7.601,16.941-16.941,16.941c-9.334,0-16.934-7.6-16.934-16.941
	v-44.441c0-9.342,7.6-16.941,16.934-16.941C397.866,645.542,405.467,653.142,405.467,662.483z M176.809,662.483v44.441
	c0,9.342-7.601,16.941-16.95,16.941c-9.342,0-16.941-7.6-16.941-16.941v-44.441c0-9.342,7.6-16.941,16.941-16.941
	C169.208,645.542,176.809,653.142,176.809,662.483z M236.934,519.684v-44.442c0-9.341,7.6-16.941,16.934-16.941
	c9.341,0,16.941,7.601,16.941,16.941v44.442c0,9.333-7.601,16.933-16.941,16.933C244.533,536.625,236.934,529.025,236.934,519.684z
	 M433.7,519.684v-44.442c0-9.341,7.6-16.941,16.941-16.941s16.941,7.601,16.941,16.941v44.442c0,9.333-7.6,16.933-16.941,16.933
	S433.7,529.025,433.7,519.684z M522.316,469.975c-2.716-37.199-33.791-66.667-71.675-66.667c-37.883,0-68.95,29.467-71.675,66.667
	h-53.434c-2.717-37.199-33.791-66.667-71.675-66.667c-37.883,0-68.941,29.467-71.667,66.667H67.817V335.108h20.367
	c2.716,37.208,33.792,66.667,71.675,66.667c37.9,0,68.967-29.458,71.684-66.667h15.524c2.709,37.208,33.784,66.667,71.675,66.667
	c37.893,0,68.95-29.458,71.667-66.667H541.15v134.866H522.316z M142.917,329.842V285.4c0-9.341,7.6-16.941,16.941-16.941
	c9.35,0,16.95,7.6,16.95,16.941v44.442c0,9.333-7.601,16.933-16.95,16.933C150.517,346.775,142.917,339.175,142.917,329.842z
	 M301.792,329.842V285.4c0-9.341,7.6-16.941,16.941-16.941c9.333,0,16.934,7.6,16.934,16.941v44.442
	c0,9.333-7.601,16.933-16.934,16.933C309.392,346.775,301.792,339.175,301.792,329.842z M67.817,799.217V712.2h20.367
	c2.716,37.208,33.792,66.666,71.675,66.666c37.892,0,68.958-29.458,71.684-66.666h85.316c2.717,37.208,33.783,66.666,71.667,66.666
	c37.883,0,68.95-29.458,71.675-66.666h80.95v87.017H67.817z"/>
<g display="none">
	<path display="inline" fill="#006A43" d="M504.426,532.383c27.841-25.883,45.383-62.708,45.383-103.642V314.508
		c0-78.15-63.566-141.733-141.7-141.733c-78.158,0-141.741,63.583-141.741,141.733v114.233c0,40.934,17.541,77.75,45.392,103.65
		C203.4,571.842,125.8,675.884,125.8,797.717c0,15.184,12.317,27.5,27.5,27.5h170.317c0,0,0.058,0.008,0.092,0.008l0.107-0.008
		h168.575l0.108,0.008l0.092-0.008h170.316c0.067,0,0.125,0,0.167,0c15.191,0,27.509-12.316,27.509-27.5
		c0-1.083-0.067-2.15-0.184-3.208C689.009,674.075,611.842,571.5,504.426,532.383z M395.492,683.142H420.7l32.267,87.075h-89.75
		L395.492,683.142z M423.601,628.142h-31.009l-29.333-53.217c14.491-2.908,29.467-4.475,44.808-4.475
		c15.358,0,30.351,1.566,44.859,4.491L423.601,628.142z M321.367,314.508c0-47.825,38.916-86.733,86.741-86.733
		c47.809,0,86.7,38.909,86.7,86.733v114.233c0,47.809-38.892,86.709-86.7,86.709c-47.825,0-86.741-38.9-86.741-86.709V314.508z
		 M310.233,592.658l35.95,65.225l-41.625,112.325H182.45C191.967,691.741,241.65,625.525,310.233,592.658z M511.625,770.217
		L470,657.892l35.941-65.217c68.592,32.858,118.284,99.092,127.792,177.55H511.625V770.217z"/>
	<path display="inline" fill="#006A43" d="M767.184,239.225l-103.809-8c-0.416-0.034-0.816,0.017-1.217,0.008
		c-0.633-0.025-1.267-0.017-1.908,0.008c-1.074,0.042-2.116,0.15-3.158,0.3c-0.559,0.092-1.125,0.167-1.684,0.284
		c-1.308,0.275-2.583,0.667-3.824,1.133c-0.268,0.108-0.542,0.167-0.817,0.267c-1.583,0.65-3.092,1.45-4.524,2.383
		c-0.176,0.108-0.317,0.25-0.483,0.367c-1.25,0.85-2.417,1.808-3.509,2.858c-0.142,0.142-0.309,0.225-0.449,0.367
		c-0.176,0.175-0.284,0.383-0.459,0.55c-0.875,0.941-1.691,1.934-2.45,3c-0.283,0.408-0.591,0.8-0.858,1.217
		c-0.675,1.075-1.25,2.217-1.783,3.383c-0.175,0.375-0.399,0.733-0.541,1.125l-0.033,0.058l-35.584,90
		c-5.592,14.117,1.334,30.092,15.459,35.675c3.316,1.316,6.741,1.933,10.1,1.933c10.95,0,21.316-6.592,25.575-17.4l18.283-46.242
		c21.066,32.758,32.425,70.883,32.425,110.775c0,54.857-21.358,106.433-60.142,145.225c-10.741,10.733-10.741,28.15,0,38.883
		c5.375,5.375,12.4,8.059,19.441,8.059c7.042,0,14.075-2.684,19.442-8.059c49.166-49.166,76.25-114.55,76.25-184.107
		c0-47.367-12.592-92.775-36.125-132.467l42.125,3.25c15.107,1.284,28.357-10.15,29.533-25.3
		C793.65,253.617,782.325,240.392,767.184,239.225z"/>
	<path display="inline" fill="#006A43" d="M144.117,615.45L144.117,615.45L144.117,615.45h0.017c1.617,0,3.208-0.175,4.767-0.459
		c0.492-0.091,0.958-0.216,1.441-0.333c1.108-0.258,2.184-0.566,3.242-0.958c0.517-0.192,1.042-0.392,1.55-0.608
		c1.183-0.517,2.3-1.117,3.392-1.783c0.292-0.176,0.6-0.317,0.883-0.517c1.358-0.9,2.608-1.959,3.792-3.101
		c0.117-0.116,0.258-0.183,0.375-0.3c0.217-0.217,0.375-0.491,0.583-0.717c0.833-0.883,1.608-1.842,2.325-2.85
		c0.309-0.442,0.625-0.867,0.909-1.325c0.667-1.075,1.25-2.217,1.783-3.383c0.158-0.342,0.35-0.65,0.483-0.992
		c0,0,0.025-0.042,0.033-0.066l35.583-89.992c5.592-14.116-1.333-30.092-15.458-35.675c-14.091-5.616-30.092,1.342-35.675,15.458
		l-18.284,46.233c-21.075-32.758-32.425-70.892-32.425-110.783c0-54.858,21.35-106.425,60.142-145.216
		c10.742-10.733,10.742-28.15,0-38.883c-10.725-10.742-28.158-10.742-38.883,0c-49.175,49.167-76.258,114.55-76.258,184.1
		c0,47.367,12.583,92.783,36.133,132.467l-42.133-3.25c-15.158-1.142-28.358,10.158-29.533,25.3
		c-1.175,15.142,10.158,28.367,25.3,29.533l103.817,8.009C142.725,615.425,143.425,615.45,144.117,615.45z"/>
</g>
<g>
	<path fill="#006A43" d="M554.426,439.934c-0.033-1.634-0.166-3.267-0.492-4.858v-0.017c-0.316-1.567-0.816-3.101-1.4-4.601
		c-0.174-0.441-0.365-0.858-0.559-1.274c-0.5-1.092-1.057-2.15-1.699-3.184c-0.242-0.4-0.482-0.809-0.75-1.2
		c-0.926-1.325-1.934-2.608-3.107-3.783L303.083,177.684c-1.175-1.175-2.449-2.184-3.783-3.108c-0.392-0.267-0.8-0.509-1.208-0.759
		c-1.025-0.633-2.075-1.2-3.167-1.683c-0.434-0.192-0.858-0.4-1.291-0.567c-1.483-0.583-3-1.075-4.559-1.392
		c0,0-0.033-0.008-0.05-0.008c-1.592-0.325-3.226-0.458-4.858-0.492c-0.176,0-0.351-0.05-0.525-0.05H40.317
		c-15.183,0-27.5,12.316-27.5,27.5v603.741c0,15.184,12.317,27.5,27.5,27.5h486.658c15.184,0,27.5-12.316,27.5-27.5V440.467
		C554.475,440.283,554.426,440.116,554.426,439.934z M460.583,412.967H311.142v-149.45L460.583,412.967z M67.817,773.375v-548.75
		h188.334v215.833c0,15.184,12.316,27.5,27.5,27.5h215.833v305.408H67.817V773.375z"/>
	<path fill="#006A43" d="M431.401,508.95H135.884c-15.184,0-27.5,12.316-27.5,27.5s12.316,27.5,27.5,27.5h295.524
		c15.184,0,27.5-12.316,27.5-27.5S446.592,508.95,431.401,508.95z"/>
	<path fill="#006A43" d="M431.401,592.958H135.884c-15.184,0-27.5,12.317-27.5,27.5c0,15.184,12.316,27.5,27.5,27.5h295.524
		c15.184,0,27.5-12.316,27.5-27.5C458.909,605.275,446.592,592.958,431.401,592.958z"/>
	<path fill="#006A43" d="M431.401,676.967h-147.75c-15.184,0-27.5,12.316-27.5,27.5s12.316,27.5,27.5,27.5h147.75
		c15.183,0,27.5-12.316,27.5-27.5S446.592,676.967,431.401,676.967z"/>
</g>
<path display="none" fill="#006A43" d="M844.855,552.642c0.125-0.399,0.25-0.8,0.366-1.208c0.392-1.476,0.708-2.95,0.85-4.45
	c0.009-0.075,0-0.158,0.009-0.225c0.125-1.442,0.1-2.884-0.017-4.325c-0.033-0.476-0.092-0.925-0.158-1.392
	c-0.158-1.217-0.4-2.408-0.733-3.601c-0.084-0.324-0.15-0.675-0.25-1.008c-0.408-1.275-0.892-2.55-1.517-3.775
	c-0.092-0.191-0.226-0.358-0.325-0.55c-0.066-0.125-0.1-0.259-0.158-0.384L706.363,282.441c-2.809-5.741-7.533-10.2-13.333-12.675
	c-0.184-0.075-0.375-0.15-0.567-0.217c-1.55-0.625-3.158-1.091-4.833-1.408c-0.642-0.133-1.283-0.275-1.95-0.35
	c-0.699-0.091-1.399-0.117-2.108-0.142c-0.375-0.017-0.741-0.083-1.116-0.083c-0.759,0-1.509,0.091-2.259,0.15
	c-0.291,0.033-0.583-0.017-0.883,0.025c-29.767,3.675-51.267-0.85-76.158-6.117c-26.325-5.55-56.15-11.858-96.233-6.892
	c-8.409,1.042-16.451,2.983-24.109,5.441c0.683-5.741,1.149-11.542,1.149-17.441c0-38.184-14.558-73.65-39.949-97.309
	c-10.209-9.525-26.059-9.525-36.259,0c-25.392,23.659-39.958,59.125-39.958,97.309c0,11.758,1.533,23.191,4.184,34.175
	c-11.976-1.825-24.775-2.417-37.859-0.792c-40.033,4.958-67.433,18.333-91.6,30.133c-22.875,11.158-42.633,20.809-72.433,24.483
	c-13.075,1.617-22.684,12.483-23.242,25.217L16.063,594.675c-0.067,0.125-0.083,0.242-0.15,0.367
	c-0.108,0.199-0.241,0.375-0.35,0.574c-0.617,1.233-1.1,2.509-1.508,3.792c-0.1,0.309-0.15,0.617-0.233,0.925
	c-0.342,1.217-0.592,2.45-0.758,3.692c-0.059,0.449-0.108,0.892-0.142,1.333c-0.117,1.483-0.15,2.95-0.025,4.434
	c0.008,0.041,0,0.083,0.008,0.125c0.142,1.517,0.458,3.008,0.85,4.483c0.108,0.399,0.233,0.783,0.358,1.166
	c0.367,1.158,0.817,2.275,1.35,3.375c0.158,0.334,0.292,0.658,0.467,0.976c0.658,1.241,1.383,2.449,2.25,3.591
	c0.091,0.117,0.183,0.217,0.267,0.334c0.066,0.092,0.133,0.175,0.2,0.25c37.925,49.691,95.425,78.191,157.883,78.191
	c62.466,0,119.958-28.5,157.875-78.191c0.058-0.084,0.125-0.167,0.183-0.233c0.092-0.134,0.192-0.226,0.275-0.351
	c0.867-1.133,1.592-2.341,2.25-3.574c0.175-0.334,0.309-0.676,0.475-1.009c0.518-1.083,0.959-2.208,1.334-3.333
	c0.133-0.4,0.258-0.792,0.366-1.209c0.392-1.466,0.708-2.949,0.851-4.458c0.008-0.066,0-0.133,0.008-0.175
	c0.125-1.45,0.092-2.908-0.017-4.351c-0.033-0.475-0.092-0.933-0.158-1.399c-0.158-1.217-0.4-2.408-0.733-3.6
	c-0.092-0.334-0.15-0.676-0.25-1.001c-0.408-1.283-0.9-2.558-1.517-3.783c-0.092-0.191-0.226-0.358-0.333-0.541
	c-0.059-0.134-0.084-0.259-0.158-0.392L216.555,374.825c18.942-5.992,34.725-13.675,49.3-20.784
	c22.416-10.941,43.583-21.275,74.8-25.142c19.217-2.367,38.541,3.083,52.491,8.733c-21.85,54.625-34.191,129.167-34.191,208.792
	c0,73.317,10.458,142.325,29.167,195.458c-77.384,6.358-147.534,32.075-196.4,72.801c-8.6,7.166-11.792,18.958-7.975,29.5
	c3.809,10.524,13.809,17.533,25.008,17.533h434.259c11.199,0,21.199-7.017,25.008-17.533c3.816-10.542,0.617-22.334-7.975-29.492
	c-48.867-40.741-119.017-66.458-196.401-72.809c18.709-53.116,29.158-122.133,29.158-195.458c0-81.2-12.842-157.025-35.483-211.917
	c11.759-9.742,32.5-24.067,56.134-27c31.25-3.858,54.3,0.992,78.708,6.158c13.75,2.909,28.55,5.958,45.15,7.517L521.98,531.733
	c-0.059,0.125-0.092,0.258-0.159,0.383c-0.108,0.192-0.233,0.358-0.333,0.551c-0.608,1.225-1.1,2.5-1.508,3.774
	c-0.109,0.334-0.176,0.684-0.25,1.009c-0.334,1.191-0.575,2.383-0.733,3.592c-0.067,0.475-0.125,0.925-0.167,1.399
	c-0.108,1.441-0.134,2.884-0.017,4.325c0.008,0.075,0,0.158,0.008,0.225c0.15,1.5,0.467,2.976,0.858,4.442
	c0.108,0.416,0.242,0.824,0.375,1.217c0.367,1.125,0.809,2.232,1.325,3.308c0.158,0.351,0.3,0.692,0.483,1.034
	c0.65,1.232,1.392,2.433,2.25,3.574c0.092,0.117,0.184,0.209,0.258,0.325c0.075,0.083,0.15,0.175,0.209,0.259
	c37.925,49.683,95.416,78.175,157.866,78.175s119.95-28.492,157.858-78.175c0.075-0.092,0.15-0.176,0.209-0.259
	c0.083-0.116,0.175-0.208,0.258-0.325c0.867-1.142,1.6-2.333,2.259-3.583c0.175-0.333,0.325-0.675,0.483-1.025
	C844.038,554.883,844.48,553.775,844.855,552.642z M176.538,412.492l92.233,168.375H84.288L176.538,412.492z M176.538,649.1
	c-22.908,0-44.908-5.233-64.65-15.041h129.292C221.438,643.866,199.446,649.1,176.538,649.1z M425.879,412.767
	c8.833,39.733,13.717,85.983,13.717,133.658c0,47.65-4.892,93.9-13.717,133.634c-8.85-39.75-13.733-85.983-13.733-133.634
	C412.146,498.767,417.038,452.508,425.879,412.767z M425.879,213.184c3.175,9.167,4.884,19.225,4.884,29.542
	c0,10.316-1.717,20.375-4.884,29.558c-3.175-9.183-4.883-19.242-4.883-29.558C420.997,232.408,422.712,222.35,425.879,213.184z
	 M318.53,808.525c33.142-9.759,69.8-15.042,107.35-15.042s74.217,5.283,107.359,15.042H318.53z M774.688,517.908H590.213
	l92.233-168.392L774.688,517.908z M682.446,586.142c-22.899,0-44.899-5.233-64.633-15.042H747.08
	C727.347,580.908,705.354,586.142,682.446,586.142z"/>
<path display="none" fill="#006A43" d="M763.267,280.042H506.8c-0.691-57.341-47.491-103.783-104.991-103.783
	c-57.509,0-104.333,46.442-105.024,103.783H40.317c-15.183,0-27.5,12.317-27.5,27.5v409.825c0,15.184,12.317,27.5,27.5,27.5h76.133
	c6.6,43.45,44.092,76.892,89.358,76.892s82.759-33.441,89.358-76.892h222.85c6.601,43.45,44.092,76.892,89.358,76.892
	s82.775-33.441,89.375-76.892h66.534c15.183,0,27.5-12.316,27.5-27.5V307.533C790.767,292.35,778.459,280.042,763.267,280.042z
	 M205.801,766.75c-8.5,0-16.292-2.992-22.409-7.992h44.825C222.092,763.759,214.292,766.75,205.801,766.75z M607.358,766.75
	c-8.5,0-16.291-2.992-22.408-7.992h44.833C623.667,763.759,615.858,766.75,607.358,766.75z M401.809,231.25
	c27.175,0,49.309,21.775,49.991,48.783H351.792C352.483,253.025,374.625,231.25,401.809,231.25z M735.775,689.858H67.809V335.033
	h384.059v184.634c0,12.058-9.809,21.866-21.867,21.866c-12.041,0-21.85-9.809-21.85-21.866V386.4c0-15.183-12.316-27.5-27.5-27.5
	s-27.5,12.317-27.5,27.5v133.267c0,42.383,34.475,76.866,76.85,76.866c42.384,0,76.867-34.483,76.867-76.866V335.033h228.908
	V689.858z"/>
</svg>
