<?xml version="1.0" encoding="utf-8"?>
<!-- Generator: Adobe Illustrator 15.1.0, SVG Export Plug-In . SVG Version: 6.00 Build 0)  -->
<!DOCTYPE svg PUBLIC "-//W3C//DTD SVG 1.1//EN" "http://www.w3.org/Graphics/SVG/1.1/DTD/svg11.dtd">
<svg version="1.1" id="Layer_1" xmlns="http://www.w3.org/2000/svg" xmlns:xlink="http://www.w3.org/1999/xlink" x="0px" y="0px"
	 width="270px" height="270px" viewBox="12.166 378.72 270 270" enable-background="new 12.166 378.72 270 270"
	 xml:space="preserve">
<path display="none" fill="#006A43" d="M281.851,568.757c0-11.146-7.329-20.603-17.415-23.831v-2.653
	c0-4.198-3.405-7.604-7.603-7.604h-51.91l-21.771-44.757c-1.274-2.617-3.928-4.275-6.838-4.275h-19.177l-3.293-20.497
	c-0.593-3.686-3.774-6.396-7.505-6.396h-17.521c-3.732,0-6.913,2.709-7.505,6.393l-3.299,20.5h-17.405
	c-2.91,0-5.564,1.661-6.838,4.275l-21.776,44.757h-51.91c-4.197,0-7.603,3.405-7.603,7.604v55.002c0,4.195,3.405,7.603,7.603,7.603
	h26.179c3.412,13.68,15.77,23.855,30.487,23.855c14.721,0,27.079-10.178,30.49-23.855h62.437
	c3.413,13.68,15.771,23.855,30.487,23.855c14.721,0,27.079-10.178,30.492-23.855h26.176c4.197,0,7.603-3.407,7.603-7.603v-4.691
	C274.524,589.357,281.851,579.9,281.851,568.757z M188.014,534.669h-42.836v-33.827h26.379L188.014,534.669z M135.294,473.947h4.566
	l1.877,11.69h-8.324L135.294,473.947z M105.365,500.842h24.61v33.829h-41.07L105.365,500.842z M76.751,613.53
	c-8.962,0-16.251-7.292-16.251-16.256c0-8.962,7.29-16.252,16.251-16.252c8.965,0,16.257,7.29,16.257,16.252
	C93.008,606.238,85.716,613.53,76.751,613.53z M76.751,565.819c-14.719,0-27.075,10.177-30.486,23.854H27.687v-39.8h49.064h53.224
	v39.797h-22.732C103.828,575.996,91.473,565.819,76.751,565.819z M200.167,613.53c-8.962,0-16.251-7.292-16.251-16.256
	c0-8.962,7.29-16.252,16.251-16.252c8.964,0,16.255,7.29,16.255,16.252C216.422,606.238,209.13,613.53,200.167,613.53z
	 M249.233,589.671h-18.574c-3.414-13.678-15.771-23.854-30.49-23.854c-14.72,0-27.075,10.176-30.487,23.854h-24.504v-39.797h54.989
	h49.067V589.671L249.233,589.671z M264.438,574.885v-12.256c1.362,1.684,2.209,3.796,2.209,6.128
	C266.648,571.086,265.8,573.199,264.438,574.885z"/>
<path display="none" fill="#006A43" d="M248.443,481.155c0-0.064-0.023-0.126-0.023-0.191c-0.013-0.468-0.071-0.925-0.166-1.384
	c-0.023-0.092-0.023-0.192-0.048-0.282c-0.136-0.534-0.334-1.053-0.58-1.548c-0.065-0.131-0.155-0.246-0.228-0.378
	c-0.206-0.352-0.431-0.693-0.692-1.013c-0.119-0.146-0.25-0.282-0.382-0.421c-0.257-0.27-0.532-0.521-0.834-0.754
	c-0.096-0.074-0.17-0.173-0.27-0.242c-0.076-0.051-0.161-0.079-0.239-0.129c-0.104-0.067-0.187-0.15-0.292-0.214
	c-0.233-0.138-0.477-0.221-0.719-0.332c-0.168-0.076-0.329-0.167-0.502-0.23c-1.076-0.401-2.196-0.542-3.295-0.445
	c-0.138,0.014-0.269,0.048-0.404,0.065c-0.425,0.06-0.836,0.15-1.242,0.281c-0.081,0.025-0.164,0.028-0.242,0.053
	c-11.291,4.025-21.064,5.986-29.869,5.986h-0.004c-10.831,0-18.627-2.928-26.876-6.028c-7.99-3.001-16.253-6.104-26.729-6.104
	c-7.616,0-15.61,1.685-24.347,5.105c-8.734-3.418-16.725-5.105-24.339-5.105c-10.476,0-18.737,3.105-26.729,6.104
	c-8.252,3.102-16.048,6.028-26.883,6.028c-8.801,0-18.574-1.959-29.87-5.986c-2.331-0.826-4.916-0.476-6.934,0.948
	c-2.021,1.426-3.222,3.744-3.222,6.213V615.06c0,4.105,3.256,7.451,7.327,7.599c12.033,4.084,22.75,6.074,32.696,6.074h0.007
	c13.588,0,23.487-3.716,32.218-6.997c7.338-2.753,13.676-5.136,21.389-5.136c5.881,0,12.279,1.418,19.506,4.327
	c0.108,0.091,0.235,0.157,0.348,0.24c0.146,0.108,0.29,0.211,0.442,0.309c0.246,0.154,0.504,0.29,0.765,0.417
	c0.156,0.076,0.313,0.153,0.477,0.222c0.294,0.116,0.604,0.205,0.913,0.282c0.146,0.04,0.29,0.09,0.44,0.12
	c0.467,0.092,0.951,0.145,1.447,0.145c0.495,0,0.979-0.053,1.447-0.145c0.149-0.03,0.292-0.08,0.439-0.12
	c0.312-0.077,0.62-0.166,0.915-0.282c0.161-0.065,0.315-0.143,0.472-0.222c0.262-0.127,0.521-0.261,0.768-0.417
	c0.152-0.098,0.297-0.2,0.442-0.309c0.115-0.083,0.24-0.149,0.348-0.24c7.228-2.909,13.625-4.327,19.508-4.327
	c7.715,0,14.054,2.38,21.389,5.136c8.733,3.278,18.631,6.995,32.22,6.995c9.949,0,20.668-1.988,32.698-6.075
	c0.131-0.004,0.249-0.042,0.379-0.051c0.313-0.027,0.622-0.061,0.923-0.125c0.185-0.041,0.362-0.096,0.539-0.147
	c0.266-0.075,0.526-0.159,0.779-0.265c0.187-0.075,0.362-0.16,0.54-0.252c0.232-0.121,0.457-0.245,0.677-0.392
	c0.166-0.107,0.33-0.218,0.486-0.339c0.21-0.158,0.405-0.33,0.599-0.514c0.141-0.132,0.279-0.262,0.41-0.406
	c0.182-0.199,0.343-0.412,0.505-0.629c0.112-0.153,0.229-0.307,0.331-0.467c0.143-0.227,0.256-0.467,0.373-0.709
	c0.087-0.181,0.182-0.359,0.258-0.548c0.09-0.239,0.154-0.49,0.226-0.741c0.055-0.209,0.127-0.416,0.166-0.63
	c0.005-0.036,0.021-0.069,0.028-0.105c0.032-0.194,0.022-0.382,0.041-0.573c0.021-0.237,0.067-0.462,0.067-0.701V481.155H248.443z
	 M182.007,572.225c-5.549-7.101-11.525-14.72-20.331-21.739c4.928,0.887,9.521,2.596,14.52,4.472
	c8.637,3.244,18.519,6.958,32.202,6.958c7.128,0,15.29-1.01,24.841-3.617v14.344c-8.45,1.563-23.125,2.654-39.851-3.26
	c0,0,16.984,19.778,39.851,23.637v12.798C202.904,598.931,193.144,586.472,182.007,572.225z M27.691,538.323
	c9.552,2.608,17.714,3.617,24.845,3.617c13.68,0,23.563-3.711,32.202-6.958c11.734-4.407,21.216-7.929,38.127-1.845v14.818
	c0,0,0,0.019,0,0.027l0,0c0,0,0,0.013,0,0.02v13.852c-19.17-5.512-31.508-0.919-43.471,3.578
	c-13.391,5.026-26.08,9.789-51.701,1.735v-28.845H27.691z M233.238,503.885v12.291c-8.93,6.772-25.144,16.635-45.593,18.2
	c0,0,22.686,6.351,45.593-0.655v8.741c-25.613,8.052-38.311,3.294-51.695-1.735c-8.587-3.226-17.364-6.5-28.711-6.07
	c10.403-7.533,21.087-8.976,32.834-10.511C200.758,522.172,217.39,519.979,233.238,503.885z M208.421,495.183
	c4.228,0,8.612-0.393,13.16-1.119c-11.92,11.598-24.218,13.219-37.887,15.009c-14.389,1.882-30.246,3.976-45.626,18.04v-40.79
	c4.734-1.703,9.103-2.713,13.216-3.089v22.155c14.957-9.153,25.982-6.938,40.375-12.21c4.964,1.187,10.45,2.002,16.753,2.002h0.009
	V495.183z M52.511,495.183c13.597,0,23.494-3.718,32.228-6.999c7.335-2.752,13.671-5.133,21.382-5.133
	c5.122,0,10.632,1.073,16.742,3.269v30.857c-19.172-5.509-31.512-0.917-43.471,3.575c-13.39,5.029-26.089,9.786-51.701,1.734v-30.95
	C36.598,493.984,44.788,495.183,52.511,495.183z M79.392,607.505c-8.252,3.102-16.048,6.026-26.879,6.026c-0.001,0-0.001,0-0.001,0
	c-7.465,0-15.625-1.407-24.82-4.288v-26.24c9.552,2.609,17.714,3.618,24.845,3.618c13.68,0,23.565-3.712,32.202-6.958
	c11.731-4.402,21.212-7.927,38.127-1.843v26.079c-5.852-1.678-11.386-2.503-16.74-2.503
	C95.649,601.399,87.383,604.506,79.392,607.505z M169.184,603.349c-11.291-13.006-17.9-27.599-17.9-27.599v25.785
	c-4.256,0.282-8.636,1.053-13.216,2.367v-31.211v-0.026v-19.086c16.068,7.73,23.844,17.624,31.963,28.01
	c9.017,11.539,18.262,23.342,37.716,31.92c-10.473-0.122-18.127-2.97-26.204-6.003C177.568,606.014,173.527,604.499,169.184,603.349
	z"/>
<path fill="#006A43" d="M169.146,431.324H23.085c-4.197,0-7.603,3.405-7.603,7.602v181.215c0,4.197,3.405,7.603,7.603,7.603h146.062
	c4.198,0,7.604-3.405,7.604-7.603V438.925C176.75,434.729,173.344,431.324,169.146,431.324z M161.544,446.529v22.485h-41.675
	c-0.753-10.284-9.342-18.426-19.813-18.426c-10.471,0-19.059,8.142-19.815,18.426h-4.292c-0.753-10.284-9.344-18.426-19.818-18.426
	c-10.473,0-19.059,8.142-19.815,18.426h-5.628v-22.485H161.544z M139.164,573.276c-0.75-10.284-9.341-18.428-19.815-18.428
	c-10.473,0-19.058,8.144-19.812,18.428H75.951c-0.753-10.284-9.342-18.428-19.817-18.428c-10.474,0-19.062,8.144-19.815,18.428
	h-5.631v-36.558h31.625c0.753,10.284,9.34,18.427,19.812,18.427c10.474,0,19.062-8.143,19.815-18.427h14.772
	c0.75,10.284,9.342,18.427,19.815,18.427s19.061-8.143,19.814-18.427h5.208v36.558H139.164L139.164,573.276z M124.035,574.736
	v12.286c0,2.583-2.102,4.685-4.684,4.685c-2.581,0-4.681-2.102-4.681-4.685v-12.286c0-2.582,2.101-4.683,4.681-4.683
	C121.933,570.054,124.035,572.154,124.035,574.736z M60.82,574.736v12.286c0,2.583-2.101,4.685-4.686,4.685
	c-2.583,0-4.684-2.102-4.684-4.685v-12.286c0-2.582,2.101-4.683,4.684-4.683C58.719,570.054,60.82,572.154,60.82,574.736z
	 M77.442,535.258v-12.289c0-2.584,2.102-4.686,4.681-4.686c2.583,0,4.684,2.102,4.684,4.686v12.289c0,2.581-2.101,4.682-4.684,4.682
	C79.543,539.942,77.442,537.841,77.442,535.258z M131.84,535.258v-12.289c0-2.584,2.101-4.686,4.684-4.686
	c2.583,0,4.684,2.102,4.684,4.686v12.289c0,2.581-2.101,4.682-4.684,4.682C133.941,539.939,131.84,537.841,131.84,535.258z
	 M156.338,521.512c-0.751-10.289-9.341-18.438-19.814-18.438c-10.473,0-19.062,8.149-19.815,18.438h-14.772
	c-0.751-10.289-9.342-18.438-19.815-18.438s-19.059,8.149-19.813,18.438h-31.62v-37.295h5.631
	c0.75,10.287,9.342,18.432,19.815,18.432c10.478,0,19.066-8.145,19.817-18.432h4.292c0.749,10.287,9.34,18.432,19.815,18.432
	s19.062-8.145,19.813-18.432h41.672v37.295H156.338z M51.45,482.761v-12.287c0-2.583,2.101-4.684,4.684-4.684
	c2.585,0,4.686,2.101,4.686,4.684v12.287c0,2.581-2.101,4.681-4.686,4.681C53.551,487.442,51.45,485.342,51.45,482.761z
	 M95.373,482.761v-12.287c0-2.583,2.101-4.684,4.684-4.684c2.581,0,4.682,2.101,4.682,4.684v12.287c0,2.581-2.101,4.681-4.682,4.681
	C97.473,487.442,95.373,485.342,95.373,482.761z M30.688,612.539v-24.058h5.631c0.75,10.287,9.342,18.431,19.815,18.431
	c10.475,0,19.063-8.144,19.817-18.431h23.587c0.75,10.287,9.339,18.431,19.812,18.431c10.474,0,19.062-8.144,19.815-18.431h22.377
	v24.058H30.688z"/>
<g display="none">
	<path display="inline" fill="#006A43" d="M148.391,547.774c7.696-7.157,12.545-17.337,12.545-28.652v-31.58
		c0-21.605-17.572-39.184-39.173-39.184c-21.608,0-39.186,17.579-39.186,39.184v31.58c0,11.315,4.85,21.493,12.549,28.654
		c-29.957,10.906-51.41,39.67-51.41,73.353c0,4.197,3.405,7.602,7.603,7.602h47.085c0,0,0.016,0.002,0.025,0.002l0.03-0.002h46.604
		l0.03,0.002l0.025-0.002h47.084c0.019,0,0.035,0,0.046,0c4.2,0,7.605-3.404,7.605-7.602c0-0.301-0.019-0.596-0.051-0.887
		C199.42,586.946,178.086,558.588,148.391,547.774z M93.136,613.522H59.377c2.631-21.693,16.367-39.999,35.328-49.085l9.938,18.032
		L93.136,613.522z M109.353,613.525l8.923-24.073h6.969l8.92,24.073H109.353z M109.364,559.534
		c4.006-0.803,8.146-1.236,12.387-1.236c4.247,0,8.391,0.434,12.402,1.241l-8.107,14.708h-8.572L109.364,559.534z M121.763,543.092
		c-13.222,0-23.98-10.754-23.98-23.97v-31.58c0-13.222,10.758-23.979,23.98-23.979c13.217,0,23.969,10.756,23.969,23.979v31.58
		C145.732,532.338,134.98,543.092,121.763,543.092z M150.381,613.528v-0.003l-11.507-31.054l9.936-18.029
		c18.963,9.083,32.701,27.394,35.329,49.086H150.381z"/>
	<path display="inline" fill="#006A43" d="M221.032,466.729l-28.699-2.211c-0.115-0.009-0.226,0.004-0.336,0.003
		c-0.176-0.007-0.351-0.004-0.528,0.001c-0.297,0.012-0.585,0.042-0.873,0.083c-0.155,0.025-0.312,0.046-0.465,0.079
		c-0.362,0.076-0.714,0.184-1.058,0.313c-0.074,0.03-0.15,0.046-0.227,0.074c-0.437,0.179-0.854,0.401-1.25,0.659
		c-0.048,0.03-0.087,0.069-0.134,0.102c-0.346,0.234-0.668,0.499-0.97,0.791c-0.039,0.039-0.085,0.061-0.124,0.101
		c-0.05,0.047-0.079,0.105-0.127,0.151c-0.242,0.26-0.468,0.535-0.678,0.83c-0.078,0.113-0.163,0.221-0.237,0.336
		c-0.186,0.297-0.346,0.613-0.493,0.935c-0.048,0.104-0.11,0.204-0.149,0.311l-0.009,0.016l-9.837,24.881
		c-1.546,3.903,0.369,8.319,4.274,9.862c0.917,0.364,1.863,0.535,2.792,0.535c3.027,0,5.893-1.822,7.07-4.81l5.055-12.785
		c5.824,9.057,8.964,19.597,8.964,30.625c0,15.164-5.904,29.423-16.627,40.147c-2.969,2.967-2.969,7.782,0,10.748
		c1.486,1.487,3.429,2.229,5.375,2.229c1.947,0,3.892-0.742,5.375-2.229c13.593-13.591,21.08-31.667,21.08-50.896
		c0-13.095-3.48-25.648-9.987-36.621l11.646,0.897c4.176,0.356,7.839-2.806,8.165-6.994
		C228.349,470.708,225.219,467.052,221.032,466.729z"/>
	<path display="inline" fill="#006A43" d="M48.78,570.739h0.005c0.447,0,0.886-0.049,1.317-0.128
		c0.136-0.024,0.265-0.06,0.398-0.092c0.307-0.071,0.604-0.156,0.897-0.266c0.143-0.052,0.288-0.107,0.428-0.167
		c0.328-0.144,0.636-0.31,0.938-0.493c0.081-0.049,0.165-0.089,0.244-0.144c0.375-0.249,0.721-0.541,1.048-0.856
		c0.032-0.032,0.071-0.051,0.104-0.083c0.06-0.06,0.104-0.136,0.162-0.198c0.23-0.244,0.444-0.51,0.643-0.788
		c0.085-0.122,0.172-0.24,0.25-0.365c0.185-0.298,0.345-0.613,0.493-0.937c0.043-0.094,0.097-0.18,0.133-0.273
		c0,0,0.007-0.012,0.009-0.02l9.837-24.879c1.546-3.901-0.369-8.318-4.273-9.863c-3.896-1.551-8.319,0.371-9.863,4.274
		l-5.055,12.782c-5.826-9.057-8.964-19.599-8.964-30.626c0-15.167,5.902-29.422,16.627-40.146c2.97-2.967,2.97-7.783,0-10.75
		c-2.965-2.97-7.785-2.97-10.75,0c-13.596,13.592-21.083,31.668-21.083,50.896c0,13.094,3.479,25.649,9.989,36.62l-11.648-0.898
		c-4.19-0.315-7.84,2.809-8.165,6.995c-0.325,4.186,2.809,7.842,6.995,8.164l28.701,2.214
		C48.396,570.732,48.589,570.739,48.78,570.739z"/>
</g>
<g display="none">
	<path display="inline" fill="#006A43" d="M162.213,521.348c-0.009-0.452-0.045-0.902-0.136-1.343V520
		c-0.087-0.434-0.226-0.857-0.387-1.272c-0.048-0.121-0.102-0.237-0.155-0.352c-0.138-0.302-0.292-0.595-0.469-0.88
		c-0.068-0.111-0.134-0.225-0.208-0.332c-0.256-0.367-0.535-0.721-0.859-1.046l-67.271-67.271c-0.325-0.325-0.677-0.604-1.046-0.859
		c-0.108-0.074-0.221-0.141-0.334-0.21c-0.283-0.175-0.574-0.332-0.875-0.466c-0.12-0.053-0.237-0.111-0.356-0.156
		c-0.41-0.161-0.83-0.298-1.26-0.385c0,0-0.01-0.002-0.014-0.002c-0.44-0.09-0.892-0.127-1.343-0.136
		c-0.048,0-0.097-0.014-0.146-0.014h-67.27c-4.197,0-7.603,3.406-7.603,7.603V621.13c0,4.197,3.405,7.603,7.603,7.603h134.541
		c4.197,0,7.603-3.405,7.603-7.603v-99.635C162.227,521.444,162.213,521.397,162.213,521.348z M94.956,472.576l41.314,41.316H94.956
		V472.576z M147.025,613.528H27.687V461.824h52.066v59.668c0,4.197,3.406,7.603,7.603,7.603h59.669V613.528z"/>
	<path display="inline" fill="#006A43" d="M38.902,548.029c0,4.197,3.405,7.604,7.603,7.604h81.7c4.198,0,7.603-3.406,7.603-7.604
		s-3.405-7.603-7.605-7.603H46.505C42.307,540.427,38.902,543.832,38.902,548.029z"/>
	<path display="inline" fill="#006A43" d="M128.203,563.651H46.505c-4.198,0-7.603,3.405-7.603,7.603
		c0,4.198,3.405,7.604,7.603,7.604h81.7c4.198,0,7.603-3.405,7.603-7.604C135.808,567.057,132.403,563.651,128.203,563.651z"/>
	<path display="inline" fill="#006A43" d="M128.203,586.877H87.355c-4.197,0-7.603,3.405-7.603,7.603s3.406,7.604,7.603,7.604
		h40.847c4.197,0,7.603-3.406,7.603-7.604S132.403,586.877,128.203,586.877z"/>
</g>
<path display="none" fill="#006A43" d="M242.505,543.285c0.036-0.11,0.069-0.221,0.102-0.334c0.108-0.407,0.196-0.815,0.235-1.229
	c0.002-0.021,0-0.044,0.002-0.062c0.035-0.398,0.027-0.797-0.004-1.195c-0.01-0.132-0.025-0.256-0.044-0.385
	c-0.044-0.337-0.111-0.666-0.204-0.996c-0.022-0.089-0.042-0.186-0.069-0.277c-0.112-0.354-0.246-0.706-0.418-1.044
	c-0.025-0.054-0.062-0.101-0.09-0.152c-0.019-0.035-0.028-0.072-0.044-0.107l-37.752-68.914c-0.776-1.586-2.083-2.819-3.687-3.504
	c-0.051-0.021-0.104-0.042-0.157-0.06c-0.429-0.173-0.874-0.301-1.336-0.389c-0.178-0.037-0.355-0.076-0.54-0.097
	c-0.193-0.026-0.386-0.033-0.583-0.04c-0.104-0.004-0.206-0.023-0.309-0.023c-0.209,0-0.417,0.026-0.625,0.042
	c-0.08,0.009-0.161-0.005-0.244,0.007c-8.229,1.017-14.173-0.235-21.054-1.69c-7.278-1.535-15.523-3.278-26.605-1.906
	c-2.324,0.288-4.547,0.825-6.665,1.504c0.189-1.586,0.318-3.191,0.318-4.821c0-10.556-4.025-20.361-11.044-26.902
	c-2.823-2.633-7.204-2.633-10.025,0c-7.02,6.541-11.046,16.346-11.046,26.902c0,3.251,0.424,6.411,1.157,9.447
	c-3.311-0.504-6.85-0.668-10.466-0.219c-11.068,1.371-18.642,5.069-25.324,8.331c-6.324,3.085-11.786,5.753-20.024,6.769
	c-3.615,0.447-6.271,3.451-6.426,6.972l-36.156,65.995c-0.019,0.035-0.023,0.067-0.042,0.103c-0.03,0.055-0.067,0.104-0.097,0.158
	c-0.17,0.342-0.304,0.694-0.417,1.05c-0.028,0.085-0.042,0.169-0.064,0.255c-0.094,0.336-0.163,0.677-0.209,1.021
	c-0.017,0.124-0.03,0.247-0.04,0.368c-0.032,0.411-0.042,0.816-0.007,1.226c0.002,0.013,0,0.023,0.002,0.035
	c0.039,0.419,0.127,0.831,0.235,1.239c0.03,0.111,0.064,0.217,0.099,0.322c0.102,0.32,0.227,0.629,0.374,0.934
	c0.043,0.093,0.081,0.182,0.129,0.27c0.182,0.343,0.383,0.677,0.622,0.992c0.025,0.033,0.051,0.061,0.074,0.092
	c0.018,0.026,0.037,0.049,0.054,0.069c10.485,13.737,26.382,21.618,43.649,21.618c17.269,0,33.164-7.881,43.646-21.618
	c0.016-0.022,0.035-0.045,0.05-0.063c0.025-0.037,0.053-0.062,0.076-0.098c0.24-0.313,0.44-0.646,0.623-0.988
	c0.048-0.092,0.084-0.187,0.131-0.277c0.143-0.301,0.265-0.611,0.368-0.923c0.037-0.11,0.072-0.218,0.102-0.334
	c0.108-0.405,0.195-0.815,0.235-1.231c0.002-0.019,0-0.038,0.002-0.049c0.035-0.401,0.026-0.804-0.004-1.203
	c-0.009-0.131-0.025-0.258-0.044-0.388c-0.043-0.336-0.11-0.665-0.202-0.994c-0.025-0.093-0.042-0.188-0.069-0.276
	c-0.113-0.354-0.249-0.708-0.419-1.047c-0.025-0.053-0.062-0.098-0.092-0.149c-0.016-0.037-0.023-0.071-0.044-0.108l-33.292-60.78
	c5.237-1.656,9.6-3.78,13.629-5.746c6.197-3.024,12.049-5.882,20.679-6.95c5.312-0.655,10.655,0.853,14.512,2.415
	c-6.041,15.101-9.453,35.708-9.453,57.721c0,20.27,2.892,39.347,8.064,54.036c-21.394,1.757-40.788,8.868-54.297,20.126
	c-2.377,1.982-3.26,5.242-2.205,8.155c1.053,2.91,3.818,4.848,6.914,4.848h120.054c3.097,0,5.862-1.94,6.914-4.848
	c1.055-2.913,0.171-6.173-2.205-8.152c-13.51-11.264-32.903-18.373-54.295-20.129c5.172-14.685,8.061-33.765,8.061-54.036
	c0-22.448-3.55-43.41-9.81-58.585c3.25-2.694,8.984-6.654,15.518-7.464c8.639-1.067,15.012,0.273,21.76,1.702
	c3.802,0.805,7.893,1.648,12.481,2.078l-31.884,58.207c-0.016,0.035-0.026,0.071-0.044,0.106c-0.03,0.054-0.065,0.099-0.093,0.152
	c-0.167,0.338-0.304,0.691-0.417,1.044c-0.03,0.092-0.048,0.188-0.068,0.278c-0.092,0.329-0.16,0.658-0.203,0.993
	c-0.019,0.131-0.035,0.256-0.046,0.386c-0.03,0.399-0.037,0.798-0.004,1.196c0.002,0.021,0,0.045,0.002,0.062
	c0.042,0.415,0.129,0.823,0.237,1.228c0.03,0.116,0.066,0.229,0.104,0.338c0.102,0.311,0.224,0.617,0.367,0.914
	c0.043,0.097,0.083,0.19,0.133,0.285c0.18,0.341,0.385,0.672,0.622,0.988c0.026,0.033,0.051,0.058,0.072,0.089
	c0.021,0.024,0.042,0.049,0.058,0.072c10.485,13.735,26.379,21.612,43.644,21.612c17.265,0,33.161-7.877,43.642-21.612
	c0.021-0.025,0.042-0.048,0.058-0.072c0.023-0.031,0.049-0.056,0.071-0.089c0.239-0.316,0.442-0.645,0.625-0.991
	c0.048-0.092,0.09-0.186,0.134-0.282C242.279,543.906,242.402,543.6,242.505,543.285z M57.743,504.541l25.499,46.548H32.24
	L57.743,504.541z M57.743,569.952c-6.333,0-12.415-1.446-17.873-4.158h35.744C70.157,568.506,64.077,569.952,57.743,569.952z
	 M126.677,504.617c2.442,10.984,3.792,23.771,3.792,36.95c0,13.173-1.353,25.958-3.792,36.944
	c-2.447-10.989-3.797-23.771-3.797-36.944C122.88,528.392,124.231,515.604,126.677,504.617z M126.677,449.441
	c0.877,2.534,1.35,5.314,1.35,8.167s-0.475,5.634-1.35,8.172c-0.878-2.539-1.35-5.32-1.35-8.172S125.801,451.975,126.677,449.441z
	 M96.999,614.026c9.163-2.696,19.297-4.158,29.678-4.158c10.381,0,20.518,1.462,29.679,4.158H96.999z M223.106,533.683h-50.999
	l25.499-46.551L223.106,533.683z M197.606,552.547c-6.331,0-12.413-1.447-17.869-4.158h35.737
	C210.019,551.1,203.939,552.547,197.606,552.547z"/>
<path display="none" fill="#006A43" d="M219.949,478.972h-70.902c-0.19-15.853-13.128-28.692-29.024-28.692
	c-15.9,0-28.844,12.84-29.036,28.692H20.083c-4.197,0-7.603,3.405-7.603,7.603v113.299c0,4.196,3.405,7.603,7.603,7.603h21.048
	c1.825,12.012,12.189,21.257,24.704,21.257c12.514,0,22.88-9.245,24.704-21.257h61.608c1.825,12.012,12.189,21.257,24.704,21.257
	c12.515,0,22.884-9.245,24.709-21.257h18.395c4.197,0,7.602-3.406,7.602-7.603V486.572
	C227.552,482.375,224.149,478.972,219.949,478.972z M65.834,613.525c-2.351,0-4.505-0.828-6.195-2.21h12.393
	C70.337,612.697,68.181,613.525,65.834,613.525z M176.847,613.525c-2.35,0-4.504-0.828-6.195-2.21h12.394
	C181.355,612.697,179.197,613.525,176.847,613.525z M120.022,465.483c7.512,0,13.631,6.02,13.82,13.487h-27.648
	C106.385,471.502,112.506,465.483,120.022,465.483z M212.349,592.268H27.684v-98.093h106.177v51.041
	c0,3.334-2.711,6.045-6.045,6.045c-3.33,0-6.041-2.711-6.041-6.045v-36.841c0-4.197-3.406-7.603-7.603-7.603
	c-4.198,0-7.603,3.405-7.603,7.603v36.841c0,11.718,9.532,21.25,21.246,21.25c11.717,0,21.25-9.532,21.25-21.25v-51.041h63.283
	V592.268z"/>
</svg>
