
<svg version="1.1" id="picto_egrp" xmlns="http://www.w3.org/2000/svg" xmlns:xlink="http://www.w3.org/1999/xlink" x="0px" y="0px"
	  viewBox="0 0 120 120" enable-background="new 0 0 120 120" xml:space="preserve">
<g>
	<path fill="#006a43" d="M92.494,52.912c-0.004-0.196-0.02-0.392-0.059-0.583v-0.002c-0.038-0.188-0.098-0.372-0.168-0.552
		c-0.021-0.053-0.044-0.103-0.067-0.153c-0.06-0.131-0.127-0.258-0.204-0.382c-0.029-0.048-0.058-0.097-0.09-0.144
		c-0.111-0.159-0.232-0.313-0.373-0.454l-29.2-29.2c-0.141-0.141-0.294-0.262-0.454-0.373c-0.047-0.032-0.096-0.061-0.145-0.091
		c-0.123-0.076-0.249-0.144-0.38-0.202c-0.052-0.023-0.103-0.048-0.155-0.068c-0.178-0.07-0.36-0.129-0.547-0.167
		c0,0-0.004-0.001-0.006-0.001c-0.191-0.039-0.387-0.055-0.583-0.059c-0.021,0-0.042-0.006-0.063-0.006H30.801
		c-1.822,0-3.3,1.478-3.3,3.3v72.449c0,1.822,1.478,3.3,3.3,3.3H89.2c1.822,0,3.3-1.478,3.3-3.3V52.976
		C92.5,52.954,92.494,52.934,92.494,52.912z M81.233,49.676H63.3V31.742L81.233,49.676z M34.101,92.925v-65.85h22.6v25.9
		c0,1.822,1.478,3.3,3.3,3.3h25.9v36.649H34.101z"/>
	<path fill="#006a43" d="M77.731,61.194H42.269c-1.822,0-3.3,1.478-3.3,3.3s1.478,3.3,3.3,3.3h35.463c1.822,0,3.3-1.478,3.3-3.3
		S79.554,61.194,77.731,61.194z"/>
	<path fill="#006a43" d="M77.731,71.275H42.269c-1.822,0-3.3,1.478-3.3,3.3s1.478,3.3,3.3,3.3h35.463c1.822,0,3.3-1.478,3.3-3.3
		S79.554,71.275,77.731,71.275z"/>
	<path fill="#006a43" d="M77.731,81.356h-17.73c-1.822,0-3.3,1.478-3.3,3.3s1.478,3.3,3.3,3.3h17.73c1.822,0,3.3-1.478,3.3-3.3
		S79.554,81.356,77.731,81.356z"/>
</g>
</svg>
