
<svg version="1.1" id="picto_translate" xmlns="http://www.w3.org/2000/svg" xmlns:xlink="http://www.w3.org/1999/xlink" x="0px" y="0px"
	  viewBox="0 0 120 120" enable-background="new 0 0 120 120" xml:space="preserve">
<path fill="#006a43" d="M111.21,30.859c0-0.028-0.01-0.055-0.01-0.083c-0.006-0.203-0.031-0.402-0.072-0.601
	c-0.01-0.04-0.01-0.083-0.021-0.122c-0.059-0.232-0.145-0.457-0.252-0.672c-0.028-0.057-0.067-0.107-0.099-0.164
	c-0.089-0.153-0.187-0.301-0.3-0.44c-0.052-0.063-0.109-0.122-0.166-0.183c-0.112-0.117-0.231-0.226-0.362-0.327
	c-0.042-0.032-0.074-0.075-0.117-0.105c-0.033-0.022-0.07-0.034-0.104-0.056c-0.045-0.029-0.081-0.065-0.127-0.093
	c-0.101-0.06-0.207-0.096-0.312-0.144c-0.073-0.033-0.143-0.072-0.218-0.1c-0.467-0.174-0.953-0.235-1.43-0.193
	c-0.06,0.006-0.117,0.021-0.176,0.028c-0.184,0.026-0.363,0.065-0.539,0.122c-0.035,0.011-0.071,0.012-0.105,0.023
	c-4.901,1.747-9.143,2.598-12.965,2.598h-0.002c-4.701,0-8.085-1.271-11.666-2.616c-3.468-1.303-7.055-2.65-11.602-2.65
	c-3.306,0-6.776,0.731-10.568,2.216c-3.791-1.484-7.26-2.216-10.565-2.216c-4.547,0-8.133,1.348-11.602,2.65
	c-3.582,1.346-6.966,2.616-11.669,2.616c-3.82,0-8.062-0.85-12.965-2.598c-1.012-0.359-2.134-0.207-3.01,0.411
	c-0.877,0.619-1.398,1.625-1.398,2.697v58.125c0,1.782,1.413,3.234,3.18,3.298c5.223,1.773,9.875,2.637,14.192,2.637h0.003
	c5.898,0,10.195-1.613,13.985-3.037c3.185-1.195,5.936-2.229,9.284-2.229c2.553,0,5.33,0.615,8.467,1.878
	c0.047,0.039,0.102,0.068,0.151,0.104c0.063,0.047,0.126,0.092,0.192,0.134c0.107,0.067,0.219,0.126,0.332,0.181
	c0.068,0.033,0.136,0.067,0.207,0.096c0.128,0.051,0.262,0.089,0.396,0.123c0.064,0.017,0.126,0.039,0.191,0.052
	c0.203,0.04,0.413,0.063,0.628,0.063s0.425-0.023,0.628-0.063c0.065-0.013,0.127-0.035,0.191-0.052
	c0.135-0.034,0.269-0.072,0.397-0.123c0.07-0.028,0.137-0.062,0.205-0.096c0.114-0.055,0.226-0.113,0.333-0.181
	c0.066-0.042,0.129-0.087,0.192-0.134c0.05-0.036,0.104-0.065,0.151-0.104c3.137-1.263,5.914-1.878,8.468-1.878
	c3.349,0,6.1,1.033,9.284,2.229c3.791,1.423,8.087,3.036,13.986,3.036c4.318,0,8.971-0.863,14.193-2.637
	c0.057-0.002,0.108-0.018,0.164-0.022c0.136-0.012,0.27-0.026,0.401-0.054c0.08-0.018,0.157-0.041,0.234-0.064
	c0.115-0.033,0.228-0.069,0.338-0.115c0.081-0.033,0.157-0.07,0.234-0.11c0.101-0.052,0.198-0.106,0.294-0.169
	c0.072-0.047,0.143-0.095,0.211-0.147c0.091-0.069,0.176-0.144,0.26-0.223c0.061-0.058,0.121-0.114,0.178-0.177
	c0.079-0.086,0.149-0.179,0.219-0.273c0.049-0.066,0.1-0.133,0.144-0.203c0.062-0.098,0.111-0.202,0.162-0.307
	c0.038-0.079,0.079-0.156,0.112-0.238c0.039-0.104,0.067-0.213,0.098-0.322c0.024-0.091,0.055-0.18,0.072-0.273
	c0.002-0.016,0.009-0.03,0.012-0.046c0.014-0.084,0.01-0.166,0.018-0.249c0.009-0.102,0.029-0.2,0.029-0.304V30.859z M82.373,70.389
	c-2.409-3.082-5.003-6.389-8.825-9.436c2.139,0.385,4.133,1.127,6.303,1.941c3.749,1.408,8.038,3.02,13.977,3.02
	c3.094,0,6.637-0.438,10.783-1.57v6.226c-3.668,0.679-10.038,1.152-17.298-1.415c0,0,7.372,8.585,17.298,10.26v5.555
	C91.443,81.981,87.207,76.573,82.373,70.389z M15.39,55.674c4.146,1.132,7.689,1.57,10.784,1.57c5.938,0,10.228-1.611,13.978-3.02
	c5.093-1.913,9.209-3.442,16.549-0.801v6.432c0,0,0,0.008,0,0.012l0,0c0,0,0,0.006,0,0.008v6.013
	c-8.321-2.392-13.676-0.399-18.869,1.553c-5.812,2.182-11.32,4.249-22.441,0.753V55.674z M104.61,40.725v5.335
	c-3.876,2.94-10.914,7.221-19.79,7.901c0,0,9.847,2.756,19.79-0.285v3.794c-11.118,3.495-16.629,1.43-22.439-0.753
	c-3.727-1.4-7.537-2.821-12.462-2.635c4.515-3.27,9.153-3.896,14.252-4.562C90.512,48.663,97.731,47.711,104.61,40.725z
	 M93.838,36.948c1.835,0,3.738-0.171,5.712-0.486c-5.174,5.034-10.512,5.738-16.445,6.515c-6.246,0.817-13.129,1.726-19.805,7.831
	V33.102c2.055-0.739,3.951-1.178,5.737-1.341v9.617c6.492-3.973,11.278-3.011,17.525-5.3c2.155,0.515,4.536,0.869,7.272,0.869
	H93.838z M26.163,36.948c5.902,0,10.198-1.614,13.989-3.038c3.184-1.195,5.934-2.228,9.281-2.228c2.223,0,4.615,0.466,7.267,1.419
	v13.394c-8.322-2.391-13.678-0.398-18.869,1.552c-5.812,2.183-11.324,4.248-22.441,0.753V35.365
	C19.256,36.427,22.811,36.948,26.163,36.948z M37.831,85.703c-3.582,1.346-6.966,2.616-11.667,2.616c-0.001,0-0.001,0-0.001,0
	c-3.24,0-6.782-0.611-10.773-1.862V75.068c4.146,1.132,7.689,1.57,10.784,1.57c5.938,0,10.229-1.611,13.978-3.02
	c5.092-1.911,9.207-3.441,16.549-0.8v11.32c-2.54-0.729-4.942-1.086-7.266-1.086C44.888,83.053,41.3,84.401,37.831,85.703z
	 M76.807,83.899c-4.901-5.646-7.77-11.98-7.77-11.98v11.193c-1.848,0.122-3.749,0.457-5.737,1.027V70.592V70.58v-8.284
	c6.975,3.355,10.35,7.65,13.874,12.158c3.914,5.008,7.927,10.131,16.371,13.855c-4.546-0.053-7.868-1.289-11.374-2.605
	C80.446,85.056,78.692,84.398,76.807,83.899z"/>
</svg>
