
<svg version="1.1" id="picto_outstaff" xmlns="http://www.w3.org/2000/svg" xmlns:xlink="http://www.w3.org/1999/xlink" x="0px" y="0px"
	  viewBox="0 0 120 120" enable-background="new 0 0 120 120" xml:space="preserve">
<text transform="matrix(1 0 0 1 7.1079 13.5215)" opacity="0">outstaff</text>
<g>
	<path fill="#006a43" d="M72.209,64.006c3.341-3.106,5.446-7.525,5.446-12.437V37.861c0-9.378-7.628-17.008-17.004-17.008
		c-9.379,0-17.009,7.63-17.009,17.008v13.708c0,4.912,2.105,9.33,5.447,12.438c-13.003,4.734-22.315,17.219-22.315,31.839
		c0,1.822,1.478,3.3,3.3,3.3h20.438c0,0,0.007,0.001,0.011,0.001l0.013-0.001h20.229l0.013,0.001l0.011-0.001h20.438
		c0.008,0,0.015,0,0.02,0c1.823,0,3.301-1.478,3.301-3.3c0-0.13-0.008-0.258-0.022-0.385C94.359,81.009,85.099,68.7,72.209,64.006z
		 M59.137,82.097h3.025l3.872,10.449h-10.77L59.137,82.097z M62.51,75.497h-3.721l-3.52-6.386c1.739-0.349,3.536-0.537,5.377-0.537
		c1.843,0,3.642,0.188,5.383,0.539L62.51,75.497z M50.242,37.861c0-5.739,4.67-10.408,10.409-10.408
		c5.737,0,10.404,4.669,10.404,10.408v13.708c0,5.737-4.667,10.405-10.404,10.405c-5.739,0-10.409-4.668-10.409-10.405V37.861z
		 M48.906,71.239l4.314,7.827l-4.995,13.479H33.572C34.714,83.129,40.676,75.183,48.906,71.239z M73.073,92.546l-4.995-13.479
		l4.313-7.826c8.231,3.943,14.194,11.891,15.335,21.306H73.073z"/>
	<path fill="#006a43" d="M103.74,28.827l-12.457-0.96c-0.05-0.004-0.098,0.002-0.146,0.001c-0.076-0.003-0.152-0.002-0.229,0.001
		c-0.129,0.005-0.254,0.018-0.379,0.036c-0.067,0.011-0.135,0.02-0.202,0.034c-0.157,0.033-0.31,0.08-0.459,0.136
		c-0.032,0.013-0.065,0.02-0.098,0.032c-0.19,0.078-0.371,0.174-0.543,0.286c-0.021,0.013-0.038,0.03-0.058,0.044
		c-0.15,0.102-0.29,0.217-0.421,0.343c-0.017,0.017-0.037,0.027-0.054,0.044c-0.021,0.021-0.034,0.046-0.055,0.066
		c-0.105,0.113-0.203,0.232-0.294,0.36c-0.034,0.049-0.071,0.096-0.103,0.146c-0.081,0.129-0.15,0.266-0.214,0.406
		c-0.021,0.045-0.048,0.088-0.065,0.135l-0.004,0.007l-4.27,10.8c-0.671,1.694,0.16,3.611,1.855,4.281
		c0.398,0.158,0.809,0.232,1.212,0.232c1.314,0,2.558-0.791,3.069-2.088l2.194-5.549c2.528,3.931,3.891,8.506,3.891,13.293
		c0,6.583-2.563,12.772-7.217,17.427c-1.289,1.288-1.289,3.378,0,4.666c0.645,0.645,1.488,0.967,2.333,0.967
		s1.689-0.322,2.333-0.967c5.9-5.9,9.15-13.746,9.15-22.093c0-5.684-1.511-11.133-4.335-15.896l5.055,0.39
		c1.813,0.154,3.403-1.218,3.544-3.036C106.916,30.554,105.557,28.967,103.74,28.827z"/>
	<path fill="#006a43" d="M28.972,73.974L28.972,73.974L28.972,73.974h0.002c0.194,0,0.385-0.021,0.572-0.055
		c0.059-0.011,0.115-0.026,0.173-0.04c0.133-0.031,0.262-0.068,0.389-0.115c0.062-0.023,0.125-0.047,0.186-0.073
		c0.142-0.062,0.276-0.134,0.407-0.214c0.035-0.021,0.072-0.038,0.106-0.062c0.163-0.108,0.313-0.235,0.455-0.372
		c0.014-0.014,0.031-0.022,0.045-0.036c0.026-0.026,0.045-0.059,0.07-0.086c0.1-0.106,0.193-0.221,0.279-0.342
		c0.037-0.053,0.075-0.104,0.109-0.159c0.08-0.129,0.15-0.266,0.214-0.406c0.019-0.041,0.042-0.078,0.058-0.119
		c0,0,0.003-0.005,0.004-0.008l4.27-10.799c0.671-1.694-0.16-3.611-1.855-4.281c-1.691-0.674-3.611,0.161-4.281,1.855l-2.194,5.548
		c-2.529-3.931-3.891-8.507-3.891-13.294c0-6.583,2.562-12.771,7.217-17.426c1.289-1.288,1.289-3.378,0-4.666
		c-1.287-1.289-3.379-1.289-4.666,0c-5.901,5.9-9.151,13.746-9.151,22.092c0,5.684,1.51,11.134,4.336,15.896l-5.056-0.39
		c-1.819-0.137-3.403,1.219-3.544,3.036s1.219,3.404,3.036,3.544l12.458,0.961C28.805,73.971,28.889,73.974,28.972,73.974z"/>
</g>
</svg>
