
<svg version="1.1" id="picto_low" xmlns="http://www.w3.org/2000/svg" xmlns:xlink="http://www.w3.org/1999/xlink" x="0px" y="0px"
	  viewBox="0 0 120 120" enable-background="new 0 0 120 120" xml:space="preserve">
	  	 <text transform="matrix(1 0 0 1 7.1079 13.5215)" opacity="0">transport</text>
<path fill="#006a43" d="M109.844,66.317c0.015-0.048,0.03-0.096,0.044-0.145c0.047-0.177,0.085-0.354,0.102-0.534
	c0.001-0.009,0-0.019,0.001-0.027c0.015-0.173,0.012-0.346-0.002-0.519c-0.004-0.057-0.011-0.111-0.019-0.167
	c-0.019-0.146-0.048-0.289-0.088-0.432c-0.01-0.039-0.018-0.081-0.03-0.121c-0.049-0.153-0.107-0.306-0.182-0.453
	c-0.011-0.023-0.027-0.043-0.039-0.066c-0.008-0.015-0.012-0.031-0.019-0.046L93.225,33.893c-0.337-0.689-0.904-1.224-1.6-1.521
	c-0.022-0.009-0.045-0.018-0.068-0.026c-0.186-0.075-0.379-0.131-0.58-0.169c-0.077-0.016-0.154-0.033-0.234-0.042
	c-0.084-0.011-0.168-0.014-0.253-0.017c-0.045-0.002-0.089-0.01-0.134-0.01c-0.091,0-0.181,0.011-0.271,0.018
	c-0.035,0.004-0.07-0.002-0.106,0.003c-3.572,0.441-6.152-0.102-9.139-0.734c-3.159-0.666-6.738-1.423-11.548-0.827
	c-1.009,0.125-1.974,0.358-2.893,0.653c0.082-0.689,0.138-1.385,0.138-2.093c0-4.582-1.747-8.838-4.794-11.677
	c-1.225-1.143-3.127-1.143-4.351,0c-3.047,2.839-4.795,7.095-4.795,11.677c0,1.411,0.184,2.783,0.502,4.101
	c-1.437-0.219-2.973-0.29-4.543-0.095c-4.804,0.595-8.092,2.2-10.992,3.616c-2.745,1.339-5.116,2.497-8.692,2.938
	c-1.569,0.194-2.722,1.498-2.789,3.026L10.389,71.361c-0.008,0.015-0.01,0.029-0.018,0.044c-0.013,0.024-0.029,0.045-0.042,0.069
	c-0.074,0.148-0.132,0.301-0.181,0.455c-0.012,0.037-0.018,0.074-0.028,0.111c-0.041,0.146-0.071,0.294-0.091,0.443
	c-0.007,0.054-0.013,0.107-0.017,0.16c-0.014,0.178-0.018,0.354-0.003,0.532c0.001,0.005,0,0.01,0.001,0.015
	c0.017,0.182,0.055,0.361,0.102,0.538c0.013,0.048,0.028,0.094,0.043,0.14c0.044,0.139,0.098,0.273,0.162,0.405
	c0.019,0.04,0.035,0.079,0.056,0.117c0.079,0.149,0.166,0.294,0.27,0.431c0.011,0.014,0.022,0.026,0.032,0.04
	c0.008,0.011,0.016,0.021,0.024,0.03c4.551,5.963,11.451,9.383,18.946,9.383c7.496,0,14.395-3.42,18.945-9.383
	c0.007-0.01,0.015-0.02,0.022-0.028c0.011-0.016,0.023-0.027,0.033-0.042c0.104-0.136,0.191-0.281,0.27-0.429
	c0.021-0.04,0.037-0.081,0.057-0.121c0.062-0.13,0.115-0.265,0.16-0.4c0.016-0.048,0.031-0.095,0.044-0.145
	c0.047-0.176,0.085-0.354,0.102-0.535c0.001-0.008,0-0.016,0.001-0.021c0.015-0.174,0.011-0.349-0.002-0.522
	c-0.004-0.057-0.011-0.112-0.019-0.168c-0.019-0.146-0.048-0.289-0.088-0.432c-0.011-0.04-0.018-0.081-0.03-0.12
	c-0.049-0.154-0.108-0.307-0.182-0.454c-0.011-0.023-0.027-0.043-0.04-0.065c-0.007-0.016-0.01-0.031-0.019-0.047L34.448,44.979
	c2.273-0.719,4.167-1.641,5.916-2.494c2.69-1.313,5.23-2.553,8.976-3.017c2.306-0.284,4.625,0.37,6.299,1.048
	c-2.622,6.555-4.103,15.5-4.103,25.055c0,8.798,1.255,17.079,3.5,23.455c-9.286,0.763-17.704,3.849-23.568,8.736
	c-1.032,0.86-1.415,2.275-0.957,3.54c0.457,1.263,1.657,2.104,3.001,2.104h52.111c1.344,0,2.544-0.842,3.001-2.104
	c0.458-1.265,0.074-2.68-0.957-3.539c-5.864-4.889-14.282-7.975-23.568-8.737c2.245-6.374,3.499-14.656,3.499-23.455
	c0-9.744-1.541-18.843-4.258-25.43c1.411-1.169,3.9-2.888,6.736-3.24c3.75-0.463,6.516,0.119,9.445,0.739
	c1.65,0.349,3.426,0.715,5.418,0.902L71.099,63.808c-0.007,0.015-0.011,0.031-0.019,0.046c-0.013,0.023-0.028,0.043-0.04,0.066
	c-0.073,0.147-0.132,0.3-0.181,0.453c-0.013,0.04-0.021,0.082-0.03,0.121c-0.04,0.143-0.069,0.286-0.088,0.431
	c-0.008,0.057-0.015,0.111-0.02,0.168c-0.013,0.173-0.016,0.346-0.002,0.519c0.001,0.009,0,0.019,0.001,0.027
	c0.018,0.18,0.056,0.357,0.103,0.533c0.013,0.05,0.029,0.099,0.045,0.146c0.044,0.135,0.097,0.268,0.159,0.397
	c0.019,0.042,0.036,0.083,0.058,0.124c0.078,0.148,0.167,0.292,0.27,0.429c0.011,0.014,0.022,0.025,0.031,0.039
	c0.009,0.01,0.018,0.021,0.025,0.031c4.551,5.962,11.45,9.381,18.944,9.381s14.394-3.419,18.943-9.381
	c0.009-0.011,0.018-0.021,0.025-0.031c0.01-0.014,0.021-0.025,0.031-0.039c0.104-0.137,0.192-0.28,0.271-0.43
	c0.021-0.04,0.039-0.081,0.058-0.123C109.746,66.586,109.799,66.453,109.844,66.317z M29.646,49.499l11.068,20.205H18.576
	L29.646,49.499z M29.646,77.892c-2.749,0-5.389-0.628-7.758-1.805h15.515C35.034,77.264,32.395,77.892,29.646,77.892z
	 M59.567,49.532c1.06,4.768,1.646,10.318,1.646,16.039c0,5.718-0.587,11.268-1.646,16.036c-1.062-4.77-1.648-10.318-1.648-16.036
	C57.919,59.852,58.506,54.301,59.567,49.532z M59.567,25.582c0.381,1.1,0.586,2.307,0.586,3.545s-0.206,2.445-0.586,3.547
	c-0.381-1.102-0.586-2.309-0.586-3.547S59.187,26.682,59.567,25.582z M46.685,97.023c3.977-1.171,8.376-1.805,12.882-1.805
	s8.906,0.634,12.883,1.805H46.685z M101.424,62.149H79.287l11.068-20.207L101.424,62.149z M90.355,70.337
	c-2.748,0-5.388-0.628-7.756-1.805h15.512C95.743,69.709,93.104,70.337,90.355,70.337z"/>
</svg>
