
<svg version="1.1" xmlns="http://www.w3.org/2000/svg" xmlns:xlink="http://www.w3.org/1999/xlink" x="0px" y="0px"
viewBox="0 0 120 120" enable-background="new 0 0 120 120" xml:space="preserve">
<text transform="matrix(1 0 0 1 7.1079 13.5215)" opacity="0">buhgalter</text>
<path fill="#006a43" d="M91.7,17.374H28.3c-1.822,0-3.3,1.478-3.3,3.3v78.652c0,1.822,1.478,3.3,3.3,3.3H91.7
	c1.822,0,3.3-1.478,3.3-3.3V20.674C95,18.852,93.522,17.374,91.7,17.374z M88.4,23.974v9.76H70.31
	c-0.327-4.464-4.055-7.998-8.6-7.998s-8.273,3.534-8.601,7.998h-1.863c-0.327-4.464-4.056-7.998-8.602-7.998
	s-8.273,3.534-8.601,7.998H31.6v-9.76H88.4z M78.685,78.984c-0.326-4.464-4.055-7.999-8.601-7.999s-8.272,3.535-8.6,7.999H51.247
	c-0.327-4.464-4.055-7.999-8.602-7.999c-4.546,0-8.274,3.535-8.601,7.999H31.6V63.116h13.727c0.327,4.464,4.054,7.998,8.6,7.998
	s8.274-3.534,8.601-7.998h6.412c0.326,4.464,4.055,7.998,8.601,7.998s8.274-3.534,8.601-7.998h2.26v15.868H78.685z M72.118,79.618
	v5.333c0,1.121-0.912,2.033-2.033,2.033c-1.12,0-2.032-0.912-2.032-2.033v-5.333c0-1.121,0.912-2.033,2.032-2.033
	C71.206,77.585,72.118,78.497,72.118,79.618z M44.679,79.618v5.333c0,1.121-0.912,2.033-2.034,2.033
	c-1.121,0-2.033-0.912-2.033-2.033v-5.333c0-1.121,0.912-2.033,2.033-2.033C43.767,77.585,44.679,78.497,44.679,79.618z
	 M51.894,62.482v-5.333c0-1.121,0.912-2.033,2.032-2.033c1.121,0,2.033,0.912,2.033,2.033v5.333c0,1.12-0.912,2.032-2.033,2.032
	C52.806,64.515,51.894,63.603,51.894,62.482z M75.506,62.482v-5.333c0-1.121,0.912-2.033,2.033-2.033s2.033,0.912,2.033,2.033v5.333
	c0,1.12-0.912,2.032-2.033,2.032S75.506,63.603,75.506,62.482z M86.14,56.517c-0.326-4.464-4.055-8-8.601-8s-8.274,3.536-8.601,8
	h-6.412c-0.326-4.464-4.055-8-8.601-8s-8.273,3.536-8.6,8H31.6V40.333h2.444c0.326,4.465,4.055,8,8.601,8
	c4.548,0,8.276-3.535,8.602-8h1.863c0.325,4.465,4.054,8,8.601,8s8.274-3.535,8.6-8H88.4v16.184H86.14z M40.612,39.701v-5.333
	c0-1.121,0.912-2.033,2.033-2.033c1.122,0,2.034,0.912,2.034,2.033v5.333c0,1.12-0.912,2.032-2.034,2.032
	C41.524,41.733,40.612,40.821,40.612,39.701z M59.677,39.701v-5.333c0-1.121,0.912-2.033,2.033-2.033
	c1.12,0,2.032,0.912,2.032,2.033v5.333c0,1.12-0.912,2.032-2.032,2.032C60.589,41.733,59.677,40.821,59.677,39.701z M31.6,96.026
	V85.584h2.444c0.326,4.465,4.055,8,8.601,8c4.547,0,8.275-3.535,8.602-8h10.238c0.326,4.465,4.054,8,8.6,8s8.274-3.535,8.601-8H88.4
	v10.442H31.6z"/>
</svg>
