
<svg version="1.1" id="picto_transport" xmlns="http://www.w3.org/2000/svg" xmlns:xlink="http://www.w3.org/1999/xlink" x="0px" y="0px"
	  viewBox="0 0 120 120" enable-background="new 0 0 120 120" xml:space="preserve">
<path fill="#006a43" d="M118.461,70.86c0-4.838-3.181-8.943-7.559-10.344v-1.152c0-1.822-1.478-3.3-3.3-3.3H85.07l-9.45-19.428
	c-0.553-1.136-1.705-1.856-2.968-1.856h-8.324l-1.43-8.897c-0.257-1.6-1.638-2.776-3.258-2.776h-7.605
	c-1.62,0-3.001,1.176-3.258,2.775l-1.432,8.898h-7.555c-1.263,0-2.415,0.721-2.968,1.856l-9.452,19.428H4.838
	c-1.822,0-3.3,1.478-3.3,3.3v23.874c0,1.822,1.478,3.3,3.3,3.3h11.363c1.481,5.938,6.845,10.355,13.233,10.355
	c6.39,0,11.754-4.418,13.235-10.355h27.102c1.481,5.938,6.845,10.355,13.233,10.355c6.39,0,11.754-4.418,13.235-10.355h11.362
	c1.822,0,3.3-1.478,3.3-3.3v-2.036C115.281,79.802,118.461,75.697,118.461,70.86z M77.73,56.064H59.136V41.38h11.451L77.73,56.064z
	 M54.846,29.706h1.982l0.815,5.074H54.03L54.846,29.706z M41.855,41.38h10.682v14.685H34.71L41.855,41.38z M29.435,90.294
	c-3.89,0-7.054-3.165-7.054-7.056c0-3.89,3.164-7.054,7.054-7.054c3.891,0,7.056,3.164,7.056,7.054
	C36.491,87.129,33.326,90.294,29.435,90.294z M29.435,69.585c-6.389,0-11.752,4.417-13.233,10.354H8.138V62.664h21.297h23.102
	v17.274H42.67C41.188,74.002,35.825,69.585,29.435,69.585z M83.005,90.294c-3.89,0-7.054-3.165-7.054-7.056
	c0-3.89,3.164-7.054,7.054-7.054c3.891,0,7.056,3.164,7.056,7.054C90.061,87.129,86.896,90.294,83.005,90.294z M104.303,79.938
	h-8.062c-1.482-5.937-6.846-10.354-13.235-10.354c-6.389,0-11.752,4.417-13.233,10.354H59.136V62.664h23.869h21.298V79.938z
	 M110.903,73.52V68.2c0.591,0.731,0.959,1.648,0.959,2.66C111.862,71.871,111.494,72.788,110.903,73.52z"/>
</svg>
