
<svg version="1.1" id="picto_migrate" xmlns="http://www.w3.org/2000/svg" xmlns:xlink="http://www.w3.org/1999/xlink" x="0px" y="0px"
	 viewBox="0 0 120 120" enable-background="new 0 0 120 120" xml:space="preserve">
	 	 <text transform="matrix(1 0 0 1 7.1079 13.5215)" opacity="0">migrate</text>
<path fill="#006a43" d="M103.377,33.725H72.601c-0.083-6.881-5.699-12.454-12.599-12.454c-6.901,0-12.52,5.573-12.603,12.454H16.623
	c-1.822,0-3.3,1.478-3.3,3.3v49.179c0,1.822,1.478,3.3,3.3,3.3h9.136c0.792,5.214,5.291,9.227,10.723,9.227
	s9.931-4.013,10.723-9.227h26.742c0.792,5.214,5.291,9.227,10.723,9.227s9.933-4.013,10.725-9.227h7.984c1.822,0,3.3-1.478,3.3-3.3
	V37.024C106.677,35.202,105.2,33.725,103.377,33.725z M36.481,92.13c-1.02,0-1.955-0.359-2.689-0.959h5.379
	C38.436,91.771,37.5,92.13,36.481,92.13z M84.668,92.13c-1.02,0-1.955-0.359-2.689-0.959h5.38
	C86.625,91.771,85.688,92.13,84.668,92.13z M60.002,27.87c3.261,0,5.917,2.613,5.999,5.854H54
	C54.083,30.483,56.74,27.87,60.002,27.87z M100.078,82.903H19.922V40.324h46.087V62.48c0,1.447-1.177,2.624-2.624,2.624
	c-1.445,0-2.622-1.177-2.622-2.624V46.488c0-1.822-1.478-3.3-3.3-3.3s-3.3,1.478-3.3,3.3V62.48c0,5.086,4.137,9.224,9.222,9.224
	c5.086,0,9.224-4.138,9.224-9.224V40.324h27.469V82.903z"/>
</svg>
