<?xml version="1.0" encoding="utf-8"?>
<!-- Generator: Adobe Illustrator 15.1.0, SVG Export Plug-In . SVG Version: 6.00 Build 0)  -->
<!DOCTYPE svg PUBLIC "-//W3C//DTD SVG 1.1//EN" "http://www.w3.org/Graphics/SVG/1.1/DTD/svg11.dtd">
<svg version="1.1" id="Layer_1" xmlns="http://www.w3.org/2000/svg" xmlns:xlink="http://www.w3.org/1999/xlink" x="0px" y="0px"
	 width="108.188px" height="89.576px" viewBox="0 0 108.188 89.576" enable-background="new 0 0 108.188 89.576"
	 xml:space="preserve">
<path fill="#006a43" d="M104.888,14.583H68.294v-0.385C68.294,6.37,61.925,0,54.097,0c-7.832,0-14.203,6.37-14.203,14.199
	c0,0.132,0.024,0.257,0.039,0.385H3.3c-1.822,0-3.3,1.478-3.3,3.3v57.588c0,1.822,1.478,3.3,3.3,3.3h11.182
	c0.672,6.068,5.827,10.805,12.072,10.805s11.399-4.736,12.072-10.805h32.284c0.672,6.068,5.826,10.805,12.07,10.805
	c6.246,0,11.402-4.736,12.074-10.805h9.834c1.822,0,3.3-1.478,3.3-3.3V17.883C108.188,16.061,106.71,14.583,104.888,14.583z
	 M26.553,82.977c-1.826,0-3.449-0.886-4.461-2.251h8.922C30.002,82.091,28.379,82.977,26.553,82.977z M82.979,82.977
	c-1.825,0-3.448-0.886-4.461-2.251h8.924C86.431,82.091,84.807,82.977,82.979,82.977z M46.494,14.199
	c0-4.19,3.411-7.599,7.603-7.599c4.189,0,7.598,3.409,7.598,7.599v0.385H46.455C46.47,14.456,46.494,14.331,46.494,14.199z
	 M101.588,72.172H6.6V21.183h55.095v26.51c0,2.005-1.631,3.637-3.637,3.637c-2.004,0-3.635-1.632-3.635-3.637V28.965
	c0-1.822-1.478-3.3-3.3-3.3s-3.3,1.478-3.3,3.3v18.728c0,5.645,4.591,10.236,10.234,10.236c5.645,0,10.236-4.592,10.236-10.236
	v-26.51h33.294V72.172z"/>
</svg>
