<?xml version="1.0" encoding="utf-8"?>
<!-- Generator: Adobe Illustrator 15.1.0, SVG Export Plug-In . SVG Version: 6.00 Build 0)  -->
<!DOCTYPE svg PUBLIC "-//W3C//DTD SVG 1.1//EN" "http://www.w3.org/Graphics/SVG/1.1/DTD/svg11.dtd">
<svg version="1.1" id="Layer_1" xmlns="http://www.w3.org/2000/svg" xmlns:xlink="http://www.w3.org/1999/xlink" x="0px" y="0px"
	 width="73.938px" height="90.141px" viewBox="0 0 73.938 90.141" enable-background="new 0 0 73.938 90.141" xml:space="preserve">
<g>
	<path fill="#006a43" d="M73.933,36.906c-0.004-0.196-0.02-0.391-0.058-0.583c-0.001,0-0.001-0.001-0.001-0.002
		c-0.038-0.188-0.098-0.372-0.168-0.552c-0.021-0.052-0.044-0.102-0.066-0.152c-0.06-0.132-0.128-0.26-0.205-0.384
		c-0.03-0.047-0.058-0.095-0.09-0.141c-0.11-0.16-0.232-0.314-0.373-0.456l-33.67-33.67c-0.142-0.141-0.296-0.263-0.456-0.374
		c-0.045-0.031-0.092-0.058-0.138-0.087c-0.126-0.079-0.256-0.148-0.391-0.208c-0.048-0.021-0.096-0.044-0.145-0.063
		c-0.365-0.144-0.752-0.221-1.146-0.228C37.008,0.005,36.988,0,36.969,0H3.3C1.478,0,0,1.478,0,3.3v83.541
		c0,1.822,1.478,3.3,3.3,3.3h67.339c1.822,0,3.3-1.478,3.3-3.3V36.97C73.938,36.949,73.933,36.928,73.933,36.906z M62.672,33.67
		H40.269V11.267L62.672,33.67z M6.6,83.541V6.6h27.069V36.97c0,1.822,1.478,3.3,3.3,3.3h30.37v43.271H6.6z"/>
	<path fill="#006a43" d="M57.414,46.953H16.522c-1.822,0-3.3,1.478-3.3,3.3s1.478,3.3,3.3,3.3h40.892c1.822,0,3.3-1.478,3.3-3.3
		S59.236,46.953,57.414,46.953z"/>
	<path fill="#006a43" d="M57.414,58.578H16.522c-1.822,0-3.3,1.478-3.3,3.3s1.478,3.3,3.3,3.3h40.892c1.822,0,3.3-1.478,3.3-3.3
		S59.236,58.578,57.414,58.578z"/>
	<path fill="#006a43" d="M57.414,70.201H36.97c-1.822,0-3.3,1.478-3.3,3.3s1.478,3.3,3.3,3.3h20.444c1.822,0,3.3-1.478,3.3-3.3
		S59.236,70.201,57.414,70.201z"/>
</g>
</svg>
