<?xml version="1.0" encoding="utf-8"?>
<!-- Generator: Adobe Illustrator 15.1.0, SVG Export Plug-In . SVG Version: 6.00 Build 0)  -->
<!DOCTYPE svg PUBLIC "-//W3C//DTD SVG 1.1//EN" "http://www.w3.org/Graphics/SVG/1.1/DTD/svg11.dtd">
<svg version="1.1" id="Layer_1" xmlns="http://www.w3.org/2000/svg" xmlns:xlink="http://www.w3.org/1999/xlink" x="0px" y="0px"
	 viewBox="0 0 116.923 73.787" enable-background="new 0 0 116.923 73.787"
	 xml:space="preserve">
<path fill="none" stroke="#016635" stroke-width="6" stroke-linecap="round" stroke-linejoin="round" stroke-miterlimit="10" d="
	M106.064,40.193c4.173,0,7.559,3.385,7.559,7.561c0,4.174-3.386,7.559-7.559,7.559"/>
<g>
	
		<line fill="none" stroke="#016635" stroke-width="6" stroke-linejoin="round" stroke-miterlimit="10" x1="38.252" y1="60.132" x2="71.622" y2="60.132"/>
	
		<circle fill="none" stroke="#016635" stroke-width="6" stroke-linecap="round" stroke-linejoin="round" stroke-miterlimit="10" cx="81.468" cy="60.132" r="10.354"/>
	
		<circle fill="none" stroke="#016635" stroke-width="6" stroke-linecap="round" stroke-linejoin="round" stroke-miterlimit="10" cx="27.897" cy="60.132" r="10.354"/>
	
		<polyline fill="none" stroke="#016635" stroke-width="6" stroke-linecap="round" stroke-linejoin="round" stroke-miterlimit="10" points="
		91.822,60.132 106.064,60.132 106.064,36.258 81.467,36.258 71.113,14.974 38.252,14.974 27.896,36.258 3.3,36.258 3.3,60.132 
		17.543,60.132 	"/>
	
		<polyline fill="none" stroke="#016635" stroke-width="6" stroke-linecap="round" stroke-linejoin="round" stroke-miterlimit="10" points="
		59.95,14.8 58.102,3.3 50.496,3.3 48.646,14.8 	"/>
	
		<line fill="none" stroke="#016635" stroke-width="6" stroke-linecap="round" stroke-linejoin="round" stroke-miterlimit="10" x1="54.298" y1="14.974" x2="54.298" y2="60.132"/>
	
		<line fill="none" stroke="#016635" stroke-width="6" stroke-linecap="round" stroke-linejoin="round" stroke-miterlimit="10" x1="27.896" y1="36.258" x2="81.467" y2="36.258"/>
</g>
</svg>
