<?xml version="1.0" encoding="utf-8"?>
<!-- Generator: Adobe Illustrator 15.1.0, SVG Export Plug-In . SVG Version: 6.00 Build 0)  -->
<!DOCTYPE svg PUBLIC "-//W3C//DTD SVG 1.1//EN" "http://www.w3.org/Graphics/SVG/1.1/DTD/svg11.dtd">
<svg version="1.1" id="Layer_1" xmlns="http://www.w3.org/2000/svg" xmlns:xlink="http://www.w3.org/1999/xlink" x="0px" y="0px"
	 width="69.999px" height="85.252px" viewBox="0 0 69.999 85.252" enable-background="new 0 0 69.999 85.252" xml:space="preserve">
<g>
	<g>
		
			<rect x="3.3" y="3.3" fill="none" stroke="#016635" stroke-width="6.5997" stroke-linecap="round" stroke-linejoin="round" stroke-miterlimit="10" width="63.399" height="78.652"/>
	</g>
	
		<path fill="none" stroke="#016635" stroke-width="6.5997" stroke-linecap="round" stroke-linejoin="round" stroke-miterlimit="10" d="
		M22.979,16.994c0-2.946-2.389-5.333-5.334-5.333s-5.333,2.387-5.333,5.333c0,0.972,0,4.36,0,5.333c0,2.945,2.388,5.332,5.333,5.332
		s5.334-2.387,5.334-5.332C22.979,21.354,22.979,17.966,22.979,16.994z"/>
	
		<path fill="none" stroke="#016635" stroke-width="6.5997" stroke-linecap="round" stroke-linejoin="round" stroke-miterlimit="10" d="
		M42.042,16.994c0-2.946-2.387-5.333-5.332-5.333s-5.333,2.387-5.333,5.333c0,0.972,0,4.36,0,5.333c0,2.945,2.388,5.332,5.333,5.332
		s5.332-2.387,5.332-5.332C42.042,21.354,42.042,17.966,42.042,16.994z"/>
	
		<line fill="none" stroke="#016635" stroke-width="6.5997" stroke-linejoin="round" stroke-miterlimit="10" x1="3.3" y1="19.659" x2="12.312" y2="19.659"/>
	
		<line fill="none" stroke="#016635" stroke-width="6.5997" stroke-linejoin="round" stroke-miterlimit="10" x1="22.979" y1="19.659" x2="31.377" y2="19.659"/>
	
		<line fill="none" stroke="#016635" stroke-width="6.5997" stroke-linejoin="round" stroke-miterlimit="10" x1="42.042" y1="19.659" x2="66.699" y2="19.659"/>
	
		<path fill="none" stroke="#016635" stroke-width="6.5997" stroke-linecap="round" stroke-linejoin="round" stroke-miterlimit="10" d="
		M22.979,62.244c0-2.944-2.389-5.333-5.334-5.333s-5.333,2.389-5.333,5.333c0,0.973,0,4.36,0,5.333c0,2.945,2.388,5.333,5.333,5.333
		s5.334-2.388,5.334-5.333C22.979,66.604,22.979,63.217,22.979,62.244z"/>
	
		<path fill="none" stroke="#016635" stroke-width="6.5997" stroke-linecap="round" stroke-linejoin="round" stroke-miterlimit="10" d="
		M50.417,62.244c0-2.944-2.388-5.333-5.333-5.333c-2.944,0-5.332,2.389-5.332,5.333c0,0.973,0,4.36,0,5.333
		c0,2.945,2.388,5.333,5.332,5.333c2.945,0,5.333-2.388,5.333-5.333C50.417,66.604,50.417,63.217,50.417,62.244z"/>
	
		<line fill="none" stroke="#016635" stroke-width="6.5997" stroke-linejoin="round" stroke-miterlimit="10" x1="3.3" y1="64.91" x2="12.312" y2="64.91"/>
	
		<line fill="none" stroke="#016635" stroke-width="6.5997" stroke-linejoin="round" stroke-miterlimit="10" x1="22.979" y1="64.91" x2="39.752" y2="64.91"/>
	
		<line fill="none" stroke="#016635" stroke-width="6.5997" stroke-linejoin="round" stroke-miterlimit="10" x1="50.417" y1="64.91" x2="66.699" y2="64.91"/>
	
		<path fill="none" stroke="#016635" stroke-width="6.5997" stroke-linecap="round" stroke-linejoin="round" stroke-miterlimit="10" d="
		M34.259,39.775c0-2.944-2.388-5.333-5.333-5.333c-2.944,0-5.332,2.389-5.332,5.333c0,0.973,0,4.36,0,5.333
		c0,2.945,2.388,5.332,5.332,5.332c2.945,0,5.333-2.387,5.333-5.332C34.259,44.136,34.259,40.748,34.259,39.775z"/>
	
		<path fill="none" stroke="#016635" stroke-width="6.5997" stroke-linecap="round" stroke-linejoin="round" stroke-miterlimit="10" d="
		M57.872,39.775c0-2.944-2.388-5.333-5.333-5.333s-5.333,2.389-5.333,5.333c0,0.973,0,4.36,0,5.333c0,2.945,2.388,5.332,5.333,5.332
		s5.333-2.387,5.333-5.332C57.872,44.136,57.872,40.748,57.872,39.775z"/>
	
		<line fill="none" stroke="#016635" stroke-width="6.5997" stroke-linejoin="round" stroke-miterlimit="10" x1="3.3" y1="42.442" x2="23.594" y2="42.442"/>
	
		<line fill="none" stroke="#016635" stroke-width="6.5997" stroke-linejoin="round" stroke-miterlimit="10" x1="34.259" y1="42.442" x2="47.206" y2="42.442"/>
	
		<line fill="none" stroke="#016635" stroke-width="6.5997" stroke-linejoin="round" stroke-miterlimit="10" x1="57.872" y1="42.442" x2="66.699" y2="42.442"/>
</g>
</svg>
