<?xml version="1.0" encoding="utf-8"?>
<!-- Generator: Adobe Illustrator 15.1.0, SVG Export Plug-In . SVG Version: 6.00 Build 0)  -->
<!DOCTYPE svg PUBLIC "-//W3C//DTD SVG 1.1//EN" "http://www.w3.org/Graphics/SVG/1.1/DTD/svg11.dtd">
<svg version="1.1" id="Layer_1" xmlns="http://www.w3.org/2000/svg" xmlns:xlink="http://www.w3.org/1999/xlink" x="0px" y="0px"
	 width="117.059px" height="88.786px" viewBox="0 0 117.059 88.786" enable-background="new 0 0 117.059 88.786"
	 xml:space="preserve">
<path fill="#006a43" d="M117.059,82.021c0-0.003,0-0.007,0-0.01V44.25c0-0.002,0-0.005,0-0.007V6.519
	c0-0.046-0.016-0.089-0.018-0.134c-0.007-0.177-0.029-0.35-0.064-0.521c-0.015-0.075-0.026-0.15-0.047-0.224
	c-0.059-0.208-0.135-0.41-0.232-0.604c-0.012-0.024-0.019-0.05-0.031-0.074c-0.115-0.215-0.258-0.415-0.42-0.603
	c-0.043-0.049-0.094-0.091-0.139-0.137c-0.127-0.13-0.263-0.25-0.412-0.359c-0.033-0.023-0.057-0.055-0.09-0.078
	c-0.041-0.028-0.088-0.041-0.131-0.067c-0.066-0.041-0.123-0.09-0.191-0.126c-0.082-0.042-0.168-0.065-0.252-0.1
	c-0.081-0.034-0.16-0.07-0.244-0.097c-0.18-0.06-0.363-0.099-0.547-0.126c-0.057-0.008-0.109-0.025-0.166-0.03
	c-0.246-0.023-0.492-0.02-0.733,0.011c-0.05,0.006-0.097,0.022-0.146,0.031c-0.195,0.034-0.385,0.083-0.57,0.151
	c-0.032,0.011-0.065,0.013-0.098,0.025c-5.669,2.278-10.572,3.386-14.992,3.387c-0.001,0-0.002,0-0.003,0
	c-5.44,0-9.354-1.657-13.499-3.412C80.051,1.745,75.932,0,70.711,0C66.901,0,62.9,0.954,58.53,2.891C54.16,0.954,50.16,0,46.349,0
	c-5.221,0-9.34,1.744-13.324,3.431c-4.145,1.755-8.06,3.413-13.502,3.413c-4.418,0-9.322-1.108-14.993-3.387
	C3.513,3.049,2.36,3.171,1.452,3.785S0,5.423,0,6.519v26.456c0,0.003,0,0.005,0,0.008v25.199c0,0.003,0,0.005,0,0.008v23.872
	c0,1.783,1.415,3.236,3.183,3.298c6.014,2.305,11.369,3.427,16.34,3.427c0.001,0,0.002,0,0.002,0
	c6.779-0.001,11.716-2.091,16.072-3.935c3.687-1.562,6.872-2.909,10.753-2.909c2.975,0,6.213,0.812,9.875,2.481
	c0.085,0.083,0.184,0.15,0.278,0.225c0.065,0.051,0.125,0.109,0.193,0.156c0.109,0.073,0.229,0.129,0.347,0.188
	c0.071,0.036,0.137,0.081,0.21,0.111c0.133,0.057,0.276,0.092,0.418,0.13c0.066,0.019,0.129,0.047,0.197,0.061
	c0.213,0.043,0.434,0.066,0.66,0.066s0.447-0.023,0.66-0.066c0.068-0.014,0.13-0.042,0.197-0.061
	c0.142-0.038,0.285-0.073,0.418-0.13c0.074-0.031,0.14-0.076,0.211-0.112c0.117-0.06,0.237-0.115,0.346-0.188
	c0.07-0.047,0.13-0.106,0.195-0.158c0.094-0.073,0.191-0.14,0.277-0.223c3.662-1.669,6.9-2.481,9.875-2.481
	c3.881,0,7.066,1.348,10.753,2.909c4.355,1.844,9.292,3.935,16.071,3.935c4.973,0,10.329-1.122,16.342-3.427
	c0.054-0.002,0.103-0.017,0.155-0.021c0.138-0.012,0.274-0.026,0.407-0.055c0.08-0.017,0.155-0.04,0.232-0.062
	c0.115-0.033,0.228-0.069,0.338-0.115c0.078-0.032,0.155-0.068,0.231-0.106c0.102-0.052,0.2-0.108,0.296-0.17
	c0.07-0.045,0.141-0.091,0.207-0.142c0.094-0.071,0.182-0.148,0.268-0.229c0.057-0.055,0.115-0.107,0.17-0.166
	c0.084-0.091,0.158-0.189,0.232-0.29c0.044-0.06,0.091-0.116,0.131-0.18c0.068-0.108,0.125-0.225,0.181-0.341
	c0.032-0.066,0.069-0.129,0.097-0.197c0.05-0.126,0.084-0.26,0.119-0.394c0.018-0.066,0.043-0.129,0.057-0.197
	c0-0.005,0.002-0.009,0.004-0.014c0.016-0.087,0.014-0.173,0.022-0.26c0.013-0.12,0.036-0.237,0.036-0.36V82.021z M84.036,58.655
	c-3.277-4.726-6.856-9.86-12.765-14.355c3.661,0.127,6.733,1.414,10.192,2.879c4.309,1.824,9.237,3.912,16.062,3.912
	c3.688,0,7.938-0.622,12.934-2.213v9.146c-4.135,0.934-11.741,1.737-20.445-1.732c0,0,8.75,11.482,20.445,13.42v8.25
	C94.737,74.077,89.743,66.888,84.036,58.655z M6.6,37.61c4.996,1.59,9.247,2.212,12.935,2.212c6.824,0,11.754-2.087,16.063-3.912
	c6.005-2.543,10.828-4.583,19.632-0.863v18.149c-9.865-3.373-16.128-0.732-22.206,1.842c-6.801,2.88-13.259,5.591-26.424,0.809
	V37.61z M110.459,17.635v8.209c-4.348,3.82-12.703,9.781-23.318,10.699c0,0,11.686,3.687,23.318-0.549v5.915
	c-13.164,4.783-19.621,2.072-26.424-0.808c-4.891-2.071-9.904-4.18-16.813-3.172c6.017-6.238,12.116-7.142,18.917-8.146
	C93.867,28.644,102.411,27.374,110.459,17.635z M97.537,13.443c2.765,0,5.651-0.356,8.7-1.06
	c-6.655,8.746-13.436,9.746-21.062,10.872c-7.373,1.087-15.522,2.297-23.346,10.807V8.645c2.562-1.081,4.914-1.72,7.117-1.947V20.19
	c7.973-5.5,13.708-3.709,21.63-7.516c2.102,0.47,4.396,0.769,6.956,0.769C97.534,13.443,97.536,13.443,97.537,13.443z
	 M19.523,13.443c6.782,0,11.719-2.09,16.075-3.935c3.686-1.561,6.87-2.909,10.75-2.909c2.703,0,5.623,0.671,8.881,2.045v19.346
	c-9.865-3.373-16.128-0.732-22.206,1.842c-6.803,2.881-13.26,5.592-26.425,0.808V11.223C11.253,12.714,15.513,13.443,19.523,13.443z
	 M33.025,78.773c-4.145,1.755-8.06,3.412-13.5,3.413c-3.871,0-8.117-0.852-12.925-2.596V62.816c4.995,1.59,9.246,2.212,12.934,2.212
	c6.824,0,11.755-2.088,16.064-3.912c6.004-2.541,10.828-4.581,19.633-0.861v16.671c-3.114-1.062-6.048-1.583-8.879-1.583
	C41.13,75.343,37.009,77.087,33.025,78.773z M84.036,78.774c-1.643-0.695-3.312-1.394-5.067-1.981
	c-6.299-7.635-10.021-16.911-10.021-16.911v15.541c-2.286,0.171-4.644,0.659-7.117,1.503v-30.61
	c0.081-0.033,0.155-0.059,0.235-0.092c8.378,4.439,12.372,10.172,16.547,16.192c5.019,7.238,10.175,14.67,22.551,19.525
	c-1.245,0.157-2.456,0.245-3.629,0.245C92.094,82.187,88.18,80.528,84.036,78.774z"/>
</svg>
