<?xml version="1.0" encoding="utf-8"?>
<!-- Generator: Adobe Illustrator 15.1.0, SVG Export Plug-In . SVG Version: 6.00 Build 0)  -->
<!DOCTYPE svg PUBLIC "-//W3C//DTD SVG 1.1//EN" "http://www.w3.org/Graphics/SVG/1.1/DTD/svg11.dtd">
<svg version="1.1" id="Layer_1" xmlns="http://www.w3.org/2000/svg" xmlns:xlink="http://www.w3.org/1999/xlink" x="0px" y="0px"
	 width="116.923px" height="89.752px" viewBox="0 0 116.923 89.752" enable-background="new 0 0 116.923 89.752"
	 xml:space="preserve">
<symbol id="low">
<g>
	
		<path fill="none" stroke="#016635" stroke-width="6.5997" stroke-linecap="round" stroke-linejoin="round" stroke-miterlimit="10" d="
		m3.3,58.208c3.896,5.143,10.067,8.465,17.015,8.465c6.948,0,13.118-3.322,17.013-8.465H3.3z"/>
	
		<path fill="none" stroke="#016635" stroke-width="6.5997" stroke-linecap="round" stroke-linejoin="round" stroke-miterlimit="10" d="
		m78.187,86.452c-6.166-5.141-15.938-8.465-26.938-8.465s-20.771,3.324-26.938,8.465H78.187z"/>
	
		<path fill="none" stroke="#016635" stroke-width="6.5997" stroke-linecap="round" stroke-linejoin="round" stroke-miterlimit="10" d="
		m51.249,23.696c-3.037,6.168-5.004,15.938-5.004,26.939c0,10.998,1.967,20.768,5.004,26.938c3.037-6.17,5.002-15.939,5.002-26.938
		C56.251,39.634,54.286,29.864,51.249,23.696z"/>
	
		<path fill="none" stroke="#016635" stroke-width="6.5997" stroke-linecap="round" stroke-linejoin="round" stroke-miterlimit="10" d="
		m51.249,3.3c-2.373,2.211-3.906,5.715-3.906,9.658c0,3.945,1.533,7.449,3.906,9.66c2.373-2.211,3.906-5.715,3.906-9.66
		C55.155,9.015,53.622,5.511,51.249,3.3z"/>
	
		<polyline fill="none" stroke="#016635" stroke-width="6.5997" stroke-linecap="round" stroke-linejoin="round" stroke-miterlimit="10" points="
		3.3,58.208 20.314,27.151 37.327,58.208 	"/>
	
		<path fill="none" stroke="#016635" stroke-width="6.5997" stroke-linecap="round" stroke-linejoin="round" stroke-miterlimit="10" d="
		m100.093,50.397c-3.895,5.141-10.068,8.465-17.014,8.465c-6.949,0-13.119-3.324-17.014-8.465H100.093z"/>
	
		<polyline fill="none" stroke="#016635" stroke-width="6.5997" stroke-linecap="round" stroke-linejoin="round" stroke-miterlimit="10" points="
		100.093,50.397 83.079,19.339 66.065,50.397 	"/>
	
		<path fill="none" stroke="#016635" stroke-width="6.5997" stroke-linecap="round" stroke-linejoin="round" stroke-miterlimit="10" d="
		m83.095,19.335c-8.541,1.057-12.604-2.701-21.387-1.613c-5.809,0.719-10.24,5.527-10.24,5.527l0.082-0.01
		c0,0-5.471-3.582-11.279-2.865c-8.781,1.088-11.806,5.721-20.351,6.777"/>
</g>
</symbol>
<symbol id="migrate">
<g>
	
		<path fill="none" stroke="#016635" stroke-width="6.5997" stroke-linecap="round" stroke-linejoin="round" stroke-miterlimit="10" d="
		m51.21,73.705c-20.525-8.802-21.461,9.428-47.91,0v0.154V15.734c26.449,9.428,27.385-8.804,47.91,0v58.125V73.705z"/>
	
		<path fill="none" stroke="#016635" stroke-width="6.5997" stroke-linecap="round" stroke-linejoin="round" stroke-miterlimit="10" d="
		m3.3,36.05c26.449,9.428,27.385-8.806,47.91,0"/>
	
		<path fill="none" stroke="#016635" stroke-width="6.5997" stroke-linecap="round" stroke-linejoin="round" stroke-miterlimit="10" d="
		m3.3,55.443c26.449,9.427,27.385-8.804,47.91,0"/>
	
		<path fill="none" stroke="#016635" stroke-width="6.5997" stroke-linecap="round" stroke-linejoin="round" stroke-miterlimit="10" d="
		m51.21,73.705c20.527-8.802,21.463,9.428,47.91,0v0.154V15.734c-26.447,9.428-27.383-8.804-47.91,0v58.125V73.705z"/>
	
		<path fill="none" stroke="#016635" stroke-width="6.5997" stroke-linecap="round" stroke-linejoin="round" stroke-miterlimit="10" d="
		m99.12,44.72c-26.447,9.428-27.383-8.805-47.91,0"/>
	
		<path fill="none" stroke="#016635" stroke-width="6.5997" stroke-linecap="round" stroke-linejoin="round" stroke-miterlimit="10" d="
		m51.21,44.72c15.625-23.61,32.768-3.194,47.91-28.985"/>
	
		<path fill="none" stroke="#016635" stroke-width="6.5997" stroke-linecap="round" stroke-linejoin="round" stroke-miterlimit="10" d="
		m51.21,42.242c24.662,8.631,16.248,26.24,47.91,31.617"/>
	<path fill="#016635" d="m60.247,13.316v12.938c8.148-4.986,13.602-2.182,22.639-7.812L60.247,13.316z"/>
	<path fill="#016635" d="m60.247,70.508V56.794c0,0,4.277,9.46,11.32,15.562L60.247,70.508z"/>
	<path fill="#016635" d="m99.12,28.121c0,0-9.377,9.664-23.09,10.716c0,0,12.152,3.405,23.09-1.52V28.121z"/>
	<path fill="#016635" d="m99.12,54.611c0,0-9.223,3.441-20.598-0.581c0,0,9.051,10.544,20.598,10.544V54.611z"/>
</g>
</symbol>
<g>
	<g>
		
			<path fill="none" stroke="#016635" stroke-width="6.5997" stroke-linecap="round" stroke-linejoin="round" stroke-miterlimit="10" d="
			m44.141,31.364v15.992c0,3.272,2.65,5.924,5.922,5.924c3.273,0,5.924-2.651,5.924-5.924V18.754c0-5.142-4.168-9.308-9.307-9.308
			c-5.143,0-9.311,4.166-9.311,9.308"/>
		
			<rect x="3.3" y="21.9" fill="none" stroke="#016635" stroke-width="6.5997" stroke-linecap="round" stroke-linejoin="round" stroke-miterlimit="10" width="86.755" height="49.179"/>
	</g>
	
		<path fill="none" stroke="#016635" stroke-width="6.5997" stroke-linecap="round" stroke-linejoin="round" stroke-miterlimit="10" d="
		m30.717,72.747c0,4.173-3.383,7.559-7.559,7.559c-4.174,0-7.559-3.386-7.559-7.559H30.717z"/>
	
		<path fill="none" stroke="#016635" stroke-width="6.5997" stroke-linecap="round" stroke-linejoin="round" stroke-miterlimit="10" d="
		m78.906,72.747c0,4.173-3.385,7.559-7.561,7.559c-4.174,0-7.559-3.386-7.559-7.559H78.906z"/>
</g>
<g>
	<g>
		
			<rect x="3.3" y="5.55" fill="none" stroke="#016635" stroke-width="6.5997" stroke-linecap="round" stroke-linejoin="round" stroke-miterlimit="10" width="63.399" height="78.652"/>
	</g>
	
		<path fill="none" stroke="#016635" stroke-width="6.5997" stroke-linecap="round" stroke-linejoin="round" stroke-miterlimit="10" d="
		m22.979,19.244c0-2.946-2.389-5.333-5.334-5.333s-5.333,2.387-5.333,5.333c0,0.972,0,4.36,0,5.333c0,2.945,2.388,5.332,5.333,5.332
		s5.334-2.387,5.334-5.332C22.979,23.604,22.979,20.216,22.979,19.244z"/>
	
		<path fill="none" stroke="#016635" stroke-width="6.5997" stroke-linecap="round" stroke-linejoin="round" stroke-miterlimit="10" d="
		m42.042,19.244c0-2.946-2.387-5.333-5.332-5.333s-5.333,2.387-5.333,5.333c0,0.972,0,4.36,0,5.333c0,2.945,2.388,5.332,5.333,5.332
		s5.332-2.387,5.332-5.332C42.042,23.604,42.042,20.216,42.042,19.244z"/>
	
		<line fill="none" stroke="#016635" stroke-width="6.5997" stroke-linejoin="round" stroke-miterlimit="10" x1="3.3" y1="21.909" x2="12.312" y2="21.909"/>
	
		<line fill="none" stroke="#016635" stroke-width="6.5997" stroke-linejoin="round" stroke-miterlimit="10" x1="22.979" y1="21.909" x2="31.377" y2="21.909"/>
	
		<line fill="none" stroke="#016635" stroke-width="6.5997" stroke-linejoin="round" stroke-miterlimit="10" x1="42.042" y1="21.909" x2="66.699" y2="21.909"/>
	
		<path fill="none" stroke="#016635" stroke-width="6.5997" stroke-linecap="round" stroke-linejoin="round" stroke-miterlimit="10" d="
		m22.979,64.494c0-2.944-2.389-5.333-5.334-5.333s-5.333,2.389-5.333,5.333c0,0.973,0,4.36,0,5.333c0,2.945,2.388,5.333,5.333,5.333
		s5.334-2.388,5.334-5.333C22.979,68.854,22.979,65.467,22.979,64.494z"/>
	
		<path fill="none" stroke="#016635" stroke-width="6.5997" stroke-linecap="round" stroke-linejoin="round" stroke-miterlimit="10" d="
		m50.417,64.494c0-2.944-2.388-5.333-5.333-5.333c-2.944,0-5.332,2.389-5.332,5.333c0,0.973,0,4.36,0,5.333
		c0,2.945,2.388,5.333,5.332,5.333c2.945,0,5.333-2.388,5.333-5.333C50.417,68.854,50.417,65.467,50.417,64.494z"/>
	
		<line fill="none" stroke="#016635" stroke-width="6.5997" stroke-linejoin="round" stroke-miterlimit="10" x1="3.3" y1="67.16" x2="12.312" y2="67.16"/>
	
		<line fill="none" stroke="#016635" stroke-width="6.5997" stroke-linejoin="round" stroke-miterlimit="10" x1="22.979" y1="67.16" x2="39.752" y2="67.16"/>
	
		<line fill="none" stroke="#016635" stroke-width="6.5997" stroke-linejoin="round" stroke-miterlimit="10" x1="50.417" y1="67.16" x2="66.699" y2="67.16"/>
	
		<path fill="none" stroke="#016635" stroke-width="6.5997" stroke-linecap="round" stroke-linejoin="round" stroke-miterlimit="10" d="
		m34.259,42.025c0-2.944-2.388-5.333-5.333-5.333c-2.944,0-5.332,2.389-5.332,5.333c0,0.973,0,4.36,0,5.333
		c0,2.945,2.388,5.332,5.332,5.332c2.945,0,5.333-2.387,5.333-5.332C34.259,46.386,34.259,42.998,34.259,42.025z"/>
	
		<path fill="none" stroke="#016635" stroke-width="6.5997" stroke-linecap="round" stroke-linejoin="round" stroke-miterlimit="10" d="
		m57.872,42.025c0-2.944-2.388-5.333-5.333-5.333s-5.333,2.389-5.333,5.333c0,0.973,0,4.36,0,5.333c0,2.945,2.388,5.332,5.333,5.332
		s5.333-2.387,5.333-5.332C57.872,46.386,57.872,42.998,57.872,42.025z"/>
	
		<line fill="none" stroke="#016635" stroke-width="6.5997" stroke-linejoin="round" stroke-miterlimit="10" x1="3.3" y1="44.692" x2="23.594" y2="44.692"/>
	
		<line fill="none" stroke="#016635" stroke-width="6.5997" stroke-linejoin="round" stroke-miterlimit="10" x1="34.259" y1="44.692" x2="47.206" y2="44.692"/>
	
		<line fill="none" stroke="#016635" stroke-width="6.5997" stroke-linejoin="round" stroke-miterlimit="10" x1="57.872" y1="44.692" x2="66.699" y2="44.692"/>
</g>
<g>
	<g>
		
			<polygon fill="none" stroke="#016635" stroke-width="6.5997" stroke-linecap="round" stroke-linejoin="round" stroke-miterlimit="10" points="
			3.3,81.101 3.3,8.651 32.499,8.651 61.699,37.852 61.699,81.101 		"/>
	</g>
	
		<line fill="none" stroke="#016635" stroke-width="6.5997" stroke-linecap="round" stroke-linejoin="round" stroke-miterlimit="10" x1="14.768" y1="49.37" x2="50.23" y2="49.37"/>
	
		<line fill="none" stroke="#016635" stroke-width="6.5997" stroke-linecap="round" stroke-linejoin="round" stroke-miterlimit="10" x1="14.768" y1="59.451" x2="50.23" y2="59.451"/>
	
		<line fill="none" stroke="#016635" stroke-width="6.5997" stroke-linecap="round" stroke-linejoin="round" stroke-miterlimit="10" x1="32.5" y1="69.532" x2="50.23" y2="69.532"/>
	
		<polygon fill="none" stroke="#016635" stroke-width="6.5997" stroke-linecap="round" stroke-linejoin="round" stroke-miterlimit="10" points="
		32.499,37.852 61.699,37.852 32.499,8.651 	"/>
</g>
<g>
	
		<path fill="none" stroke="#016635" stroke-width="6.5997" stroke-linecap="round" stroke-linejoin="round" stroke-miterlimit="10" d="
		m106.064,48.176c4.173,0,7.559,3.385,7.559,7.561c0,4.174-3.386,7.559-7.559,7.559"/>
	
		<line fill="none" stroke="#016635" stroke-width="6.5997" stroke-linejoin="round" stroke-miterlimit="10" x1="38.252" y1="68.114" x2="71.622" y2="68.114"/>
	
		<circle fill="none" stroke="#016635" stroke-width="6.5997" stroke-linecap="round" stroke-linejoin="round" stroke-miterlimit="10" cx="81.468" cy="68.114" r="10.354"/>
	
		<circle fill="none" stroke="#016635" stroke-width="6.5997" stroke-linecap="round" stroke-linejoin="round" stroke-miterlimit="10" cx="27.897" cy="68.114" r="10.354"/>
	
		<polyline fill="none" stroke="#016635" stroke-width="6.5997" stroke-linecap="round" stroke-linejoin="round" stroke-miterlimit="10" points="
		91.822,68.114 106.064,68.114 106.064,44.24 81.467,44.24 71.113,22.956 38.252,22.956 27.896,44.24 3.3,44.24 3.3,68.114 
		17.543,68.114 	"/>
	
		<polyline fill="none" stroke="#016635" stroke-width="6.5997" stroke-linecap="round" stroke-linejoin="round" stroke-miterlimit="10" points="
		59.95,22.782 58.102,11.282 50.496,11.282 48.646,22.782 	"/>
	
		<line fill="none" stroke="#016635" stroke-width="6.5997" stroke-linecap="round" stroke-linejoin="round" stroke-miterlimit="10" x1="54.298" y1="22.956" x2="54.298" y2="68.114"/>
	
		<line fill="none" stroke="#016635" stroke-width="6.5997" stroke-linecap="round" stroke-linejoin="round" stroke-miterlimit="10" x1="27.896" y1="44.24" x2="81.467" y2="44.24"/>
</g>
<g>
	
		<path fill="none" stroke="#016635" stroke-width="6.5997" stroke-linecap="round" stroke-linejoin="round" stroke-miterlimit="10" d="
		m61.141,22.737c0-7.573-6.135-13.708-13.704-13.708c-7.571,0-13.709,6.135-13.709,13.708c0,2.498,0,11.209,0,13.708
		c0,7.571,6.138,13.705,13.709,13.705c7.569,0,13.704-6.134,13.704-13.705C61.141,33.946,61.141,25.235,61.141,22.737z"/>
	
		<path fill="none" stroke="#016635" stroke-width="6.5997" stroke-linecap="round" stroke-linejoin="round" stroke-miterlimit="10" d="
		m78.01,80.722h-61.15c0-16.88,13.689-30.571,30.572-30.571C64.317,50.15,78.01,63.842,78.01,80.722z"/>
	
		<path fill="none" stroke="#016635" stroke-width="6.5997" stroke-linecap="round" stroke-linejoin="round" stroke-miterlimit="10" d="
		m77.814,16.033c10.911,10.909,10.911,28.604,0,39.517"/>
	
		<polyline fill="none" stroke="#016635" stroke-width="6.5997" stroke-linecap="round" stroke-linejoin="round" stroke-miterlimit="10" points="
		73.545,26.833 77.814,16.033 90.271,16.993 	"/>
	
		<path fill="none" stroke="#016635" stroke-width="6.5997" stroke-linecap="round" stroke-linejoin="round" stroke-miterlimit="10" d="
		m15.758,55.55c-10.912-10.909-10.912-28.605,0-39.517"/>
	
		<polyline fill="none" stroke="#016635" stroke-width="6.5997" stroke-linecap="round" stroke-linejoin="round" stroke-miterlimit="10" points="
		20.027,44.751 15.758,55.55 3.3,54.589 	"/>
	<g>
		
			<polyline fill="none" stroke="#016635" stroke-width="6.5997" stroke-linecap="round" stroke-linejoin="round" stroke-miterlimit="10" points="
			37.308,52.212 43.625,63.673 37.308,80.722 		"/>
		
			<polyline fill="none" stroke="#016635" stroke-width="6.5997" stroke-linecap="round" stroke-linejoin="round" stroke-miterlimit="10" points="
			57.562,52.212 51.244,63.673 57.562,80.722 		"/>
		
			<line fill="none" stroke="#016635" stroke-width="6.5997" stroke-linecap="round" stroke-linejoin="round" stroke-miterlimit="10" x1="43.625" y1="63.673" x2="51.244" y2="63.673"/>
	</g>
</g>
</svg>
