<?xml version="1.0" encoding="utf-8"?>
<!-- Generator: Adobe Illustrator 15.1.0, SVG Export Plug-In . SVG Version: 6.00 Build 0)  -->
<!DOCTYPE svg PUBLIC "-//W3C//DTD SVG 1.1//EN" "http://www.w3.org/Graphics/SVG/1.1/DTD/svg11.dtd">
<svg version="1.1" id="Layer_1" xmlns="http://www.w3.org/2000/svg" xmlns:xlink="http://www.w3.org/1999/xlink" x="0px" y="0px" viewBox="0 0 273.316 332.871" enable-background="new 0 0 273.316 332.871"
	 xml:space="preserve">
<path fill="#006a43" d="M260.433,0H12.885C5.771,0,0,5.769,0,12.884v307.103c0,7.115,5.771,12.885,12.885,12.885h247.548
	c7.114,0,12.884-5.77,12.884-12.885V12.884C273.316,5.769,267.547,0,260.433,0z M247.548,25.769v38.106h-70.633
	c-1.277-17.431-15.832-31.229-33.578-31.229s-32.304,13.798-33.581,31.229h-7.275c-1.277-17.431-15.836-31.229-33.585-31.229
	c-17.75,0-32.305,13.798-33.582,31.229H25.77V25.769H247.548z M209.615,240.56c-1.273-17.429-15.832-31.232-33.582-31.232
	s-32.3,13.804-33.576,31.232H102.48c-1.277-17.429-15.832-31.232-33.585-31.232c-17.75,0-32.309,13.804-33.582,31.232H25.77v-61.958
	h53.596c1.278,17.431,15.828,31.23,33.578,31.23s32.309-13.8,33.581-31.23h25.037c1.273,17.431,15.831,31.23,33.581,31.23
	s32.309-13.8,33.582-31.23h8.823v61.958H209.615z M183.973,243.035v20.823c0,4.377-3.562,7.939-7.939,7.939
	c-4.372,0-7.935-3.562-7.935-7.939v-20.823c0-4.377,3.562-7.939,7.935-7.939C180.411,235.096,183.973,238.658,183.973,243.035z
	 M76.837,243.035v20.823c0,4.377-3.561,7.939-7.941,7.939c-4.379,0-7.939-3.562-7.939-7.939v-20.823
	c0-4.377,3.561-7.939,7.939-7.939C73.276,235.096,76.837,238.658,76.837,243.035z M105.008,176.128v-20.823
	c0-4.377,3.562-7.94,7.936-7.94c4.377,0,7.938,3.563,7.938,7.94v20.823c0,4.373-3.562,7.934-7.938,7.934
	C108.569,184.062,105.008,180.501,105.008,176.128z M197.205,176.128v-20.823c0-4.377,3.56-7.94,7.938-7.94s7.939,3.563,7.939,7.94
	v20.823c0,4.373-3.562,7.934-7.939,7.934S197.205,180.501,197.205,176.128z M238.725,152.833
	c-1.273-17.428-15.832-31.235-33.582-31.235s-32.308,13.808-33.581,31.235h-25.037c-1.272-17.428-15.831-31.235-33.581-31.235
	s-32.304,13.808-33.578,31.235H25.77V89.644h9.544c1.273,17.433,15.832,31.237,33.582,31.237c17.757,0,32.315-13.805,33.585-31.237
	h7.275c1.27,17.433,15.827,31.237,33.581,31.237s32.309-13.805,33.578-31.237h70.633v63.189H238.725z M60.956,87.178V66.354
	c0-4.378,3.561-7.939,7.939-7.939c4.381,0,7.941,3.562,7.941,7.939v20.823c0,4.373-3.561,7.935-7.941,7.935
	C64.517,95.112,60.956,91.551,60.956,87.178z M135.398,87.178V66.354c0-4.378,3.561-7.939,7.938-7.939
	c4.373,0,7.936,3.562,7.936,7.939v20.823c0,4.373-3.562,7.935-7.936,7.935C138.959,95.112,135.398,91.551,135.398,87.178z
	 M25.77,307.103V266.33h9.544c1.273,17.433,15.832,31.235,33.582,31.235c17.753,0,32.312-13.803,33.585-31.235h39.977
	c1.272,17.433,15.826,31.235,33.576,31.235s32.309-13.803,33.582-31.235h37.933v40.772H25.77z"/>
</svg>
