<?xml version="1.0" encoding="utf-8"?>
<!-- Generator: Adobe Illustrator 15.1.0, SVG Export Plug-In . SVG Version: 6.00 Build 0)  -->
<!DOCTYPE svg PUBLIC "-//W3C//DTD SVG 1.1//EN" "http://www.w3.org/Graphics/SVG/1.1/DTD/svg11.dtd">
<svg version="1.1" id="Layer_1" xmlns="http://www.w3.org/2000/svg" xmlns:xlink="http://www.w3.org/1999/xlink" x="0px" y="0px" viewBox="0 0 406.855 277.422" enable-background="new 0 0 406.855 277.422"
	 xml:space="preserve">
<path fill="#006a43" d="M406.855,22.951c0-0.113-0.039-0.219-0.039-0.33c-0.023-0.807-0.124-1.6-0.287-2.387
	c-0.039-0.158-0.039-0.33-0.082-0.484c-0.232-0.924-0.574-1.816-1-2.67c-0.113-0.225-0.268-0.426-0.393-0.65
	c-0.353-0.609-0.74-1.195-1.19-1.75c-0.206-0.252-0.435-0.484-0.659-0.725c-0.446-0.467-0.92-0.896-1.439-1.301
	c-0.167-0.127-0.295-0.299-0.466-0.418c-0.132-0.09-0.279-0.137-0.411-0.223c-0.179-0.115-0.322-0.26-0.504-0.367
	c-0.4-0.236-0.822-0.381-1.238-0.57c-0.291-0.133-0.566-0.287-0.865-0.396c-1.854-0.689-3.785-0.934-5.679-0.768
	c-0.236,0.023-0.466,0.082-0.698,0.113c-0.729,0.104-1.443,0.26-2.142,0.484c-0.14,0.043-0.283,0.047-0.419,0.094
	c-19.471,6.939-36.318,10.318-51.502,10.318c-0.004,0-0.004,0-0.008,0c-18.675,0-32.116-5.047-46.342-10.393
	C277.716,5.354,263.467,0,245.406,0c-13.132,0-26.919,2.906-41.982,8.803C188.364,2.906,174.584,0,161.453,0
	c-18.062,0-32.307,5.354-46.086,10.529c-14.229,5.346-27.671,10.393-46.354,10.393c-15.176,0-32.024-3.375-51.502-10.318
	c-4.019-1.428-8.477-0.824-11.956,1.633C2.072,14.695,0,18.691,0,22.951v230.896c0,7.08,5.613,12.848,12.631,13.1
	c20.746,7.045,39.228,10.475,56.378,10.475c0.004,0,0.008,0,0.012,0c23.431,0,40.5-6.408,55.556-12.064
	c12.65-4.748,23.578-8.854,36.88-8.854c10.141,0,21.173,2.445,33.633,7.461c0.187,0.154,0.404,0.271,0.602,0.414
	c0.252,0.188,0.5,0.365,0.764,0.531c0.427,0.268,0.869,0.502,1.319,0.719c0.271,0.131,0.54,0.268,0.823,0.379
	c0.508,0.203,1.04,0.354,1.575,0.49c0.256,0.066,0.501,0.154,0.761,0.205c0.807,0.158,1.641,0.252,2.494,0.252
	s1.688-0.094,2.494-0.252c0.26-0.051,0.505-0.139,0.761-0.205c0.535-0.137,1.066-0.287,1.579-0.49
	c0.279-0.111,0.543-0.248,0.814-0.379c0.454-0.217,0.896-0.451,1.322-0.719c0.264-0.166,0.513-0.344,0.765-0.531
	c0.198-0.143,0.415-0.26,0.602-0.414c12.46-5.016,23.493-7.461,33.638-7.461c13.302,0,24.229,4.105,36.88,8.857
	c15.06,5.652,32.125,12.061,55.56,12.061c17.154,0,35.636-3.43,56.383-10.475c0.225-0.008,0.43-0.07,0.651-0.09
	c0.539-0.045,1.07-0.104,1.595-0.213c0.317-0.07,0.624-0.162,0.931-0.256c0.458-0.131,0.903-0.275,1.342-0.457
	c0.322-0.133,0.625-0.279,0.932-0.439c0.399-0.205,0.787-0.422,1.167-0.67c0.287-0.188,0.566-0.377,0.838-0.586
	c0.361-0.275,0.699-0.57,1.032-0.885c0.24-0.229,0.481-0.453,0.706-0.703c0.314-0.34,0.594-0.709,0.869-1.086
	c0.193-0.264,0.396-0.527,0.57-0.807c0.244-0.387,0.442-0.803,0.644-1.217c0.151-0.314,0.314-0.621,0.446-0.947
	c0.155-0.412,0.268-0.846,0.388-1.281c0.097-0.359,0.218-0.713,0.287-1.086c0.008-0.061,0.035-0.119,0.047-0.182
	c0.054-0.334,0.039-0.66,0.069-0.99c0.035-0.402,0.117-0.795,0.117-1.205V22.951z M292.302,179.98
	c-9.57-12.242-19.873-25.377-35.057-37.48c8.495,1.527,16.417,4.477,25.036,7.711c14.894,5.594,31.931,11.996,55.521,11.996
	c12.29,0,26.364-1.742,42.836-6.238v24.73c-14.57,2.695-39.875,4.578-68.715-5.621c0,0,29.285,34.104,68.715,40.756v22.064
	C328.333,226.029,311.505,204.545,292.302,179.98z M26.216,121.527c16.472,4.496,30.546,6.238,42.839,6.238
	c23.59,0,40.628-6.4,55.525-11.994c20.23-7.6,36.582-13.676,65.738-3.182v25.549c0,0.016,0,0.031,0,0.047l0,0
	c0,0.012,0,0.023,0,0.031v23.885c-33.056-9.5-54.326-1.586-74.956,6.168c-23.085,8.666-44.969,16.879-89.146,2.99V121.527z
	 M380.638,62.143v21.193c-15.396,11.68-43.355,28.684-78.614,31.387c0,0,39.115,10.947,78.614-1.133v15.072
	c-44.166,13.883-66.057,5.68-89.139-2.992c-14.804-5.562-29.94-11.207-49.504-10.465c17.934-12.988,36.36-15.475,56.614-18.125
	C324.632,93.674,353.312,89.896,380.638,62.143z M337.845,47.139c7.289,0,14.851-0.68,22.69-1.934
	C339.983,65.203,318.779,68,295.208,71.084c-24.812,3.248-52.154,6.855-78.673,31.109V31.861c8.162-2.938,15.695-4.678,22.791-5.326
	v38.203c25.79-15.781,44.802-11.959,69.618-21.053c8.562,2.045,18.02,3.453,28.889,3.453
	C337.833,47.139,337.841,47.139,337.845,47.139z M69.013,47.139c23.446,0,40.512-6.414,55.571-12.068
	c12.646-4.75,23.57-8.85,36.869-8.85c8.83,0,18.333,1.85,28.866,5.637v53.205c-33.06-9.496-54.333-1.584-74.956,6.164
	c-23.085,8.67-44.984,16.875-89.146,2.99V40.85C41.575,45.07,55.695,47.139,69.013,47.139z M115.363,240.812
	c-14.229,5.346-27.671,10.393-46.346,10.393c-0.004,0-0.004,0-0.008,0c-12.868,0-26.938-2.428-42.793-7.398v-45.24
	c16.472,4.496,30.546,6.238,42.839,6.238c23.586,0,40.632-6.4,55.525-11.994c20.227-7.592,36.574-13.672,65.738-3.178v44.969
	c-10.09-2.895-19.633-4.314-28.862-4.314C143.395,230.287,129.142,235.641,115.363,240.812z M270.19,233.648
	c-19.47-22.428-30.863-47.592-30.863-47.592v44.465c-7.34,0.484-14.893,1.814-22.791,4.08v-53.814c0-0.018,0-0.033,0-0.049V147.83
	c27.706,13.328,41.112,30.391,55.113,48.297c15.548,19.893,31.488,40.244,65.032,55.039c-18.058-0.209-31.255-5.121-45.182-10.35
	C284.648,238.244,277.681,235.631,270.19,233.648z"/>
</svg>
