<?xml version="1.0" encoding="utf-8"?>
<!-- Generator: Adobe Illustrator 15.1.0, SVG Export Plug-In . SVG Version: 6.00 Build 0)  -->
<!DOCTYPE svg PUBLIC "-//W3C//DTD SVG 1.1//EN" "http://www.w3.org/Graphics/SVG/1.1/DTD/svg11.dtd">
<svg version="1.1" id="Layer_1" xmlns="http://www.w3.org/2000/svg" xmlns:xlink="http://www.w3.org/1999/xlink" x="0px" y="0px"
	 viewBox="0 0 103.385 89.753" enable-background="new 0 0 103.385 89.753"
	 xml:space="preserve">
	 	 <text transform="matrix(1 0 0 1 7.1079 13.5215)" opacity="0">low</text>
<path fill="#006a43" d="M103.223,51.408c0.016-0.05,0.032-0.099,0.046-0.149c0.049-0.183,0.088-0.366,0.105-0.553
	c0.001-0.009,0-0.019,0.001-0.027c0.015-0.179,0.012-0.357-0.002-0.536c-0.005-0.059-0.012-0.115-0.02-0.173
	c-0.02-0.15-0.05-0.299-0.091-0.446c-0.011-0.041-0.019-0.084-0.031-0.125c-0.051-0.159-0.111-0.316-0.188-0.469
	c-0.012-0.024-0.028-0.045-0.041-0.068c-0.008-0.016-0.012-0.032-0.02-0.048L86.042,17.886c-0.349-0.712-0.936-1.265-1.654-1.572
	c-0.023-0.01-0.047-0.019-0.07-0.027c-0.192-0.077-0.392-0.136-0.6-0.175c-0.08-0.017-0.16-0.034-0.242-0.044
	c-0.087-0.011-0.174-0.015-0.262-0.018c-0.047-0.002-0.092-0.01-0.139-0.01c-0.094,0-0.187,0.011-0.279,0.019
	c-0.037,0.004-0.073-0.002-0.11,0.003c-3.693,0.456-6.36-0.105-9.448-0.759c-3.266-0.688-6.966-1.471-11.938-0.854
	c-1.043,0.129-2.04,0.37-2.99,0.675c0.085-0.713,0.143-1.432,0.143-2.164c0-4.737-1.807-9.138-4.957-12.072
	c-1.266-1.182-3.232-1.182-4.498,0c-3.15,2.935-4.957,7.335-4.957,12.072c0,1.459,0.19,2.877,0.52,4.239
	c-1.485-0.227-3.073-0.3-4.697-0.098c-4.967,0.615-8.366,2.274-11.364,3.738c-2.838,1.385-5.289,2.581-8.986,3.038
	c-1.622,0.201-2.813,1.549-2.883,3.129L0.402,56.623c-0.008,0.015-0.011,0.03-0.019,0.045c-0.014,0.025-0.03,0.047-0.043,0.072
	c-0.076,0.153-0.137,0.311-0.188,0.471c-0.012,0.038-0.019,0.076-0.029,0.114c-0.042,0.151-0.073,0.305-0.094,0.459
	c-0.007,0.056-0.014,0.11-0.018,0.165c-0.015,0.184-0.019,0.367-0.003,0.551c0.001,0.005,0,0.01,0.001,0.015
	c0.018,0.188,0.057,0.374,0.105,0.557c0.014,0.049,0.029,0.097,0.045,0.145c0.046,0.144,0.102,0.282,0.167,0.419
	c0.02,0.041,0.036,0.082,0.058,0.121c0.081,0.154,0.172,0.304,0.279,0.445c0.011,0.014,0.022,0.027,0.033,0.041
	c0.008,0.011,0.017,0.021,0.025,0.031c4.705,6.165,11.838,9.7,19.587,9.7s14.882-3.535,19.586-9.7
	c0.008-0.01,0.016-0.02,0.023-0.029c0.011-0.016,0.023-0.028,0.034-0.043c0.107-0.141,0.197-0.291,0.279-0.443
	c0.021-0.041,0.038-0.084,0.059-0.125c0.064-0.135,0.119-0.273,0.165-0.414c0.017-0.05,0.032-0.099,0.046-0.149
	c0.049-0.182,0.088-0.366,0.105-0.554c0.001-0.008,0-0.016,0.001-0.022c0.016-0.18,0.012-0.36-0.002-0.54
	c-0.005-0.059-0.012-0.115-0.02-0.173c-0.02-0.15-0.05-0.299-0.091-0.446c-0.011-0.042-0.019-0.084-0.031-0.125
	c-0.051-0.159-0.111-0.316-0.188-0.469c-0.012-0.024-0.028-0.045-0.041-0.068c-0.008-0.016-0.011-0.032-0.02-0.048L25.275,29.348
	c2.35-0.743,4.309-1.696,6.116-2.578c2.781-1.357,5.407-2.64,9.279-3.119c2.384-0.294,4.781,0.382,6.513,1.083
	c-2.711,6.777-4.242,16.024-4.242,25.903c0,9.096,1.298,17.657,3.619,24.249c-9.601,0.788-18.303,3.979-24.366,9.032
	c-1.066,0.89-1.463,2.353-0.989,3.659c0.473,1.306,1.713,2.176,3.103,2.176h53.875c1.39,0,2.63-0.87,3.103-2.176
	c0.474-1.307,0.077-2.77-0.989-3.658c-6.062-5.055-14.766-8.245-24.366-9.033c2.321-6.59,3.617-15.152,3.617-24.249
	c0-10.073-1.593-19.48-4.401-26.29c1.459-1.209,4.032-2.986,6.964-3.35c3.877-0.479,6.736,0.123,9.766,0.764
	c1.706,0.36,3.541,0.739,5.601,0.933l-14.309,26.12c-0.008,0.016-0.012,0.032-0.02,0.048c-0.013,0.023-0.029,0.044-0.041,0.068
	c-0.076,0.152-0.137,0.31-0.188,0.469c-0.013,0.041-0.021,0.084-0.031,0.125c-0.041,0.147-0.071,0.296-0.091,0.445
	c-0.008,0.059-0.015,0.115-0.02,0.174c-0.014,0.179-0.017,0.357-0.002,0.536c0.001,0.009,0,0.019,0.001,0.027
	c0.018,0.187,0.057,0.37,0.105,0.552c0.014,0.052,0.03,0.102,0.047,0.151c0.045,0.14,0.1,0.276,0.164,0.411
	c0.02,0.043,0.037,0.086,0.06,0.128c0.081,0.153,0.173,0.302,0.279,0.443c0.011,0.014,0.022,0.026,0.032,0.04
	c0.009,0.011,0.018,0.021,0.026,0.032c4.704,6.164,11.837,9.699,19.585,9.699s14.881-3.535,19.585-9.699
	c0.009-0.011,0.018-0.021,0.026-0.032c0.01-0.014,0.021-0.026,0.032-0.04c0.106-0.142,0.198-0.29,0.279-0.444
	c0.022-0.041,0.04-0.084,0.06-0.127C103.122,51.686,103.177,51.549,103.223,51.408z M20.311,34.021l11.442,20.889H8.866
	L20.311,34.021z M20.311,63.374c-2.842,0-5.571-0.649-8.021-1.865h16.04C25.881,62.725,23.152,63.374,20.311,63.374z M51.245,34.055
	c1.096,4.93,1.702,10.668,1.702,16.582c0,5.911-0.606,11.649-1.702,16.579c-1.098-4.931-1.704-10.668-1.704-16.579
	C49.541,44.724,50.147,38.985,51.245,34.055z M51.245,9.294c0.394,1.138,0.606,2.385,0.606,3.665s-0.213,2.528-0.606,3.667
	c-0.394-1.139-0.606-2.387-0.606-3.667S50.852,10.432,51.245,9.294z M37.927,83.153c4.111-1.21,8.66-1.865,13.318-1.865
	s9.208,0.655,13.319,1.865H37.927z M94.519,47.099H71.632l11.443-20.891L94.519,47.099z M83.075,55.563
	c-2.841,0-5.57-0.649-8.019-1.865h16.037C88.646,54.914,85.916,55.563,83.075,55.563z"/>
</svg>
