<?xml version="1.0" encoding="utf-8"?>
<!-- Generator: Adobe Illustrator 15.1.0, SVG Export Plug-In . SVG Version: 6.00 Build 0)  -->
<!DOCTYPE svg PUBLIC "-//W3C//DTD SVG 1.1//EN" "http://www.w3.org/Graphics/SVG/1.1/DTD/svg11.dtd">
<svg version="1.1" id="Layer_1" xmlns="http://www.w3.org/2000/svg" xmlns:xlink="http://www.w3.org/1999/xlink" x="0px" y="0px"
	 viewBox="0 0 64.999 79.049" enable-background="new 0 0 64.999 79.049" xml:space="preserve">
	 	 <text transform="matrix(1 0 0 1 7.1079 13.5215)" opacity="0">egrp</text>
<g>
	<path fill="#006a43" d="M64.993,32.437c-0.004-0.196-0.02-0.392-0.059-0.583v-0.002c-0.038-0.188-0.098-0.372-0.168-0.552
		c-0.021-0.053-0.044-0.103-0.067-0.153c-0.06-0.131-0.127-0.258-0.204-0.382c-0.029-0.048-0.058-0.097-0.09-0.144
		c-0.111-0.159-0.232-0.313-0.373-0.454l-29.2-29.2c-0.141-0.141-0.294-0.262-0.454-0.373c-0.047-0.032-0.096-0.061-0.145-0.091
		c-0.123-0.076-0.249-0.144-0.38-0.202c-0.052-0.023-0.103-0.048-0.155-0.068c-0.178-0.07-0.36-0.129-0.547-0.167
		c0,0-0.004-0.001-0.006-0.001c-0.191-0.039-0.387-0.055-0.583-0.059C32.541,0.006,32.521,0,32.499,0H3.3C1.478,0,0,1.478,0,3.3
		v72.449c0,1.822,1.478,3.3,3.3,3.3h58.399c1.822,0,3.3-1.478,3.3-3.3V32.5C64.999,32.479,64.993,32.458,64.993,32.437z
		 M53.732,29.2H35.799V11.267L53.732,29.2z M6.6,72.449V6.6h22.6v25.9c0,1.822,1.478,3.3,3.3,3.3h25.9v36.649H6.6z"/>
	<path fill="#006a43" d="M50.23,40.719H14.768c-1.822,0-3.3,1.478-3.3,3.3s1.478,3.3,3.3,3.3H50.23c1.822,0,3.3-1.478,3.3-3.3
		S52.053,40.719,50.23,40.719z"/>
	<path fill="#006a43" d="M50.23,50.8H14.768c-1.822,0-3.3,1.478-3.3,3.3s1.478,3.3,3.3,3.3H50.23c1.822,0,3.3-1.478,3.3-3.3
		S52.053,50.8,50.23,50.8z"/>
	<path fill="#006a43" d="M50.23,60.881H32.5c-1.822,0-3.3,1.478-3.3,3.3s1.478,3.3,3.3,3.3h17.73c1.822,0,3.3-1.478,3.3-3.3
		S52.053,60.881,50.23,60.881z"/>
</g>
</svg>
