<?xml version="1.0" encoding="utf-8"?>
<!-- Generator: Adobe Illustrator 15.1.0, SVG Export Plug-In . SVG Version: 6.00 Build 0)  -->
<!DOCTYPE svg PUBLIC "-//W3C//DTD SVG 1.1//EN" "http://www.w3.org/Graphics/SVG/1.1/DTD/svg11.dtd">
<svg version="1.1" id="Layer_1" xmlns="http://www.w3.org/2000/svg" xmlns:xlink="http://www.w3.org/1999/xlink" x="0px" y="0px"
	 viewBox="0 0 116.923 73.787" enable-background="new 0 0 116.923 73.787"
	 xml:space="preserve">
	 <text transform="matrix(1 0 0 1 7.1079 13.5215)" opacity="0">transport</text>
<path fill="#006a43" d="M116.923,47.754c0-4.838-3.181-8.943-7.559-10.344v-1.152c0-1.822-1.478-3.3-3.3-3.3H83.531l-9.45-19.428
	c-0.553-1.136-1.705-1.856-2.968-1.856h-8.324l-1.43-8.897C61.103,1.177,59.722,0,58.102,0h-7.605c-1.62,0-3.001,1.176-3.258,2.775
	l-1.432,8.898h-7.555c-1.263,0-2.415,0.721-2.968,1.856l-9.452,19.428H3.3c-1.822,0-3.3,1.478-3.3,3.3v23.874
	c0,1.822,1.478,3.3,3.3,3.3h11.363c1.481,5.938,6.845,10.355,13.233,10.355c6.39,0,11.754-4.418,13.235-10.355h27.102
	c1.481,5.938,6.845,10.355,13.233,10.355c6.39,0,11.754-4.418,13.235-10.355h11.362c1.822,0,3.3-1.478,3.3-3.3v-2.036
	C113.742,56.695,116.923,52.591,116.923,47.754z M76.191,32.958H57.598V18.273h11.451L76.191,32.958z M53.308,6.6h1.982l0.815,5.074
	h-3.614L53.308,6.6z M40.316,18.273h10.682v14.685H33.172L40.316,18.273z M27.896,67.188c-3.89,0-7.054-3.165-7.054-7.056
	c0-3.89,3.164-7.054,7.054-7.054c3.891,0,7.056,3.164,7.056,7.054C34.952,64.022,31.787,67.188,27.896,67.188z M27.896,46.479
	c-6.389,0-11.752,4.417-13.233,10.354H6.6V39.558h21.297h23.102v17.274h-9.866C39.649,50.896,34.286,46.479,27.896,46.479z
	 M81.467,67.188c-3.89,0-7.054-3.165-7.054-7.056c0-3.89,3.164-7.054,7.054-7.054c3.891,0,7.056,3.164,7.056,7.054
	C88.522,64.022,85.357,67.188,81.467,67.188z M102.765,56.832h-8.062c-1.482-5.937-6.846-10.354-13.235-10.354
	c-6.389,0-11.752,4.417-13.233,10.354H57.598V39.558h23.869h21.298V56.832z M109.364,50.413v-5.319
	c0.591,0.731,0.959,1.648,0.959,2.66C110.323,48.765,109.955,49.682,109.364,50.413z"/>
</svg>
