<?xml version="1.0" encoding="utf-8"?>
<!-- Generator: Adobe Illustrator 15.1.0, SVG Export Plug-In . SVG Version: 6.00 Build 0)  -->
<!DOCTYPE svg PUBLIC "-//W3C//DTD SVG 1.1//EN" "http://www.w3.org/Graphics/SVG/1.1/DTD/svg11.dtd">
<svg version="1.1" id="Layer_1" xmlns="http://www.w3.org/2000/svg" xmlns:xlink="http://www.w3.org/1999/xlink" x="0px" y="0px" viewBox="0 0 416.276 344.59" enable-background="new 0 0 416.276 344.59"
	 xml:space="preserve">
<path fill="#006a43" d="M403.776,56.177H262.622v-1.69C262.622,24.442,238.181,0,208.138,0s-54.484,24.442-54.484,54.486
	c0,0.575,0.052,1.136,0.127,1.69H12.5c-6.904,0-12.5,5.596-12.5,12.5v221.806c0,6.903,5.596,12.5,12.5,12.5h43.245
	c2.495,23.354,22.313,41.607,46.319,41.607c24.005,0,43.823-18.253,46.318-41.607h124.696c2.495,23.354,22.313,41.607,46.318,41.607
	c24.006,0,43.825-18.253,46.32-41.607h38.059c6.903,0,12.5-5.597,12.5-12.5V68.677C416.276,61.773,410.68,56.177,403.776,56.177z
	 M102.064,319.59c-7.25,0-13.676-3.592-17.593-9.09h35.186C115.74,315.998,109.314,319.59,102.064,319.59z M319.397,319.59
	c-7.249,0-13.676-3.592-17.593-9.09h35.187C333.074,315.998,326.647,319.59,319.397,319.59z M178.653,54.486
	C178.653,38.228,191.88,25,208.138,25s29.484,13.228,29.484,29.486v1.69h-59.096C178.601,55.623,178.653,55.061,178.653,54.486z
	 M391.276,277.982H25V81.177h212.622v102.31c0,7.838-6.378,14.215-14.217,14.215c-7.837,0-14.213-6.377-14.213-14.215v-72.132
	c0-6.904-5.597-12.5-12.5-12.5c-6.904,0-12.5,5.596-12.5,12.5v72.132c0,21.623,17.591,39.215,39.213,39.215
	c21.624,0,39.217-17.592,39.217-39.215V81.177h128.654V277.982z"/>
</svg>
